<?xml version="1.0" standalone="no"?>
<!DOCTYPE svg PUBLIC "-//W3C//DTD SVG 1.1//EN" "http://www.w3.org/Graphics/SVG/1.1/DTD/svg11.dtd" >
<svg xmlns="http://www.w3.org/2000/svg" xmlns:xlink="http://www.w3.org/1999/xlink" version="1.1">
<metadata>
Created by FontForge 20161003 at Thu Jan 12 11:17:07 2017
 By www-data
Copyright 2011 by Timo Gaessner, 123buero. All rights reserved.
</metadata>
<defs>
<font id="MaisonNeueLight" horiz-adv-x="650" >
  <font-face 
    font-family="MaisonNeueLight"
    font-weight="300"
    font-stretch="normal"
    units-per-em="1000"
    panose-1="2 0 0 0 0 0 0 0 0 0"
    ascent="775"
    descent="-225"
    x-height="530"
    cap-height="700"
    bbox="-100 -300 1291 973"
    underline-thickness="50"
    underline-position="-150"
    unicode-range="U+000D-FB02"
  />
<missing-glyph horiz-adv-x="726" 
d="M70 0v423q0 117 86 204.5t206 87.5q121 0 207.5 -87.5t86.5 -204.5v-423h-28l-65 65l-68 -65l-63 65l-71 -65l-69 65l-63 -65l-67 65l-66 -65h-26zM430 305l63 63l64 -63l14 14l-64 63l64 64l-14 14l-64 -64l-63 64l-14 -14l63 -64l-63 -63zM170 305l63 63l64 -63l14 14
l-64 63l64 64l-14 14l-64 -64l-63 64l-14 -14l63 -64l-63 -63z" />
    <glyph glyph-name="fi" unicode="fi" horiz-adv-x="543" 
d="M109 0v470h-74v60h74v52q0 66 28 92t80 26h69v-60h-58q-33 0 -43.5 -12.5t-10.5 -55.5v-42h271v-530h-65v470h-206v-470h-65zM372 617v83h81v-83h-81z" />
    <glyph glyph-name="fl" unicode="fl" horiz-adv-x="527" 
d="M109 0v470h-74v60h74v52q0 66 28 92t80 26h69v-60h-58q-33 0 -43.5 -12.5t-10.5 -55.5v-42h198v200h65v-730h-65v470h-198v-470h-65z" />
    <glyph glyph-name=".notdef" horiz-adv-x="726" 
d="M70 0v423q0 117 86 204.5t206 87.5q121 0 207.5 -87.5t86.5 -204.5v-423h-28l-65 65l-68 -65l-63 65l-71 -65l-69 65l-63 -65l-67 65l-66 -65h-26zM430 305l63 63l64 -63l14 14l-64 63l64 64l-14 14l-64 -64l-63 64l-14 -14l63 -64l-63 -63zM170 305l63 63l64 -63l14 14
l-64 63l64 64l-14 14l-64 -64l-63 64l-14 -14l63 -64l-63 -63z" />
    <glyph glyph-name=".null" horiz-adv-x="0" 
 />
    <glyph glyph-name=".null" horiz-adv-x="0" 
 />
    <glyph glyph-name="nonmarkingreturn" horiz-adv-x="333" 
 />
    <glyph glyph-name="CR" unicode="&#xd;" horiz-adv-x="250" 
 />
    <glyph glyph-name="space" unicode=" " horiz-adv-x="250" 
 />
    <glyph glyph-name="exclam" unicode="!" horiz-adv-x="326" 
d="M131 201v499h65v-499h-65zM110 0v106h106v-106h-106z" />
    <glyph glyph-name="quotedbl" unicode="&#x22;" horiz-adv-x="381" 
d="M80 484v216h55v-216h-55zM206 484v216h55v-216h-55z" />
    <glyph glyph-name="numbersign" unicode="#" horiz-adv-x="687" 
d="M200 164l10 150h-130v50h133l10 135h-112v49h115l11 152h55l-11 -152h146l11 152h55l-11 -152h125v-49h-128l-10 -135h107v-50h-110l-10 -150h-55l10 150h-146l-10 -150h-55zM269 364h145l10 135h-146z" />
    <glyph glyph-name="dollar" unicode="$" horiz-adv-x="669" 
d="M65 244l68 12q16 -98 55.5 -147t127.5 -59l1 292q-109 28 -163.5 73.5t-54.5 117.5q0 75 59 127t160 55v60h40v-62q89 -8 145 -56.5t68 -135.5l-68 -12q-12 63 -44.5 98.5t-101.5 42.5v-252q141 -39 194 -85.5t53 -128.5q0 -87 -63.5 -143t-182.5 -56h-2v-83h-40v85
q-221 20 -251 257zM357 331l-1 -283h5q91 0 134 40t43 99q0 52 -36 82.5t-145 61.5zM166 533q0 -43 33.5 -72.5t117.5 -51.5v243q-74 -2 -112.5 -35.5t-38.5 -83.5z" />
    <glyph glyph-name="percent" unicode="%" horiz-adv-x="967" 
d="M245 361q51 0 78.5 42t27.5 113t-28.5 106.5t-77.5 35.5t-77 -36t-28 -106q0 -72 27 -113.5t78 -41.5zM245 307q-79 0 -122 56.5t-43 152.5q0 93 49.5 144.5t115.5 51.5q67 0 116.5 -51.5t49.5 -144.5q0 -95 -43.5 -152t-122.5 -57zM721 42q51 0 78.5 42t27.5 113
t-28.5 106.5t-77.5 35.5t-77 -36t-28 -106q0 -72 27 -113.5t78 -41.5zM721 -12q-79 0 -122 56.5t-43 152.5q0 93 49.5 144.5t115.5 51.5q67 0 116.5 -51.5t49.5 -144.5q0 -95 -43.5 -152t-122.5 -57zM203 -40l489 815l44 -28l-488 -814z" />
    <glyph glyph-name="ampersand" unicode="&#x26;" horiz-adv-x="703" 
d="M472 178l-217 185q-43 -22 -81.5 -68t-38.5 -104q0 -72 47 -107.5t112 -35.5q76 0 122.5 37t55.5 93zM633 39l-108 94q-17 -60 -76 -104t-156 -44q-92 0 -157.5 48.5t-65.5 148.5q0 79 43.5 134t96.5 88l-23 24q-57 60 -57 135q0 60 47 106t126 46q73 0 122 -38.5
t63 -107.5l-63 -17q-22 103 -123 103q-51 0 -80 -27t-29 -71q0 -53 67 -112l215 -186h2v140h61v-191l135 -121z" />
    <glyph glyph-name="quotesingle" unicode="'" horiz-adv-x="255" 
d="M100 484v216h55v-216h-55z" />
    <glyph glyph-name="parenleft" unicode="(" horiz-adv-x="389" 
d="M327 -165l-38 -32q-17 16 -44 53.5t-65 102t-64 154.5t-26 180q0 83 18.5 162t42.5 131t56.5 100t49.5 66.5t32 33.5l40 -33q-82 -86 -130.5 -193t-48.5 -266q0 -245 177 -459z" />
    <glyph glyph-name="parenright" unicode=")" horiz-adv-x="389" 
d="M80 -197l-38 32q177 214 177 459q0 159 -48.5 266t-130.5 193l40 33q15 -15 32 -33.5t49.5 -66.5t56.5 -100t42.5 -131t18.5 -162q0 -90 -26 -180t-64 -154.5t-65 -102t-44 -53.5z" />
    <glyph glyph-name="asterisk" unicode="*" horiz-adv-x="500" 
d="M101 385l94 114l-125 75l29 47l123 -71v150h56v-150l123 71l29 -47l-125 -75l94 -114l-43 -39l-106 135l-106 -135z" />
    <glyph glyph-name="plus" unicode="+" horiz-adv-x="578" 
d="M259 130v228h-199v55h199v202h60v-202h199v-55h-199v-228h-60z" />
    <glyph glyph-name="comma" unicode="," horiz-adv-x="306" 
d="M100 -97v38q47 8 47 59h-47v106h106v-91q0 -104 -106 -112z" />
    <glyph glyph-name="hyphen" unicode="-" horiz-adv-x="449" 
d="M60 313v65h329v-65h-329z" />
    <glyph glyph-name="period" unicode="." horiz-adv-x="306" 
d="M100 0v106h106v-106h-106z" />
    <glyph glyph-name="slash" unicode="/" horiz-adv-x="458" 
d="M25 -16l360 760l48 -22l-360 -758z" />
    <glyph glyph-name="zero" unicode="0" horiz-adv-x="626" 
d="M313 -15q-123 0 -190.5 99t-67.5 275q0 171 71 263.5t187 92.5t187 -92.5t71 -263.5q0 -176 -67.5 -275t-190.5 -99zM313 45q92 0 141 86t49 229q0 139 -50 217t-140 78t-140 -78t-50 -217q0 -143 49 -229t141 -86z" />
    <glyph glyph-name="one" unicode="1" horiz-adv-x="446" 
d="M226 0v623l-151 -95v72l161 100h50v-700h-60z" />
    <glyph glyph-name="two" unicode="2" horiz-adv-x="578" 
d="M68 0v50q0 96 33 151q20 32 55.5 58.5t100.5 62.5q113 62 151.5 98t38.5 100q0 50 -38.5 92.5t-114.5 42.5q-73 0 -117.5 -45t-47.5 -126l-64 6q4 105 67.5 165t161.5 60q104 0 161 -59t57 -138q0 -26 -5.5 -49t-12 -39.5t-22.5 -34.5t-25 -27.5t-32 -25t-31.5 -20.5
t-36.5 -20.5t-34 -18.5q-10 -6 -31.5 -17.5t-29.5 -16t-23.5 -14t-23 -15t-18 -14t-17 -16.5t-12.5 -17q-24 -38 -24 -109h379v-64h-445z" />
    <glyph glyph-name="three" unicode="3" horiz-adv-x="585" 
d="M50 230l64 12q13 -102 55 -149.5t127 -47.5q82 0 123 43.5t41 105.5q0 78 -48.5 116.5t-128.5 38.5h-34v60h14q176 0 176 121q0 58 -39.5 91.5t-104.5 33.5q-63 0 -100 -37.5t-45 -104.5l-64 11q10 87 66.5 139t142.5 52q91 0 150 -48.5t59 -136.5q0 -60 -34.5 -98
t-80.5 -48v-2q60 -14 98 -63t38 -125q0 -91 -65 -150t-163 -59q-103 0 -168 59.5t-79 185.5z" />
    <glyph glyph-name="four" unicode="4" horiz-adv-x="556" 
d="M40 171v59l286 470h101v-469h89v-60h-89v-171h-65v171h-322zM107 231h255v418h-2z" />
    <glyph glyph-name="five" unicode="5" horiz-adv-x="592" 
d="M60 181l63 19q41 -155 180 -155q81 0 127.5 51t46.5 138q0 82 -46 130t-123 48q-106 0 -162 -88l-63 25l63 351h338v-60h-288l-44 -242l1 -1q62 71 166 71q92 0 157.5 -64t65.5 -170q0 -113 -67 -181t-172 -68q-95 0 -158.5 54t-84.5 142z" />
    <glyph glyph-name="six" unicode="6" horiz-adv-x="639" 
d="M339 45q83 0 129 49t46 134q0 82 -48 130t-129 48q-76 0 -128 -51t-52 -124q0 -77 52 -131.5t130 -54.5zM542 538l-60 -16q-34 133 -151 133q-79 0 -138.5 -80t-59.5 -236l2 -1q12 37 69.5 81.5t145.5 44.5q94 0 161.5 -64.5t67.5 -168.5q0 -115 -67 -180.5t-173 -65.5
q-52 0 -98.5 19t-87 58.5t-64.5 110.5t-24 165q0 169 76 273t189 104q90 0 143.5 -50.5t68.5 -126.5z" />
    <glyph glyph-name="seven" unicode="7" horiz-adv-x="495" 
d="M37 0l347 638v2h-359v60h430v-68l-335 -632h-83z" />
    <glyph glyph-name="eight" unicode="8" horiz-adv-x="577" 
d="M288 656q-70 0 -105 -36.5t-35 -89.5q0 -55 39 -91t101 -36t100.5 36t38.5 91q0 53 -35 89.5t-104 36.5zM288 -15q-110 0 -176 55.5t-66 156.5q0 68 40.5 117.5t95.5 64.5v2q-99 43 -99 156q0 71 55.5 124.5t149.5 53.5t149 -53.5t55 -124.5q0 -116 -98 -156v-2
q55 -16 96 -65t41 -117q0 -101 -66.5 -156.5t-176.5 -55.5zM288 48q84 0 128.5 41t44.5 108t-49 108t-124 41t-124 -41t-49 -108t44.5 -108t128.5 -41z" />
    <glyph glyph-name="nine" unicode="9" horiz-adv-x="613" 
d="M85 162l63 18q13 -58 50.5 -96.5t101.5 -38.5q176 0 180 314h-3q-4 -13 -15.5 -29.5t-32.5 -37.5t-58.5 -35t-82.5 -14q-103 0 -168 65.5t-65 172.5q0 105 66.5 169.5t160.5 64.5q123 0 192 -91t69 -274q0 -100 -19.5 -173.5t-54.5 -114t-77 -59t-92 -18.5
q-80 0 -138 46.5t-77 130.5zM288 303q75 0 121.5 50t46.5 125t-49 126t-125 51q-70 0 -116 -47t-46 -127q0 -82 46 -130t122 -48z" />
    <glyph glyph-name="colon" unicode=":" horiz-adv-x="306" 
d="M100 0v106h106v-106h-106zM100 424v106h106v-106h-106z" />
    <glyph glyph-name="semicolon" unicode=";" horiz-adv-x="306" 
d="M100 -97v38q47 8 47 59h-47v106h106v-91q0 -104 -106 -112zM100 424v106h106v-106h-106z" />
    <glyph glyph-name="less" unicode="&#x3c;" horiz-adv-x="542" 
d="M60 317v70l391 233l31 -50l-366 -218l365 -221l-31 -49z" />
    <glyph glyph-name="equal" unicode="=" horiz-adv-x="603" 
d="M70 257v60h463v-60h-463zM70 420v60h463v-60h-463z" />
    <glyph glyph-name="greater" unicode="&#x3e;" horiz-adv-x="542" 
d="M462 387v-70l-390 -235l-31 49l365 221l-366 218l31 50z" />
    <glyph glyph-name="question" unicode="?" horiz-adv-x="505" 
d="M181 178v63q0 31 14.5 54.5t63.5 61.5q38 29 52.5 41t37.5 36t31.5 47.5t8.5 52.5q0 47 -33 84.5t-103 37.5q-138 0 -148 -158l-65 7q4 92 59 151t155 59q89 0 145 -50t56 -130q0 -46 -15.5 -81t-34.5 -53.5t-61 -52.5q-11 -9 -28 -22.5t-23.5 -19t-17 -14.5t-14 -14.5
t-8 -13t-6 -15t-1.5 -16.5v-55h-65zM163 0v106h106v-106h-106z" />
    <glyph glyph-name="at" unicode="@" horiz-adv-x="739" 
d="M512 72l23 -41q-65 -46 -165 -46q-151 0 -230.5 99t-79.5 261q0 161 84.5 265.5t229.5 104.5q146 0 225.5 -101.5t79.5 -257.5q0 -212 -135 -212q-61 0 -85 46h-2q-26 -44 -101 -46q-61 -1 -98 29.5t-37 83.5q0 46 25 73.5t79 43.5l55 16q38 11 54.5 23t16.5 34
q0 26 -19.5 42.5t-56.5 16.5q-70 0 -88 -79l-48 12q8 50 44 82t89 32q59 0 94.5 -30.5t35.5 -90.5v-198q0 -23 9.5 -33.5t33.5 -10.5q45 0 65.5 39.5t20.5 123.5q0 141 -65 229t-192 88q-126 0 -196 -90.5t-70 -234.5q0 -142 65.5 -228.5t196.5 -86.5q77 0 142 42zM453 276
v101h-2q-8 -17 -49 -28l-63 -18q-65 -19 -65 -72q0 -40 25.5 -53t66.5 -13q36 0 61.5 21.5t25.5 61.5z" />
    <glyph glyph-name="A" unicode="A" horiz-adv-x="620" 
d="M530 0l-53 151h-334l-53 -151h-65l251 700h68l251 -700h-65zM309 621l-147 -418h296l-147 418h-2z" />
    <glyph glyph-name="B" unicode="B" horiz-adv-x="649" 
d="M100 0v700h259q96 0 150 -49.5t54 -129.5q0 -54 -26.5 -91.5t-68.5 -53.5v-3q50 -13 85.5 -57t35.5 -113q0 -98 -61.5 -150.5t-180.5 -52.5h-247zM165 400h180q153 0 153 121q0 57 -41 88t-114 31h-178v-240zM165 60h174q185 0 185 143q0 69 -44 102t-138 33h-177v-278z
" />
    <glyph glyph-name="C" unicode="C" horiz-adv-x="675" 
d="M354 -15q-59 0 -110 21t-93 63.5t-66.5 116t-24.5 170.5q0 171 86 265t208 94q106 0 177.5 -67.5t86.5 -173.5l-67 -13q-15 84 -63.5 137.5t-133.5 53.5q-97 0 -160.5 -75t-63.5 -221q0 -148 62 -227t162 -79q174 0 197 207l69 -10q-11 -123 -82.5 -192.5t-183.5 -69.5z
" />
    <glyph glyph-name="D" unicode="D" horiz-adv-x="672" 
d="M165 60h133q249 0 249 291q0 137 -64.5 213t-178.5 76h-139v-580zM100 0v700h214q60 0 113 -21t96 -62t68.5 -109.5t25.5 -156.5q0 -96 -26 -167t-71 -109.5t-97.5 -56.5t-114.5 -18h-208z" />
    <glyph glyph-name="E" unicode="E" horiz-adv-x="588" 
d="M100 0v700h413v-60h-348v-250h320v-58h-320v-272h348v-60h-413z" />
    <glyph glyph-name="F" unicode="F" horiz-adv-x="569" 
d="M100 0v700h414v-60h-349v-275h321v-58h-321v-307h-65z" />
    <glyph glyph-name="G" unicode="G" horiz-adv-x="681" 
d="M354 -15q-59 0 -110 21t-93 63.5t-66.5 116t-24.5 170.5q0 171 86 265t208 94q102 0 171 -63.5t88 -164.5l-69 -13q-39 178 -190 178q-97 0 -160.5 -75t-63.5 -221q0 -149 62 -228.5t162 -79.5q95 0 148.5 60t51.5 164h-192v63h259v-59q0 -137 -73.5 -214t-193.5 -77z
" />
    <glyph glyph-name="H" unicode="H" horiz-adv-x="667" 
d="M100 0v700h65v-307h337v307h65v-700h-65v333h-337v-333h-65z" />
    <glyph glyph-name="I" unicode="I" horiz-adv-x="275" 
d="M105 0v700h65v-700h-65z" />
    <glyph glyph-name="J" unicode="J" horiz-adv-x="453" 
d="M30 156l66 17q5 -26 11 -45t17 -39t29.5 -30.5t43.5 -10.5q54 0 75 29.5t21 104.5v518h65v-527q0 -98 -39 -143t-122 -45q-72 0 -113 46t-54 125z" />
    <glyph glyph-name="K" unicode="K" horiz-adv-x="581" 
d="M90 0v700h65v-356h2l299 356h84l-255 -302l286 -398h-79l-251 349h-2l-84 -99v-250h-65z" />
    <glyph glyph-name="L" unicode="L" horiz-adv-x="509" 
d="M100 0v700h65v-640h309v-60h-374z" />
    <glyph glyph-name="M" unicode="M" horiz-adv-x="856" 
d="M100 0v700h101l226 -562h2l227 562h100v-700h-65v620h-2l-254 -620h-14l-254 620h-2v-620h-65z" />
    <glyph glyph-name="N" unicode="N" horiz-adv-x="682" 
d="M100 0v700h89l326 -607h2v607h65v-700h-86l-329 607h-2v-607h-65z" />
    <glyph glyph-name="O" unicode="O" horiz-adv-x="703" 
d="M354 48q98 0 158.5 77.5t60.5 225.5q0 146 -62.5 223.5t-156.5 77.5q-97 0 -160.5 -75t-63.5 -221q0 -149 62 -228.5t162 -79.5zM354 -15q-59 0 -110 21t-93 63.5t-66.5 116t-24.5 170.5q0 171 86 265t208 94q119 0 204 -96t85 -268q0 -97 -24 -170t-65.5 -114.5
t-91.5 -61.5t-108 -20z" />
    <glyph glyph-name="P" unicode="P" horiz-adv-x="620" 
d="M100 0v700h264q102 0 166.5 -55.5t64.5 -157.5t-63 -157t-166 -55h-201v-275h-65zM165 335h195q73 0 121.5 37.5t48.5 114.5t-49 115t-123 38h-193v-305z" />
    <glyph glyph-name="Q" unicode="Q" horiz-adv-x="703" 
d="M593 -16l-64 63q-74 -62 -175 -62q-59 0 -110 21t-93 63.5t-66.5 116t-24.5 170.5q0 171 86 265t208 94q119 0 204 -96t85 -268q0 -165 -75 -263l66 -65zM300 276l41 39l181 -181q51 78 51 217q0 146 -62.5 223.5t-156.5 77.5q-97 0 -160.5 -75t-63.5 -221
q0 -149 62 -228.5t162 -79.5q79 0 130 44z" />
    <glyph glyph-name="R" unicode="R" horiz-adv-x="645" 
d="M100 0v700h264q110 0 170.5 -50t60.5 -153q0 -87 -49 -137t-131 -62l158 -298h-75l-153 295h-180v-295h-65zM165 355h195q75 0 122.5 33t47.5 109q0 143 -172 143h-193v-285z" />
    <glyph glyph-name="S" unicode="S" horiz-adv-x="620" 
d="M55 244l68 12q16 -109 62.5 -158.5t153.5 -49.5q86 0 128 39.5t42 94.5q0 52 -37.5 84t-160.5 72q-119 38 -170.5 81t-51.5 117q0 75 58.5 127t156.5 52t162 -49.5t76 -144.5l-68 -12q-12 69 -50.5 106t-119.5 37q-71 0 -109.5 -33.5t-38.5 -82.5q0 -44 32.5 -71
t140.5 -63q147 -49 196.5 -93.5t49.5 -124.5q0 -84 -62.5 -141.5t-176.5 -57.5q-250 0 -281 259z" />
    <glyph glyph-name="T" unicode="T" horiz-adv-x="565" 
d="M250 0v640h-220v60h505v-60h-220v-640h-65z" />
    <glyph glyph-name="U" unicode="U" horiz-adv-x="657" 
d="M85 228v472h65v-466q0 -186 178 -186q88 0 133.5 46.5t45.5 137.5v468h65v-472q0 -120 -63 -181.5t-181 -61.5t-180.5 61.5t-62.5 181.5z" />
    <glyph glyph-name="V" unicode="V" horiz-adv-x="621" 
d="M269 0l-244 700h70l217 -634h2l212 634h70l-239 -700h-88z" />
    <glyph glyph-name="W" unicode="W" horiz-adv-x="908" 
d="M175 0l-125 700h67l112 -620h2l177 620h92l177 -620h2l112 620h67l-131 -700h-85l-187 630h-3l-186 -630h-91z" />
    <glyph glyph-name="X" unicode="X" horiz-adv-x="568" 
d="M30 0l215 361l-201 339h72l166 -287h2l157 287h72l-191 -339l216 -361h-72l-181 309h-2l-181 -309h-72z" />
    <glyph glyph-name="Y" unicode="Y" horiz-adv-x="564" 
d="M251 0v295l-231 405h73l188 -343h3l187 343h73l-231 -405v-295h-62z" />
    <glyph glyph-name="Z" unicode="Z" horiz-adv-x="617" 
d="M60 0v48l416 594v2h-382v56h463v-48l-416 -590v-2h406v-60h-487z" />
    <glyph glyph-name="bracketleft" unicode="[" horiz-adv-x="377" 
d="M90 -182v912h237v-50h-182v-812h182v-50h-237z" />
    <glyph glyph-name="backslash" unicode="\" horiz-adv-x="458" 
d="M385 -36l-360 758l48 22l360 -760z" />
    <glyph glyph-name="bracketright" unicode="]" horiz-adv-x="377" 
d="M287 730v-912h-237v50h182v812h-182v50h237z" />
    <glyph glyph-name="asciicircum" unicode="^" horiz-adv-x="540" 
d="M80 325l173 375h34l173 -375h-67l-123 282l-124 -282h-66z" />
    <glyph glyph-name="underscore" unicode="_" horiz-adv-x="642" 
d="M70 -130v60h502v-60h-502z" />
    <glyph glyph-name="grave" unicode="`" horiz-adv-x="286" 
d="M167 595l-107 120h88l78 -120h-59z" />
    <glyph glyph-name="a" unicode="a" horiz-adv-x="539" 
d="M399 0v61h-2q-16 -30 -60.5 -53t-107.5 -23q-85 0 -129.5 42t-44.5 107t40 103t137 63q31 8 42 11t35.5 10.5t34 13.5t22.5 16t18 21.5t5 25.5q0 38 -29 62.5t-89 24.5q-113 0 -135 -112l-62 14q10 71 61 114.5t133 43.5q191 0 191 -181v-364h-60zM249 247
q-75 -21 -102 -45t-27 -64q0 -93 114 -93q76 0 118 35.5t42 87.5v146h-2q-13 -31 -143 -67z" />
    <glyph glyph-name="b" unicode="b" horiz-adv-x="594" 
d="M155 349v-187q0 -47 41.5 -82t102.5 -35q86 0 130.5 58t44.5 162q0 103 -45 161.5t-130 58.5q-65 0 -104.5 -42.5t-39.5 -93.5zM90 0v730h65v-251h2q55 66 152 66q101 0 165.5 -77t64.5 -203q0 -128 -62.5 -204t-167.5 -76q-51 0 -93 19t-67 47h-2v-51h-57z" />
    <glyph glyph-name="c" unicode="c" horiz-adv-x="559" 
d="M444 199l65 -12q-9 -86 -68.5 -144t-147.5 -58q-107 0 -172.5 73.5t-65.5 206.5q0 131 68 205.5t170 74.5q85 0 145.5 -55t69.5 -141l-64 -10q-10 62 -47.5 104t-102.5 42q-78 0 -126 -58t-48 -162q0 -105 46.5 -162.5t126.5 -57.5q68 0 105 45.5t46 108.5z" />
    <glyph glyph-name="d" unicode="d" horiz-adv-x="594" 
d="M439 162v187q0 51 -39.5 93.5t-104.5 42.5q-85 0 -130 -58.5t-45 -161.5q0 -104 44.5 -162t130.5 -58q61 0 102.5 35t41.5 82zM447 0v51h-2q-25 -28 -67 -47t-93 -19q-105 0 -167.5 76t-62.5 204q0 126 64.5 203t165.5 77q97 0 152 -66h2v251h65v-730h-57z" />
    <glyph glyph-name="e" unicode="e" horiz-adv-x="588" 
d="M467 156l55 -30q-26 -60 -83 -100.5t-139 -40.5q-107 0 -176 76.5t-69 203.5t67.5 203.5t173.5 76.5q107 0 172 -74t65 -206v-19h-412q0 -81 45.5 -141t131.5 -60q34 0 62 9t44 19.5t31 29.5t19.5 28zM123 301h343q0 32 -8.5 62.5t-27 59t-53.5 45.5t-81 17t-81.5 -19
t-54.5 -48.5t-28 -59.5t-9 -57z" />
    <glyph glyph-name="f" unicode="f" horiz-adv-x="324" 
d="M109 0v470h-74v60h74v52q0 66 28 92t80 26h79v-60h-68q-33 0 -43.5 -12.5t-10.5 -55.5v-42h130v-60h-130v-470h-65z" />
    <glyph glyph-name="g" unicode="g" horiz-adv-x="589" 
d="M95 -92l60 24q35 -112 143 -112q68 0 104.5 41t36.5 111v72h-2q-57 -59 -152 -59q-105 0 -167.5 76t-62.5 204q0 126 64.5 203t165.5 77q97 0 152 -66h2v51h65v-540q0 -113 -53 -171.5t-151 -58.5q-80 0 -132 40.5t-73 107.5zM439 162v187q0 51 -39.5 93.5t-104.5 42.5
q-85 0 -130 -58.5t-45 -161.5q0 -104 44.5 -162t130.5 -58q61 0 102.5 35t41.5 82z" />
    <glyph glyph-name="h" unicode="h" horiz-adv-x="588" 
d="M90 0v730h65v-257h2q25 32 68 52t92 20q84 0 135 -51t51 -150v-344h-65v324q0 161 -128 161q-68 0 -111.5 -40t-43.5 -112v-333h-65z" />
    <glyph glyph-name="i" unicode="i" horiz-adv-x="261" 
d="M98 0v530h65v-530h-65zM90 617v83h81v-83h-81z" />
    <glyph glyph-name="j" unicode="j" horiz-adv-x="253" 
d="M30 -195v65h14q25 0 36.5 11t11.5 49v600h65v-596q0 -73 -26 -101t-76 -28h-25zM82 617v83h81v-83h-81z" />
    <glyph glyph-name="k" unicode="k" horiz-adv-x="528" 
d="M90 0v730h65v-450h2l234 250h90l-194 -208l221 -322h-78l-191 277h-2l-82 -87v-190h-65z" />
    <glyph glyph-name="l" unicode="l" horiz-adv-x="245" 
d="M90 0v730h65v-730h-65z" />
    <glyph glyph-name="m" unicode="m" horiz-adv-x="844" 
d="M90 0v530h58v-51h2q20 29 58 47.5t80 18.5q96 0 140 -80h2q19 31 61 55.5t93 24.5q80 0 127.5 -49.5t47.5 -135.5v-360h-65v336q0 149 -114 149q-58 0 -91 -37t-33 -105v-343h-65v336q0 77 -27.5 113t-86.5 36q-62 0 -92 -40t-30 -102v-343h-65z" />
    <glyph glyph-name="n" unicode="n" horiz-adv-x="592" 
d="M90 0v530h65v-51h2q21 29 64.5 47.5t89.5 18.5q86 0 141 -53t55 -144v-348h-65v324q0 79 -34.5 120t-100.5 41q-67 0 -109.5 -37.5t-42.5 -104.5v-343h-65z" />
    <glyph glyph-name="o" unicode="o" horiz-adv-x="581" 
d="M293 45q72 0 120 58.5t48 161.5q0 104 -47.5 162t-120.5 58q-76 0 -124.5 -57.5t-48.5 -162.5t49.5 -162.5t123.5 -57.5zM293 -15q-104 0 -171 74.5t-67 205.5q0 130 69 205t169 75q98 0 165.5 -75t67.5 -205q0 -132 -65.5 -206t-167.5 -74z" />
    <glyph glyph-name="p" unicode="p" horiz-adv-x="594" 
d="M155 349v-187q0 -47 41.5 -82t102.5 -35q86 0 130.5 58t44.5 162q0 103 -45 161.5t-130 58.5q-65 0 -104.5 -42.5t-39.5 -93.5zM90 -225v755h62v-51h2q23 29 65 47.5t90 18.5q101 0 165.5 -77t64.5 -203q0 -128 -62.5 -204t-167.5 -76q-46 0 -89 19t-63 47h-2v-276h-65z
" />
    <glyph glyph-name="q" unicode="q" horiz-adv-x="594" 
d="M439 162v187q0 51 -39.5 93.5t-104.5 42.5q-85 0 -130 -58.5t-45 -161.5q0 -104 44.5 -162t130.5 -58q61 0 102.5 35t41.5 82zM439 -225v276h-2q-52 -66 -152 -66q-105 0 -167.5 76t-62.5 204q0 126 64.5 203t165.5 77q48 0 90 -18.5t65 -47.5h2v51h62v-755h-65z" />
    <glyph glyph-name="r" unicode="r" horiz-adv-x="345" 
d="M90 0v530h63v-57h2q17 33 47.5 49.5t62.5 16.5q13 0 24.5 -2.5t16.5 -4.5l4 -3l-13 -66q-11 8 -42 8q-44 0 -72 -32t-28 -94v-345h-65z" />
    <glyph glyph-name="s" unicode="s" horiz-adv-x="516" 
d="M50 182l65 10q8 -75 45.5 -112t108.5 -37q68 0 101 25.5t33 67.5q0 44 -30.5 67.5t-126.5 49.5q-100 27 -139 60.5t-39 91.5q0 57 48 98.5t131 41.5q85 0 135 -41.5t65 -109.5l-60 -16q-30 110 -140 110q-57 0 -87 -25t-30 -58q0 -36 27 -53.5t121 -44.5
q107 -31 147.5 -67t40.5 -103q0 -63 -48.5 -107.5t-148.5 -44.5q-103 0 -157.5 54.5t-61.5 142.5z" />
    <glyph glyph-name="t" unicode="t" horiz-adv-x="354" 
d="M109 143v327h-74v60h76v130h63v-130h130v-60h-130v-318q0 -48 13 -68t51 -20h38v-64h-40q-127 0 -127 143z" />
    <glyph glyph-name="u" unicode="u" horiz-adv-x="575" 
d="M85 184v346h65v-334q0 -82 32 -116.5t107 -34.5q64 0 97.5 41t33.5 111v333h65v-530h-65v51h-2l-5 -7.5t-16 -15.5t-28 -20t-40.5 -16t-54.5 -7q-86 0 -137.5 48.5t-51.5 150.5z" />
    <glyph glyph-name="v" unicode="v" horiz-adv-x="540" 
d="M244 0l-214 530h67l172 -437h2l172 437h67l-214 -530h-52z" />
    <glyph glyph-name="w" unicode="w" horiz-adv-x="781" 
d="M167 0l-117 530h65l90 -414h2l147 414h63l148 -414h2l99 414h65l-127 -530h-59l-159 451h-2l-156 -451h-61z" />
    <glyph glyph-name="x" unicode="x" horiz-adv-x="498" 
d="M30 0l177 272l-166 258h75l132 -213h2l132 213h74l-165 -258l177 -272h-75l-144 227h-2l-143 -227h-74z" />
    <glyph glyph-name="y" unicode="y" horiz-adv-x="498" 
d="M109 -225l108 272l-192 483h69l154 -407h2l154 407h69l-300 -755h-64z" />
    <glyph glyph-name="z" unicode="z" horiz-adv-x="555" 
d="M60 0v49l349 419v2h-328v60h414v-47l-347 -421v-2h346v-60h-434z" />
    <glyph glyph-name="braceleft" unicode="{" horiz-adv-x="387" 
d="M141 -49v231q0 32 -12 45t-41 13h-28v89h28q29 0 41 14.5t12 46.5v208q0 76 31 104t89 28h56v-50h-50q-38 0 -54.5 -19t-16.5 -67v-207q0 -28 -9 -49t-22.5 -31.5t-22.5 -15.5t-16 -6q7 -2 15.5 -7t22.5 -15.5t23 -31t9 -46.5v-230q0 -48 16.5 -67t54.5 -19h50v-50h-56
q-58 0 -89 28t-31 104z" />
    <glyph glyph-name="bar" unicode="|" horiz-adv-x="275" 
d="M110 -300v1075h55v-1075h-55z" />
    <glyph glyph-name="braceright" unicode="}" horiz-adv-x="387" 
d="M196 182v-231q0 -76 -31 -104t-89 -28h-56v50h50q38 0 54.5 19t16.5 67v230q0 26 9 46.5t23 31t22.5 15.5t15.5 7q-7 1 -16 6t-22.5 15.5t-22.5 31.5t-9 49v207q0 48 -16.5 67t-54.5 19h-50v50h56q58 0 89 -28t31 -104v-208q0 -32 12 -46.5t41 -14.5h28v-89h-28
q-29 0 -41 -13t-12 -45z" />
    <glyph glyph-name="asciitilde" unicode="~" horiz-adv-x="591" 
d="M192 400q-20 0 -34.5 -7t-25 -24t-14 -25.5t-11.5 -32.5l-47 18q30 133 131 133q42 0 79.5 -22t69.5 -43.5t59 -21.5q20 0 34.5 7t25 24t14 25.5t11.5 32.5l47 -18q-30 -133 -131 -133q-42 0 -80 21.5t-69.5 43.5t-58.5 22z" />
    <glyph glyph-name="nbspace" unicode="&#xa0;" horiz-adv-x="200" 
 />
    <glyph glyph-name="exclamdown" unicode="&#xa1;" horiz-adv-x="326" 
d="M175 329v-499h-65v499h65zM196 530v-106h-106v106h106z" />
    <glyph glyph-name="cent" unicode="&#xa2;" horiz-adv-x="574" 
d="M454 199l65 -12q-9 -84 -64.5 -141t-139.5 -61v-95h-35v96q-98 8 -156.5 81t-58.5 198q0 123 60.5 196.5t154.5 82.5v87h35v-86q81 -5 137.5 -59t65.5 -137l-64 -10q-10 60 -44.5 101t-94.5 44v-439q62 5 96 49.5t43 104.5zM130 265q0 -97 39.5 -154t110.5 -65v437
q-68 -8 -109 -65.5t-41 -152.5z" />
    <glyph glyph-name="sterling" unicode="&#xa3;" horiz-adv-x="667" 
d="M100 0v60h38q38 0 52 14.5t14 51.5v197h-104v55h104v130q0 98 50 152.5t137 54.5q80 0 127.5 -48t59.5 -139l-63 -13q-12 72 -40 106t-86 34q-120 0 -120 -158v-119h210v-55h-210v-263h318v-60h-487z" />
    <glyph glyph-name="currency" unicode="&#xa4;" horiz-adv-x="689" 
d="M90 114l65 65q-47 64 -47 150q0 83 47 149l-65 65l40 40l63 -64q67 57 151 57q88 0 153 -55l62 62l40 -40l-64 -64q46 -67 46 -150q0 -87 -47 -151l65 -64l-40 -40l-64 63q-64 -51 -151 -51q-89 0 -150 52l-64 -64zM345 147q65 0 112 44.5t47 136.5q0 94 -47 139.5
t-112 45.5q-66 0 -113.5 -45.5t-47.5 -139.5q0 -92 47.5 -136.5t113.5 -44.5z" />
    <glyph glyph-name="yen" unicode="&#xa5;" horiz-adv-x="644" 
d="M81 146v55h208v93h-208v55h179l-200 351h72l189 -338h2l189 338h72l-200 -351h180v-55h-208v-93h208v-55h-210v-146h-63v146h-210z" />
    <glyph glyph-name="brokenbar" unicode="&#xa6;" horiz-adv-x="285" 
d="M110 321v327h65v-327h-65zM110 -131v327h65v-327h-65z" />
    <glyph glyph-name="section" unicode="&#xa7;" horiz-adv-x="617" 
d="M546 238q2 -83 -87 -145q45 -45 45 -109q0 -74 -51.5 -121t-133.5 -47q-81 0 -133.5 46t-64.5 130l61 14q12 -62 44 -96t93 -34q59 0 89.5 33t30.5 76q0 38 -22 63t-72 45l-135 53q-75 29 -106.5 63.5t-32.5 83.5q-2 83 87 145q-45 45 -45 109q0 74 51.5 121t133.5 47
q81 0 133.5 -46t64.5 -130l-61 -14q-12 62 -44 96t-93 34q-59 0 -89.5 -33t-30.5 -76q0 -38 22 -63t72 -45l135 -53q75 -29 106.5 -63.5t32.5 -83.5zM481 232q0 61 -97 99l-148 58l-31 16q-69 -47 -69 -106q0 -61 97 -99l148 -58l31 -16q69 47 69 106z" />
    <glyph glyph-name="dieresis" unicode="&#xa8;" horiz-adv-x="411" 
d="M70 617v83h81v-83h-81zM260 617v83h81v-83h-81z" />
    <glyph glyph-name="copyright" unicode="&#xa9;" horiz-adv-x="735" 
d="M366 46q-130 0 -218.5 88.5t-88.5 219.5q0 130 88.5 218.5t218.5 88.5t219 -88.5t89 -218.5t-89 -219t-219 -89zM366 94q111 0 185 74.5t74 185.5q0 110 -74 184t-185 74q-110 0 -184 -74t-74 -184q0 -111 74 -185.5t184 -74.5zM453 307l52 -10q-8 -61 -43 -98.5
t-92 -37.5q-65 0 -108.5 49.5t-43.5 137.5q0 92 43.5 143.5t108.5 51.5q57 0 92 -37t41 -94l-52 -10q-12 91 -81 91q-43 0 -70 -37.5t-27 -107.5q0 -67 27 -102.5t70 -35.5q72 0 83 97z" />
    <glyph glyph-name="ordfeminine" unicode="&#xaa;" horiz-adv-x="369" 
d="M255 384v33h-2q-5 -13 -29 -27.5t-62 -14.5q-53 0 -80 25.5t-27 65.5q0 39 24 60.5t81 35.5q50 13 68 22.5t18 27.5q0 19 -15 32t-46 13q-59 0 -74 -60l-48 16q9 41 40 66.5t81 25.5q54 0 87 -29t33 -86v-206h-49zM173 523q-37 -10 -50.5 -23t-13.5 -31q0 -20 15 -32.5
t44 -12.5q39 0 60 18t21 43v72h-1q-9 -16 -75 -34z" />
    <glyph glyph-name="guillemotleft" unicode="&#xab;" horiz-adv-x="552" 
d="M207 100l-107 181l108 186h70l-109 -186l108 -181h-70zM391 100l-107 181l108 186h70l-109 -186l108 -181h-70z" />
    <glyph glyph-name="logicalnot" unicode="&#xac;" horiz-adv-x="637" 
d="M70 391v60h477v-238h-65v178h-412z" />
    <glyph glyph-name="registered" unicode="&#xae;" horiz-adv-x="472" 
d="M234 380q66 0 109 42.5t43 106.5q0 66 -43 108.5t-109 42.5q-64 0 -106.5 -42.5t-42.5 -108.5q0 -64 42.5 -106.5t106.5 -42.5zM234 354q-73 0 -123.5 50.5t-50.5 124.5q0 76 50 126.5t124 50.5q76 0 127 -50.5t51 -126.5q0 -74 -51 -124.5t-127 -50.5zM174 423v213h64
q76 0 76 -61q0 -52 -54 -62l47 -90h-27l-48 89h-36v-89h-22zM196 536h44q50 0 50 39t-50 39h-44v-78z" />
    <glyph glyph-name="macron" unicode="&#xaf;" horiz-adv-x="428" 
d="M70 620v55h288v-55h-288z" />
    <glyph glyph-name="degree" unicode="&#xb0;" horiz-adv-x="395" 
d="M197 491q-58 0 -95 39.5t-37 97.5t38 98.5t94 40.5q58 0 95.5 -40t37.5 -99t-37.5 -98t-95.5 -39zM197 544q31 0 51.5 19.5t20.5 64.5q0 86 -72 86t-72 -86q0 -45 20.5 -64.5t51.5 -19.5z" />
    <glyph glyph-name="plusminus" unicode="&#xb1;" horiz-adv-x="598" 
d="M80 101v60h438v-60h-438zM269 225v193h-199v55h199v177h60v-177h199v-55h-199v-193h-60z" />
    <glyph glyph-name="twosuperior" unicode="&#xb2;" horiz-adv-x="367" 
d="M43 473v47q0 54 26 91q3 4 6.5 7.5t6.5 7t8 7t8 6t9 6.5t9.5 6t11 6t10.5 5.5t12 6.5t12 7q71 39 86 54q21 22 21 52q0 28 -22 49.5t-61 21.5q-81 0 -89 -96l-57 7q4 67 43.5 104t104.5 37q62 0 99.5 -35t37.5 -91q0 -27 -9.5 -48.5t-28 -38t-35 -27t-42.5 -23.5
q-33 -18 -45.5 -25t-25.5 -16.5t-20 -19.5q-11 -16 -11 -47h219v-61h-284z" />
    <glyph glyph-name="threesuperior" unicode="&#xb3;" horiz-adv-x="360" 
d="M25 615l58 12q6 -55 29 -80.5t69 -25.5q44 0 66 21.5t22 55.5q0 38 -24.5 58t-68.5 20h-25v48h17q18 0 35 4t33.5 18.5t16.5 38.5q0 31 -20 49t-55 18q-67 0 -77 -75l-54 10q4 54 40.5 86t92.5 32q55 0 92 -30.5t37 -82.5q0 -35 -19.5 -57t-41.5 -29v-2q30 -8 53.5 -35.5
t23.5 -73.5q0 -55 -39.5 -91t-104.5 -36t-106 36.5t-50 110.5z" />
    <glyph glyph-name="acute" unicode="&#xb4;" horiz-adv-x="285" 
d="M60 595l77 120h88l-106 -120h-59z" />
    <glyph glyph-name="mu" unicode="&#xb5;" horiz-adv-x="606" 
d="M95 -225v755h65v-324q0 -79 42 -120t110 -41q65 0 104.5 42t39.5 110v333h65v-530h-65v51h-2q-6 -7 -17.5 -18t-49.5 -29.5t-79 -18.5q-99 0 -149 57v-267h-64z" />
    <glyph glyph-name="paragraph" unicode="&#xb6;" horiz-adv-x="553" 
d="M181 -136v444q-68 2 -114.5 48t-46.5 118q0 77 47 121.5t118 44.5h278v-776h-61v716h-155v-716h-66z" />
    <glyph glyph-name="periodcentered" unicode="&#xb7;" horiz-adv-x="306" 
d="M100 332v106h106v-106h-106z" />
    <glyph glyph-name="cedilla" unicode="&#xb8;" horiz-adv-x="283" 
d="M30 -174l29 40q37 -29 75 -29q60 0 60 45q0 41 -48 41q-16 0 -33 -4.5t-25 -9.5l-9 -5l-29 16l47 80h43l-37 -58q21 14 58 14q35 0 60.5 -19.5t25.5 -55.5q0 -41 -29 -66.5t-87 -25.5q-55 0 -101 37z" />
    <glyph glyph-name="onesuperior" unicode="&#xb9;" horiz-adv-x="269" 
d="M127 473v358l-92 -57v65l98 61h51v-427h-57z" />
    <glyph glyph-name="ordmasculine" unicode="&#xba;" horiz-adv-x="368" 
d="M185 426q37 0 59.5 30.5t22.5 84.5t-22.5 84.5t-59.5 30.5q-39 0 -62 -30t-23 -85t23 -85t62 -30zM185 375q-61 0 -100.5 44t-39.5 122q0 77 40.5 121t99.5 44q58 0 98 -44t40 -121q0 -78 -39 -122t-99 -44z" />
    <glyph glyph-name="guillemotright" unicode="&#xbb;" horiz-adv-x="552" 
d="M432 281l-107 -181h-70l108 181l-109 186h70zM248 281l-107 -181h-70l108 181l-109 186h70z" />
    <glyph glyph-name="onequarter" unicode="&#xbc;" horiz-adv-x="846" 
d="M136 -40l489 815l44 -28l-488 -814zM137 273v358l-92 -57v65l98 61h51v-427h-57zM475 106v54l162 267h85v-267h54v-54h-54v-105h-57v105h-190zM529 160h136v219h-2z" />
    <glyph glyph-name="onehalf" unicode="&#xbd;" horiz-adv-x="890" 
d="M136 -41l489 815l44 -28l-488 -814zM137 272v358l-92 -57v65l98 61h51v-427h-57zM546 0v47q0 54 26 91q3 4 6.5 7.5t6.5 7t8 7t8 6t9 6.5t9.5 6t11 6t10.5 5.5t12 6.5t12 7q71 39 86 54q21 22 21 52q0 28 -22 49.5t-61 21.5q-81 0 -89 -96l-57 7q4 67 43.5 104t104.5 37
q62 0 99.5 -35t37.5 -91q0 -27 -9.5 -48.5t-28 -38t-35 -27t-42.5 -23.5q-33 -18 -45.5 -25t-25.5 -16.5t-20 -19.5q-11 -16 -11 -47h219v-61h-284z" />
    <glyph glyph-name="threequarters" unicode="&#xbe;" horiz-adv-x="895" 
d="M218 -40l489 815l44 -28l-488 -814zM60 415l58 12q6 -55 29 -80.5t69 -25.5q44 0 66 21.5t22 55.5q0 38 -24.5 58t-68.5 20h-25v48h17q18 0 35 4t33.5 18.5t16.5 38.5q0 31 -20 49t-55 18q-67 0 -77 -75l-54 10q4 54 40.5 86t92.5 32q55 0 92 -30.5t37 -82.5
q0 -35 -19.5 -57t-41.5 -29v-2q30 -8 53.5 -35.5t23.5 -73.5q0 -55 -39.5 -91t-104.5 -36t-106 36.5t-50 110.5zM544 106v54l162 267h85v-267h54v-54h-54v-105h-57v105h-190zM598 160h136v219h-2z" />
    <glyph glyph-name="questiondown" unicode="&#xbf;" horiz-adv-x="505" 
d="M304 352v-63q0 -31 -14.5 -54.5t-63.5 -61.5q-38 -29 -52.5 -41t-37.5 -36t-31.5 -47.5t-8.5 -52.5q0 -47 33 -84.5t103 -37.5q138 0 148 158l65 -7q-4 -92 -59 -151t-155 -59q-89 0 -145 50t-56 130q0 46 15.5 81t34.5 53.5t61 52.5q11 9 28 22.5t23.5 19t17 14.5
t14 14.5t8 13t6 15t1.5 16.5v55h65zM322 530v-106h-106v106h106z" />
    <glyph glyph-name="Agrave" unicode="&#xc0;" horiz-adv-x="620" 
d="M530 0l-53 151h-334l-53 -151h-65l251 700h68l251 -700h-65zM309 621l-147 -418h296l-147 418h-2zM280 765l-107 120h88l78 -120h-59z" />
    <glyph glyph-name="Aacute" unicode="&#xc1;" horiz-adv-x="620" 
d="M530 0l-53 151h-334l-53 -151h-65l251 700h68l251 -700h-65zM309 621l-147 -418h296l-147 418h-2zM287 765l78 120h88l-107 -120h-59z" />
    <glyph glyph-name="Acircumflex" unicode="&#xc2;" horiz-adv-x="620" 
d="M530 0l-53 151h-334l-53 -151h-65l251 700h68l251 -700h-65zM309 621l-147 -418h296l-147 418h-2zM197 780l66 85h100l66 -85l-41 -33l-75 94l-75 -94z" />
    <glyph glyph-name="Atilde" unicode="&#xc3;" horiz-adv-x="620" 
d="M530 0l-53 151h-334l-53 -151h-65l251 700h68l251 -700h-65zM309 621l-147 -418h296l-147 418h-2zM216 765h-37q19 88 85 88q25 0 59 -18.5t52 -18.5q27 0 35 32h37q-9 -40 -27 -64t-57 -24q-25 0 -59.5 18.5t-52.5 18.5q-27 0 -35 -32z" />
    <glyph glyph-name="Adieresis" unicode="&#xc4;" horiz-adv-x="620" 
d="M530 0l-53 151h-334l-53 -151h-65l251 700h68l251 -700h-65zM309 621l-147 -418h296l-147 418h-2zM368 765v83h81v-83h-81zM178 765v83h81v-83h-81z" />
    <glyph glyph-name="Aring" unicode="&#xc5;" horiz-adv-x="620" 
d="M530 0l-53 151h-334l-53 -151h-65l249 695q-26 11 -41.5 36t-15.5 56q0 42 27.5 71t68.5 29q42 0 69 -28.5t27 -71.5q0 -34 -17 -59.5t-46 -35.5l249 -692h-65zM309 621l-147 -418h296l-147 418h-2zM313 727q20 0 35 16t15 45t-14.5 44t-35.5 15q-20 0 -34.5 -15
t-14.5 -44t14.5 -45t34.5 -16z" />
    <glyph glyph-name="AE" unicode="&#xc6;" horiz-adv-x="861" 
d="M25 0l263 700h498v-60h-318v-250h290v-58h-290v-272h318v-60h-383v158h-253l-58 -158h-67zM169 214h234v426h-76z" />
    <glyph glyph-name="Ccedilla" unicode="&#xc7;" horiz-adv-x="675" 
d="M291 -174l29 40q37 -29 75 -29q60 0 60 45q0 41 -48 41q-16 0 -33 -4.5t-26 -9.5l-8 -5l-29 16l38 65q-58 1 -108 22.5t-91.5 64t-65.5 115.5t-24 169q0 171 86 265t208 94q106 0 177.5 -67.5t86.5 -173.5l-67 -13q-15 84 -63.5 137.5t-133.5 53.5q-97 0 -160.5 -75
t-63.5 -221q0 -148 62 -227t162 -79q174 0 197 207l69 -10q-10 -112 -70.5 -180t-156.5 -79l-29 -46q21 14 58 14q35 0 60.5 -19.5t25.5 -55.5q0 -41 -29 -66.5t-87 -25.5q-55 0 -101 37z" />
    <glyph glyph-name="Egrave" unicode="&#xc8;" horiz-adv-x="588" 
d="M100 0v700h413v-60h-348v-250h320v-58h-320v-272h348v-60h-413zM299 765l-107 120h88l78 -120h-59z" />
    <glyph glyph-name="Eacute" unicode="&#xc9;" horiz-adv-x="588" 
d="M100 0v700h413v-60h-348v-250h320v-58h-320v-272h348v-60h-413zM282 765l78 120h88l-107 -120h-59z" />
    <glyph glyph-name="Ecircumflex" unicode="&#xca;" horiz-adv-x="588" 
d="M100 0v700h413v-60h-348v-250h320v-58h-320v-272h348v-60h-413zM207 780l66 85h100l66 -85l-41 -33l-75 94l-75 -94z" />
    <glyph glyph-name="Edieresis" unicode="&#xcb;" horiz-adv-x="588" 
d="M100 0v700h413v-60h-348v-250h320v-58h-320v-272h348v-60h-413zM363 765v83h81v-83h-81zM173 765v83h81v-83h-81z" />
    <glyph glyph-name="Igrave" unicode="&#xcc;" horiz-adv-x="275" 
d="M105 0v700h65v-700h-65zM91 765l-107 120h88l78 -120h-59z" />
    <glyph glyph-name="Iacute" unicode="&#xcd;" horiz-adv-x="275" 
d="M105 0v700h65v-700h-65zM98 765l78 120h88l-107 -120h-59z" />
    <glyph glyph-name="Icircumflex" unicode="&#xce;" horiz-adv-x="275" 
d="M105 0v700h65v-700h-65zM19 780l66 85h100l66 -85l-41 -33l-75 94l-75 -94z" />
    <glyph glyph-name="Idieresis" unicode="&#xcf;" horiz-adv-x="275" 
d="M105 0v700h65v-700h-65zM187 765v83h81v-83h-81zM-3 765v83h81v-83h-81z" />
    <glyph glyph-name="Eth" unicode="&#xd0;" horiz-adv-x="705" 
d="M113 0v338h-68v60h68v302h234q61 0 114.5 -21t96.5 -62.5t67.5 -109.5t24.5 -156q0 -97 -25.5 -167.5t-70.5 -109t-97.5 -56.5t-115.5 -18h-228zM178 60h153q249 0 249 291q0 143 -63.5 216t-179.5 73h-159v-242h203v-60h-203v-278z" />
    <glyph glyph-name="Ntilde" unicode="&#xd1;" horiz-adv-x="682" 
d="M100 0v700h89l326 -607h2v607h65v-700h-86l-329 607h-2v-607h-65zM261 765h-37q19 88 85 88q25 0 59 -18.5t52 -18.5q27 0 35 32h37q-9 -40 -27 -64t-57 -24q-25 0 -59.5 18.5t-52.5 18.5q-27 0 -35 -32z" />
    <glyph glyph-name="Ograve" unicode="&#xd2;" horiz-adv-x="703" 
d="M354 48q98 0 158.5 77.5t60.5 225.5q0 146 -62.5 223.5t-156.5 77.5q-97 0 -160.5 -75t-63.5 -221q0 -149 62 -228.5t162 -79.5zM354 -15q-59 0 -110 21t-93 63.5t-66.5 116t-24.5 170.5q0 171 86 265t208 94q119 0 204 -96t85 -268q0 -97 -24 -170t-65.5 -114.5
t-91.5 -61.5t-108 -20zM330 765l-107 120h88l78 -120h-59z" />
    <glyph glyph-name="Oacute" unicode="&#xd3;" horiz-adv-x="703" 
d="M354 48q98 0 158.5 77.5t60.5 225.5q0 146 -62.5 223.5t-156.5 77.5q-97 0 -160.5 -75t-63.5 -221q0 -149 62 -228.5t162 -79.5zM354 -15q-59 0 -110 21t-93 63.5t-66.5 116t-24.5 170.5q0 171 86 265t208 94q119 0 204 -96t85 -268q0 -97 -24 -170t-65.5 -114.5
t-91.5 -61.5t-108 -20zM325 765l78 120h88l-107 -120h-59z" />
    <glyph glyph-name="Ocircumflex" unicode="&#xd4;" horiz-adv-x="703" 
d="M354 48q98 0 158.5 77.5t60.5 225.5q0 146 -62.5 223.5t-156.5 77.5q-97 0 -160.5 -75t-63.5 -221q0 -149 62 -228.5t162 -79.5zM354 -15q-59 0 -110 21t-93 63.5t-66.5 116t-24.5 170.5q0 171 86 265t208 94q119 0 204 -96t85 -268q0 -97 -24 -170t-65.5 -114.5
t-91.5 -61.5t-108 -20zM248 780l66 85h100l66 -85l-41 -33l-75 94l-75 -94z" />
    <glyph glyph-name="Otilde" unicode="&#xd5;" horiz-adv-x="703" 
d="M354 48q98 0 158.5 77.5t60.5 225.5q0 146 -62.5 223.5t-156.5 77.5q-97 0 -160.5 -75t-63.5 -221q0 -149 62 -228.5t162 -79.5zM354 -15q-59 0 -110 21t-93 63.5t-66.5 116t-24.5 170.5q0 171 86 265t208 94q119 0 204 -96t85 -268q0 -97 -24 -170t-65.5 -114.5
t-91.5 -61.5t-108 -20zM264 765h-37q19 88 85 88q25 0 59 -18.5t52 -18.5q27 0 35 32h37q-9 -40 -27 -64t-57 -24q-25 0 -59.5 18.5t-52.5 18.5q-27 0 -35 -32z" />
    <glyph glyph-name="Odieresis" unicode="&#xd6;" horiz-adv-x="703" 
d="M354 48q98 0 158.5 77.5t60.5 225.5q0 146 -62.5 223.5t-156.5 77.5q-97 0 -160.5 -75t-63.5 -221q0 -149 62 -228.5t162 -79.5zM354 -15q-59 0 -110 21t-93 63.5t-66.5 116t-24.5 170.5q0 171 86 265t208 94q119 0 204 -96t85 -268q0 -97 -24 -170t-65.5 -114.5
t-91.5 -61.5t-108 -20zM416 765v83h81v-83h-81zM226 765v83h81v-83h-81z" />
    <glyph glyph-name="multiply" unicode="&#xd7;" horiz-adv-x="551" 
d="M60 164l172 172l-162 162l43 43l162 -162l163 162l43 -43l-163 -162l173 -172l-43 -43l-173 172l-172 -172z" />
    <glyph glyph-name="Oslash" unicode="&#xd8;" horiz-adv-x="703" 
d="M129 5l31 55q-100 97 -100 296q0 171 86 265t208 94q83 0 153 -50l29 50l36 -21l-32 -56q103 -103 103 -287q0 -97 -24 -170t-65.5 -114.5t-91.5 -61.5t-108 -20q-90 0 -161 47l-27 -47zM506 580l-279 -489q52 -43 127 -43q98 0 158.5 77.5t60.5 225.5q0 147 -67 229z
M196 122l280 488q-54 42 -122 42q-97 0 -160.5 -75t-63.5 -221q0 -150 66 -234z" />
    <glyph glyph-name="Ugrave" unicode="&#xd9;" horiz-adv-x="657" 
d="M85 228v472h65v-466q0 -186 178 -186q88 0 133.5 46.5t45.5 137.5v468h65v-472q0 -120 -63 -181.5t-181 -61.5t-180.5 61.5t-62.5 181.5zM321 765l-107 120h88l78 -120h-59z" />
    <glyph glyph-name="Uacute" unicode="&#xda;" horiz-adv-x="657" 
d="M85 228v472h65v-466q0 -186 178 -186q88 0 133.5 46.5t45.5 137.5v468h65v-472q0 -120 -63 -181.5t-181 -61.5t-180.5 61.5t-62.5 181.5zM317 765l78 120h88l-107 -120h-59z" />
    <glyph glyph-name="Ucircumflex" unicode="&#xdb;" horiz-adv-x="657" 
d="M85 228v472h65v-466q0 -186 178 -186q88 0 133.5 46.5t45.5 137.5v468h65v-472q0 -120 -63 -181.5t-181 -61.5t-180.5 61.5t-62.5 181.5zM227 780l66 85h100l66 -85l-41 -33l-75 94l-75 -94z" />
    <glyph glyph-name="Udieresis" unicode="&#xdc;" horiz-adv-x="657" 
d="M85 228v472h65v-466q0 -186 178 -186q88 0 133.5 46.5t45.5 137.5v468h65v-472q0 -120 -63 -181.5t-181 -61.5t-180.5 61.5t-62.5 181.5zM393 765v83h81v-83h-81zM203 765v83h81v-83h-81z" />
    <glyph glyph-name="Yacute" unicode="&#xdd;" horiz-adv-x="564" 
d="M251 0v295l-231 405h73l188 -343h3l187 343h73l-231 -405v-295h-62zM261 765l78 120h88l-107 -120h-59z" />
    <glyph glyph-name="Thorn" unicode="&#xde;" horiz-adv-x="665" 
d="M100 0v700h65v-116h219q112 0 176.5 -57.5t64.5 -165.5q0 -109 -61.5 -165.5t-179.5 -56.5h-219v-139h-65zM165 199h209q86 0 136 38.5t50 123.5q0 163 -186 163h-209v-325z" />
    <glyph glyph-name="germandbls" unicode="&#xdf;" horiz-adv-x="582" 
d="M80 0v493q0 107 58.5 164.5t149.5 57.5q88 0 145.5 -51t57.5 -136q0 -32 -11 -59t-27 -42t-28 -22.5t-19 -9.5v-2q6 -1 17 -5.5t29 -17.5t33 -32t26 -51.5t11 -72.5q0 -107 -56.5 -160.5t-176.5 -53.5h-32v60h27q90 0 131.5 38t41.5 116q0 143 -150 143h-50v59h31
q63 0 100.5 27.5t37.5 84.5q0 60 -36.5 93.5t-101.5 33.5q-139 0 -139 -170v-485h-69z" />
    <glyph glyph-name="agrave" unicode="&#xe0;" horiz-adv-x="539" 
d="M399 0v61h-2q-16 -30 -60.5 -53t-107.5 -23q-85 0 -129.5 42t-44.5 107t40 103t137 63q31 8 42 11t35.5 10.5t34 13.5t22.5 16t18 21.5t5 25.5q0 38 -29 62.5t-89 24.5q-113 0 -135 -112l-62 14q10 71 61 114.5t133 43.5q191 0 191 -181v-364h-60zM249 247
q-75 -21 -102 -45t-27 -64q0 -93 114 -93q76 0 118 35.5t42 87.5v146h-2q-13 -31 -143 -67zM261 595l-107 120h88l78 -120h-59z" />
    <glyph glyph-name="aacute" unicode="&#xe1;" horiz-adv-x="539" 
d="M399 0v61h-2q-16 -30 -60.5 -53t-107.5 -23q-85 0 -129.5 42t-44.5 107t40 103t137 63q31 8 42 11t35.5 10.5t34 13.5t22.5 16t18 21.5t5 25.5q0 38 -29 62.5t-89 24.5q-113 0 -135 -112l-62 14q10 71 61 114.5t133 43.5q191 0 191 -181v-364h-60zM249 247
q-75 -21 -102 -45t-27 -64q0 -93 114 -93q76 0 118 35.5t42 87.5v146h-2q-13 -31 -143 -67zM235 595l77 120h88l-106 -120h-59z" />
    <glyph glyph-name="acircumflex" unicode="&#xe2;" horiz-adv-x="539" 
d="M399 0v61h-2q-16 -30 -60.5 -53t-107.5 -23q-85 0 -129.5 42t-44.5 107t40 103t137 63q31 8 42 11t35.5 10.5t34 13.5t22.5 16t18 21.5t5 25.5q0 38 -29 62.5t-89 24.5q-113 0 -135 -112l-62 14q10 71 61 114.5t133 43.5q191 0 191 -181v-364h-60zM249 247
q-75 -21 -102 -45t-27 -64q0 -93 114 -93q76 0 118 35.5t42 87.5v146h-2q-13 -31 -143 -67zM165 615l66 85h100l66 -85l-41 -33l-75 94l-75 -94z" />
    <glyph glyph-name="atilde" unicode="&#xe3;" horiz-adv-x="539" 
d="M399 0v61h-2q-16 -30 -60.5 -53t-107.5 -23q-85 0 -129.5 42t-44.5 107t40 103t137 63q31 8 42 11t35.5 10.5t34 13.5t22.5 16t18 21.5t5 25.5q0 38 -29 62.5t-89 24.5q-113 0 -135 -112l-62 14q10 71 61 114.5t133 43.5q191 0 191 -181v-364h-60zM249 247
q-75 -21 -102 -45t-27 -64q0 -93 114 -93q76 0 118 35.5t42 87.5v146h-2q-13 -31 -143 -67zM182 605h-37q19 88 85 88q25 0 59 -18.5t52 -18.5q27 0 35 32h37q-9 -40 -27 -64t-57 -24q-25 0 -59.5 18.5t-52.5 18.5q-27 0 -35 -32z" />
    <glyph glyph-name="adieresis" unicode="&#xe4;" horiz-adv-x="539" 
d="M399 0v61h-2q-16 -30 -60.5 -53t-107.5 -23q-85 0 -129.5 42t-44.5 107t40 103t137 63q31 8 42 11t35.5 10.5t34 13.5t22.5 16t18 21.5t5 25.5q0 38 -29 62.5t-89 24.5q-113 0 -135 -112l-62 14q10 71 61 114.5t133 43.5q191 0 191 -181v-364h-60zM249 247
q-75 -21 -102 -45t-27 -64q0 -93 114 -93q76 0 118 35.5t42 87.5v146h-2q-13 -31 -143 -67zM144 617v83h81v-83h-81zM334 617v83h81v-83h-81z" />
    <glyph glyph-name="aring" unicode="&#xe5;" horiz-adv-x="539" 
d="M399 0v61h-2q-16 -30 -60.5 -53t-107.5 -23q-85 0 -129.5 42t-44.5 107t40 103t137 63q31 8 42 11t35.5 10.5t34 13.5t22.5 16t18 21.5t5 25.5q0 38 -29 62.5t-89 24.5q-113 0 -135 -112l-62 14q8 59 45.5 100t98.5 53q-40 29 -40 83q0 42 27.5 71t68.5 29q42 0 69 -28.5
t27 -71.5q0 -56 -41 -84q130 -28 130 -175v-364h-60zM249 247q-75 -21 -102 -45t-27 -64q0 -93 114 -93q76 0 118 35.5t42 87.5v146h-2q-13 -31 -143 -67zM274 563q20 0 35 16t15 45t-14.5 44t-35.5 15q-20 0 -34.5 -15t-14.5 -44t14.5 -45t34.5 -16z" />
    <glyph glyph-name="ae" unicode="&#xe6;" horiz-adv-x="927" 
d="M808 168l57 -29q-23 -65 -81.5 -109.5t-141.5 -44.5q-81 0 -135 39.5t-74 79.5h-2q-41 -119 -202 -119q-85 0 -129.5 42t-44.5 107q0 64 39.5 101t138.5 64q98 27 125 45q31 21 31 54q0 38 -29 62.5t-89 24.5q-113 0 -135 -112l-62 14q10 71 61 114.5t133 43.5
q137 0 177 -98q68 98 190 98q107 0 172 -74t65 -206v-19h-412q0 -81 47 -141t133 -60q42 0 73 12t50 35.5t27 37.5t18 38zM462 301h343q0 32 -8.5 62.5t-27 59t-53.5 45.5t-81 17t-81.5 -19t-54.5 -48.5t-28 -59.5t-9 -57zM249 247q-75 -21 -102.5 -45t-27.5 -64
q0 -93 115 -93q76 0 118 35.5t42 87.5v146h-2q-13 -31 -143 -67z" />
    <glyph glyph-name="ccedilla" unicode="&#xe7;" horiz-adv-x="559" 
d="M208 -174l29 40q37 -29 75 -29q60 0 60 45q0 41 -48 41q-16 0 -33 -4.5t-25 -9.5l-9 -5l-29 16l39 66q-96 9 -154 82t-58 197q0 131 68 205.5t170 74.5q85 0 145.5 -55t69.5 -141l-64 -10q-10 62 -47.5 104t-102.5 42q-78 0 -126 -58t-48 -162q0 -105 46.5 -162.5
t126.5 -57.5q68 0 105 45.5t46 108.5l65 -12q-9 -83 -63.5 -139.5t-137.5 -61.5l-27 -44q21 14 58 14q35 0 60.5 -19.5t25.5 -55.5q0 -41 -29 -66.5t-87 -25.5q-55 0 -101 37z" />
    <glyph glyph-name="egrave" unicode="&#xe8;" horiz-adv-x="588" 
d="M467 156l55 -30q-26 -60 -83 -100.5t-139 -40.5q-107 0 -176 76.5t-69 203.5t67.5 203.5t173.5 76.5q107 0 172 -74t65 -206v-19h-412q0 -81 45.5 -141t131.5 -60q34 0 62 9t44 19.5t31 29.5t19.5 28zM123 301h343q0 32 -8.5 62.5t-27 59t-53.5 45.5t-81 17t-81.5 -19
t-54.5 -48.5t-28 -59.5t-9 -57zM280 595l-107 120h88l78 -120h-59z" />
    <glyph glyph-name="eacute" unicode="&#xe9;" horiz-adv-x="588" 
d="M467 156l55 -30q-26 -60 -83 -100.5t-139 -40.5q-107 0 -176 76.5t-69 203.5t67.5 203.5t173.5 76.5q107 0 172 -74t65 -206v-19h-412q0 -81 45.5 -141t131.5 -60q34 0 62 9t44 19.5t31 29.5t19.5 28zM123 301h343q0 32 -8.5 62.5t-27 59t-53.5 45.5t-81 17t-81.5 -19
t-54.5 -48.5t-28 -59.5t-9 -57zM284 595l77 120h88l-106 -120h-59z" />
    <glyph glyph-name="ecircumflex" unicode="&#xea;" horiz-adv-x="588" 
d="M467 156l55 -30q-26 -60 -83 -100.5t-139 -40.5q-107 0 -176 76.5t-69 203.5t67.5 203.5t173.5 76.5q107 0 172 -74t65 -206v-19h-412q0 -81 45.5 -141t131.5 -60q34 0 62 9t44 19.5t31 29.5t19.5 28zM123 301h343q0 32 -8.5 62.5t-27 59t-53.5 45.5t-81 17t-81.5 -19
t-54.5 -48.5t-28 -59.5t-9 -57zM198 615l66 85h100l66 -85l-41 -33l-75 94l-75 -94z" />
    <glyph glyph-name="edieresis" unicode="&#xeb;" horiz-adv-x="588" 
d="M467 156l55 -30q-26 -60 -83 -100.5t-139 -40.5q-107 0 -176 76.5t-69 203.5t67.5 203.5t173.5 76.5q107 0 172 -74t65 -206v-19h-412q0 -81 45.5 -141t131.5 -60q34 0 62 9t44 19.5t31 29.5t19.5 28zM123 301h343q0 32 -8.5 62.5t-27 59t-53.5 45.5t-81 17t-81.5 -19
t-54.5 -48.5t-28 -59.5t-9 -57zM179 617v83h81v-83h-81zM369 617v83h81v-83h-81z" />
    <glyph glyph-name="igrave" unicode="&#xec;" horiz-adv-x="240" 
d="M90 0v530h60v-530h-60zM93 595l-107 120h88l78 -120h-59z" />
    <glyph glyph-name="iacute" unicode="&#xed;" horiz-adv-x="240" 
d="M90 0v530h60v-530h-60zM97 595l77 120h88l-106 -120h-59z" />
    <glyph glyph-name="icircumflex" unicode="&#xee;" horiz-adv-x="240" 
d="M90 0v530h60v-530h-60zM16 615l66 85h100l66 -85l-41 -33l-75 94l-75 -94z" />
    <glyph glyph-name="idieresis" unicode="&#xef;" horiz-adv-x="240" 
d="M90 0v530h60v-530h-60zM0 617v83h81v-83h-81zM190 617v83h81v-83h-81z" />
    <glyph glyph-name="eth" unicode="&#xf0;" horiz-adv-x="576" 
d="M509 713l-120 -33q132 -192 132 -415q0 -133 -62.5 -206.5t-168.5 -73.5q-108 0 -171.5 72.5t-63.5 208.5q0 134 63 206.5t161 72.5q93 0 144 -57l2 1q-29 89 -93 175l-151 -43l-12 40l135 37q-35 42 -69 74v3h78q27 -29 51 -60l133 37zM290 42q80 0 124.5 56t44.5 166
q0 106 -45.5 166t-133.5 60q-75 0 -120 -56.5t-45 -169.5q0 -111 47 -166.5t128 -55.5z" />
    <glyph glyph-name="ntilde" unicode="&#xf1;" horiz-adv-x="592" 
d="M90 0v530h65v-51h2q21 29 64.5 47.5t89.5 18.5q86 0 141 -53t55 -144v-348h-65v324q0 79 -34.5 120t-100.5 41q-67 0 -109.5 -37.5t-42.5 -104.5v-343h-65zM206 605h-37q19 88 85 88q25 0 59 -18.5t52 -18.5q27 0 35 32h37q-9 -40 -27 -64t-57 -24q-25 0 -59.5 18.5
t-52.5 18.5q-27 0 -35 -32z" />
    <glyph glyph-name="ograve" unicode="&#xf2;" horiz-adv-x="581" 
d="M293 45q72 0 120 58.5t48 161.5q0 104 -47.5 162t-120.5 58q-76 0 -124.5 -57.5t-48.5 -162.5t49.5 -162.5t123.5 -57.5zM293 -15q-104 0 -171 74.5t-67 205.5q0 130 69 205t169 75q98 0 165.5 -75t67.5 -205q0 -132 -65.5 -206t-167.5 -74zM270 595l-107 120h88l78 -120
h-59z" />
    <glyph glyph-name="oacute" unicode="&#xf3;" horiz-adv-x="581" 
d="M293 45q72 0 120 58.5t48 161.5q0 104 -47.5 162t-120.5 58q-76 0 -124.5 -57.5t-48.5 -162.5t49.5 -162.5t123.5 -57.5zM293 -15q-104 0 -171 74.5t-67 205.5q0 130 69 205t169 75q98 0 165.5 -75t67.5 -205q0 -132 -65.5 -206t-167.5 -74zM270 595l77 120h88l-106 -120
h-59z" />
    <glyph glyph-name="ocircumflex" unicode="&#xf4;" horiz-adv-x="581" 
d="M293 45q72 0 120 58.5t48 161.5q0 104 -47.5 162t-120.5 58q-76 0 -124.5 -57.5t-48.5 -162.5t49.5 -162.5t123.5 -57.5zM293 -15q-104 0 -171 74.5t-67 205.5q0 130 69 205t169 75q98 0 165.5 -75t67.5 -205q0 -132 -65.5 -206t-167.5 -74zM187 615l66 85h100l66 -85
l-41 -33l-75 94l-75 -94z" />
    <glyph glyph-name="otilde" unicode="&#xf5;" horiz-adv-x="581" 
d="M293 45q72 0 120 58.5t48 161.5q0 104 -47.5 162t-120.5 58q-76 0 -124.5 -57.5t-48.5 -162.5t49.5 -162.5t123.5 -57.5zM293 -15q-104 0 -171 74.5t-67 205.5q0 130 69 205t169 75q98 0 165.5 -75t67.5 -205q0 -132 -65.5 -206t-167.5 -74zM205 605h-37q19 88 85 88
q25 0 59 -18.5t52 -18.5q27 0 35 32h37q-9 -40 -27 -64t-57 -24q-25 0 -59.5 18.5t-52.5 18.5q-27 0 -35 -32z" />
    <glyph glyph-name="odieresis" unicode="&#xf6;" horiz-adv-x="581" 
d="M293 45q72 0 120 58.5t48 161.5q0 104 -47.5 162t-120.5 58q-76 0 -124.5 -57.5t-48.5 -162.5t49.5 -162.5t123.5 -57.5zM293 -15q-104 0 -171 74.5t-67 205.5q0 130 69 205t169 75q98 0 165.5 -75t67.5 -205q0 -132 -65.5 -206t-167.5 -74zM165 617v83h81v-83h-81z
M355 617v83h81v-83h-81z" />
    <glyph glyph-name="divide" unicode="&#xf7;" horiz-adv-x="504" 
d="M60 324v60h384v-60h-384zM188 143q0 27 18.5 45.5t44.5 18.5q27 0 45.5 -18.5t18.5 -45.5q0 -26 -18.5 -44.5t-45.5 -18.5q-26 0 -44.5 18.5t-18.5 44.5zM188 566q0 27 18.5 45.5t44.5 18.5q27 0 45.5 -18.5t18.5 -45.5q0 -26 -18.5 -44.5t-45.5 -18.5q-26 0 -44.5 18.5
t-18.5 44.5z" />
    <glyph glyph-name="oslash" unicode="&#xf8;" horiz-adv-x="581" 
d="M70 13l44 56q-59 75 -59 196q0 130 69 205t169 75q85 0 147 -56l40 51l30 -24l-44 -56q60 -76 60 -195q0 -132 -65.5 -206t-167.5 -74q-91 0 -153 56l-40 -51zM426 408l-247 -316q45 -47 114 -47q72 0 120 58.5t48 161.5q0 86 -35 143zM155 122l247 318q-45 45 -109 45
q-76 0 -124.5 -57.5t-48.5 -162.5q0 -86 35 -143z" />
    <glyph glyph-name="ugrave" unicode="&#xf9;" horiz-adv-x="560" 
d="M243 595l-107 120h88l78 -120h-59zM55 184v346h65v-334q0 -82 32 -116.5t107 -34.5q64 0 97.5 41t33.5 111v333h65v-530h-65v51h-2l-5 -7.5t-16 -15.5t-28 -20t-40.5 -16t-54.5 -7q-86 0 -137.5 48.5t-51.5 150.5z" />
    <glyph glyph-name="uacute" unicode="&#xfa;" horiz-adv-x="560" 
d="M230 595l77 120h88l-106 -120h-59zM55 184v346h65v-334q0 -82 32 -116.5t107 -34.5q64 0 97.5 41t33.5 111v333h65v-530h-65v51h-2l-5 -7.5t-16 -15.5t-28 -20t-40.5 -16t-54.5 -7q-86 0 -137.5 48.5t-51.5 150.5z" />
    <glyph glyph-name="ucircumflex" unicode="&#xfb;" horiz-adv-x="560" 
d="M151 615l66 85h100l66 -85l-41 -33l-75 94l-75 -94zM55 184v346h65v-334q0 -82 32 -116.5t107 -34.5q64 0 97.5 41t33.5 111v333h65v-530h-65v51h-2l-5 -7.5t-16 -15.5t-28 -20t-40.5 -16t-54.5 -7q-86 0 -137.5 48.5t-51.5 150.5z" />
    <glyph glyph-name="udieresis" unicode="&#xfc;" horiz-adv-x="560" 
d="M126 617v83h81v-83h-81zM316 617v83h81v-83h-81zM55 184v346h65v-334q0 -82 32 -116.5t107 -34.5q64 0 97.5 41t33.5 111v333h65v-530h-65v51h-2l-5 -7.5t-16 -15.5t-28 -20t-40.5 -16t-54.5 -7q-86 0 -137.5 48.5t-51.5 150.5z" />
    <glyph glyph-name="yacute" unicode="&#xfd;" horiz-adv-x="498" 
d="M109 -225l108 272l-192 483h69l154 -407h2l154 407h69l-300 -755h-64zM226 595l77 120h88l-106 -120h-59z" />
    <glyph glyph-name="thorn" unicode="&#xfe;" horiz-adv-x="594" 
d="M90 -225v955h64v-255h2q55 70 153 70q101 0 165.5 -77t64.5 -203q0 -128 -62.5 -204t-167.5 -76q-46 0 -89 19t-63 47h-2v-276h-65zM155 349v-187q0 -47 41.5 -82t102.5 -35q86 0 130.5 58t44.5 162q0 103 -45 161.5t-130 58.5q-65 0 -104.5 -42.5t-39.5 -93.5z" />
    <glyph glyph-name="ydieresis" unicode="&#xff;" horiz-adv-x="498" 
d="M109 -225l108 272l-192 483h69l154 -407h2l154 407h69l-300 -755h-64zM118 617v83h81v-83h-81zM308 617v83h81v-83h-81z" />
    <glyph glyph-name="Amacron" unicode="&#x100;" horiz-adv-x="620" 
d="M530 0l-53 151h-334l-53 -151h-65l251 700h68l251 -700h-65zM309 621l-147 -418h296l-147 418h-2zM169 765v55h288v-55h-288z" />
    <glyph glyph-name="amacron" unicode="&#x101;" horiz-adv-x="539" 
d="M399 0v61h-2q-16 -30 -60.5 -53t-107.5 -23q-85 0 -129.5 42t-44.5 107t40 103t137 63q31 8 42 11t35.5 10.5t34 13.5t22.5 16t18 21.5t5 25.5q0 38 -29 62.5t-89 24.5q-113 0 -135 -112l-62 14q10 71 61 114.5t133 43.5q191 0 191 -181v-364h-60zM249 247
q-75 -21 -102 -45t-27 -64q0 -93 114 -93q76 0 118 35.5t42 87.5v146h-2q-13 -31 -143 -67zM135 620v55h288v-55h-288z" />
    <glyph glyph-name="Abreve" unicode="&#x102;" horiz-adv-x="620" 
d="M530 0l-53 151h-334l-53 -151h-65l251 700h68l251 -700h-65zM309 621l-147 -418h296l-147 418h-2zM192 870h38q10 -59 83 -59q75 0 83 59h38q0 -55 -33.5 -85t-87.5 -30t-87.5 30t-33.5 85z" />
    <glyph glyph-name="abreve" unicode="&#x103;" horiz-adv-x="539" 
d="M399 0v61h-2q-16 -30 -60.5 -53t-107.5 -23q-85 0 -129.5 42t-44.5 107t40 103t137 63q31 8 42 11t35.5 10.5t34 13.5t22.5 16t18 21.5t5 25.5q0 38 -29 62.5t-89 24.5q-113 0 -135 -112l-62 14q10 71 61 114.5t133 43.5q191 0 191 -181v-364h-60zM249 247
q-75 -21 -102 -45t-27 -64q0 -93 114 -93q76 0 118 35.5t42 87.5v146h-2q-13 -31 -143 -67zM158 700h38q10 -59 83 -59q75 0 83 59h38q0 -55 -33.5 -85t-87.5 -30t-87.5 30t-33.5 85z" />
    <glyph glyph-name="Aogonek" unicode="&#x104;" horiz-adv-x="620" 
d="M530 0l-53 151h-334l-53 -151h-65l251 700h68l251 -700h-65zM309 621l-147 -418h296l-147 418h-2zM634 -120l28 -26q-50 -64 -123 -64q-39 0 -64.5 17.5t-25.5 52.5q0 63 95 140h51q-76 -71 -76 -123q0 -35 42 -35q38 0 73 38z" />
    <glyph glyph-name="aogonek" unicode="&#x105;" horiz-adv-x="539" 
d="M399 0v61h-2q-16 -30 -60.5 -53t-107.5 -23q-85 0 -129.5 42t-44.5 107t40 103t137 63q31 8 42 11t35.5 10.5t34 13.5t22.5 16t18 21.5t5 25.5q0 38 -29 62.5t-89 24.5q-113 0 -135 -112l-62 14q10 71 61 114.5t133 43.5q191 0 191 -181v-364q-76 -71 -76 -123
q0 -35 42 -35q38 0 73 38l28 -26q-50 -64 -123 -64q-39 0 -64.5 17.5t-25.5 52.5q0 63 95 140h-9zM249 247q-75 -21 -102 -45t-27 -64q0 -93 114 -93q76 0 118 35.5t42 87.5v146h-2q-13 -31 -143 -67z" />
    <glyph glyph-name="Cacute" unicode="&#x106;" horiz-adv-x="675" 
d="M354 -15q-59 0 -110 21t-93 63.5t-66.5 116t-24.5 170.5q0 171 86 265t208 94q106 0 177.5 -67.5t86.5 -173.5l-67 -13q-15 84 -63.5 137.5t-133.5 53.5q-97 0 -160.5 -75t-63.5 -221q0 -148 62 -227t162 -79q174 0 197 207l69 -10q-11 -123 -82.5 -192.5t-183.5 -69.5z
M329 765l78 120h88l-107 -120h-59z" />
    <glyph glyph-name="cacute" unicode="&#x107;" horiz-adv-x="559" 
d="M444 199l65 -12q-9 -86 -68.5 -144t-147.5 -58q-107 0 -172.5 73.5t-65.5 206.5q0 131 68 205.5t170 74.5q85 0 145.5 -55t69.5 -141l-64 -10q-10 62 -47.5 104t-102.5 42q-78 0 -126 -58t-48 -162q0 -105 46.5 -162.5t126.5 -57.5q68 0 105 45.5t46 108.5zM272 595
l77 120h88l-106 -120h-59z" />
    <glyph glyph-name="Ccircumflex" unicode="&#x108;" horiz-adv-x="675" 
d="M354 -15q-59 0 -110 21t-93 63.5t-66.5 116t-24.5 170.5q0 171 86 265t208 94q106 0 177.5 -67.5t86.5 -173.5l-67 -13q-15 84 -63.5 137.5t-133.5 53.5q-97 0 -160.5 -75t-63.5 -221q0 -148 62 -227t162 -79q174 0 197 207l69 -10q-11 -123 -82.5 -192.5t-183.5 -69.5z
M236 785l66 85h100l66 -85l-41 -33l-75 94l-75 -94z" />
    <glyph glyph-name="ccircumflex" unicode="&#x109;" horiz-adv-x="559" 
d="M444 199l65 -12q-9 -86 -68.5 -144t-147.5 -58q-107 0 -172.5 73.5t-65.5 206.5q0 131 68 205.5t170 74.5q85 0 145.5 -55t69.5 -141l-64 -10q-10 62 -47.5 104t-102.5 42q-78 0 -126 -58t-48 -162q0 -105 46.5 -162.5t126.5 -57.5q68 0 105 45.5t46 108.5zM180 615
l66 85h100l66 -85l-41 -33l-75 94l-75 -94z" />
    <glyph glyph-name="Cdotaccent" unicode="&#x10a;" horiz-adv-x="675" 
d="M354 -15q-59 0 -110 21t-93 63.5t-66.5 116t-24.5 170.5q0 171 86 265t208 94q106 0 177.5 -67.5t86.5 -173.5l-67 -13q-15 84 -63.5 137.5t-133.5 53.5q-97 0 -160.5 -75t-63.5 -221q0 -148 62 -227t162 -79q174 0 197 207l69 -10q-11 -123 -82.5 -192.5t-183.5 -69.5z
M313 765v88h86v-88h-86z" />
    <glyph glyph-name="cdotaccent" unicode="&#x10b;" horiz-adv-x="559" 
d="M444 199l65 -12q-9 -86 -68.5 -144t-147.5 -58q-107 0 -172.5 73.5t-65.5 206.5q0 131 68 205.5t170 74.5q85 0 145.5 -55t69.5 -141l-64 -10q-10 62 -47.5 104t-102.5 42q-78 0 -126 -58t-48 -162q0 -105 46.5 -162.5t126.5 -57.5q68 0 105 45.5t46 108.5zM253 612v88
h86v-88h-86z" />
    <glyph glyph-name="Ccaron" unicode="&#x10c;" horiz-adv-x="675" 
d="M354 -15q-59 0 -110 21t-93 63.5t-66.5 116t-24.5 170.5q0 171 86 265t208 94q106 0 177.5 -67.5t86.5 -173.5l-67 -13q-15 84 -63.5 137.5t-133.5 53.5q-97 0 -160.5 -75t-63.5 -221q0 -148 62 -227t162 -79q174 0 197 207l69 -10q-11 -123 -82.5 -192.5t-183.5 -69.5z
M309 765l-66 85l41 33l75 -94l75 94l41 -33l-66 -85h-100z" />
    <glyph glyph-name="ccaron" unicode="&#x10d;" horiz-adv-x="559" 
d="M444 199l65 -12q-9 -86 -68.5 -144t-147.5 -58q-107 0 -172.5 73.5t-65.5 206.5q0 131 68 205.5t170 74.5q85 0 145.5 -55t69.5 -141l-64 -10q-10 62 -47.5 104t-102.5 42q-78 0 -126 -58t-48 -162q0 -105 46.5 -162.5t126.5 -57.5q68 0 105 45.5t46 108.5zM246 594
l-66 85l41 33l75 -94l75 94l41 -33l-66 -85h-100z" />
    <glyph glyph-name="Dcaron" unicode="&#x10e;" horiz-adv-x="672" 
d="M165 60h133q249 0 249 291q0 137 -64.5 213t-178.5 76h-139v-580zM100 0v700h214q60 0 113 -21t96 -62t68.5 -109.5t25.5 -156.5q0 -96 -26 -167t-71 -109.5t-97.5 -56.5t-114.5 -18h-208zM249 765l-66 85l41 33l75 -94l75 94l41 -33l-66 -85h-100z" />
    <glyph glyph-name="dcaron" unicode="&#x10f;" horiz-adv-x="603" 
d="M439 162v187q0 51 -39.5 93.5t-104.5 42.5q-85 0 -130 -58.5t-45 -161.5q0 -104 44.5 -162t130.5 -58q61 0 102.5 35t41.5 82zM447 0v51h-2q-25 -28 -67 -47t-93 -19q-105 0 -167.5 76t-62.5 204q0 126 64.5 203t165.5 77q97 0 152 -66h2v251h65v-730h-57zM554 584
l28 146h71l-50 -146h-49z" />
    <glyph glyph-name="Dcroat" unicode="&#x110;" horiz-adv-x="695" 
d="M108 0v338h-68v60h68v302h234q61 0 114.5 -21t96.5 -62.5t67.5 -109.5t24.5 -156q0 -97 -25.5 -167.5t-70.5 -109t-97.5 -56.5t-115.5 -18h-228zM173 60h153q249 0 249 291q0 143 -63.5 216t-179.5 73h-159v-242h203v-60h-203v-278z" />
    <glyph glyph-name="dcroat" unicode="&#x111;" horiz-adv-x="609" 
d="M447 0v51h-2q-25 -28 -67 -47t-93 -19q-105 0 -167.5 76t-62.5 204q0 126 64.5 203t165.5 77q97 0 152 -66h2v176h-150v45h150v30h65v-30h70v-45h-70v-655h-57zM439 162v187q0 51 -39.5 93.5t-104.5 42.5q-85 0 -130 -58.5t-45 -161.5q0 -104 44.5 -162t130.5 -58
q61 0 102.5 35t41.5 82z" />
    <glyph glyph-name="Emacron" unicode="&#x112;" horiz-adv-x="588" 
d="M100 0v700h413v-60h-348v-250h320v-58h-320v-272h348v-60h-413zM170 765v55h288v-55h-288z" />
    <glyph glyph-name="emacron" unicode="&#x113;" horiz-adv-x="588" 
d="M467 156l55 -30q-26 -60 -83 -100.5t-139 -40.5q-107 0 -176 76.5t-69 203.5t67.5 203.5t173.5 76.5q107 0 172 -74t65 -206v-19h-412q0 -81 45.5 -141t131.5 -60q34 0 62 9t44 19.5t31 29.5t19.5 28zM123 301h343q0 32 -8.5 62.5t-27 59t-53.5 45.5t-81 17t-81.5 -19
t-54.5 -48.5t-28 -59.5t-9 -57zM167 620v55h288v-55h-288z" />
    <glyph glyph-name="Ebreve" unicode="&#x114;" horiz-adv-x="588" 
d="M100 0v700h413v-60h-348v-250h320v-58h-320v-272h348v-60h-413zM205 870h38q10 -59 83 -59q75 0 83 59h38q0 -55 -33.5 -85t-87.5 -30t-87.5 30t-33.5 85z" />
    <glyph glyph-name="ebreve" unicode="&#x115;" horiz-adv-x="588" 
d="M467 156l55 -30q-26 -60 -83 -100.5t-139 -40.5q-107 0 -176 76.5t-69 203.5t67.5 203.5t173.5 76.5q107 0 172 -74t65 -206v-19h-412q0 -81 45.5 -141t131.5 -60q34 0 62 9t44 19.5t31 29.5t19.5 28zM123 301h343q0 32 -8.5 62.5t-27 59t-53.5 45.5t-81 17t-81.5 -19
t-54.5 -48.5t-28 -59.5t-9 -57zM186 700h38q10 -59 83 -59q75 0 83 59h38q0 -55 -33.5 -85t-87.5 -30t-87.5 30t-33.5 85z" />
    <glyph glyph-name="Edotaccent" unicode="&#x116;" horiz-adv-x="588" 
d="M100 0v700h413v-60h-348v-250h320v-58h-320v-272h348v-60h-413zM276 765v88h86v-88h-86z" />
    <glyph glyph-name="edotaccent" unicode="&#x117;" horiz-adv-x="588" 
d="M467 156l55 -30q-26 -60 -83 -100.5t-139 -40.5q-107 0 -176 76.5t-69 203.5t67.5 203.5t173.5 76.5q107 0 172 -74t65 -206v-19h-412q0 -81 45.5 -141t131.5 -60q34 0 62 9t44 19.5t31 29.5t19.5 28zM123 301h343q0 32 -8.5 62.5t-27 59t-53.5 45.5t-81 17t-81.5 -19
t-54.5 -48.5t-28 -59.5t-9 -57zM267 612v88h86v-88h-86z" />
    <glyph glyph-name="Eogonek" unicode="&#x118;" horiz-adv-x="588" 
d="M100 0v700h413v-60h-348v-250h320v-58h-320v-272h348v-60h-69q-76 -71 -76 -123q0 -35 42 -35q38 0 73 38l28 -26q-50 -64 -123 -64q-39 0 -64.5 17.5t-25.5 52.5q0 63 95 140h-293z" />
    <glyph glyph-name="eogonek" unicode="&#x119;" horiz-adv-x="588" 
d="M413 -120l28 -26q-50 -64 -123 -64q-39 0 -64.5 17.5t-25.5 52.5q0 59 76 125h-4q-107 0 -176 76.5t-69 203.5t67.5 203.5t173.5 76.5q107 0 172 -74t65 -206v-19h-412q0 -81 45.5 -141t131.5 -60q34 0 62 9t44 19.5t31 29.5t19.5 28l12.5 25l55 -30q-20 -46 -60 -82
t-95 -50q-69 -67 -69 -117q0 -35 42 -35q38 0 73 38zM123 301h343q0 32 -8.5 62.5t-27 59t-53.5 45.5t-81 17t-81.5 -19t-54.5 -48.5t-28 -59.5t-9 -57z" />
    <glyph glyph-name="Ecaron" unicode="&#x11a;" horiz-adv-x="588" 
d="M100 0v700h413v-60h-348v-250h320v-58h-320v-272h348v-60h-413zM269 765l-66 85l41 33l75 -94l75 94l41 -33l-66 -85h-100z" />
    <glyph glyph-name="ecaron" unicode="&#x11b;" horiz-adv-x="588" 
d="M467 156l55 -30q-26 -60 -83 -100.5t-139 -40.5q-107 0 -176 76.5t-69 203.5t67.5 203.5t173.5 76.5q107 0 172 -74t65 -206v-19h-412q0 -81 45.5 -141t131.5 -60q34 0 62 9t44 19.5t31 29.5t19.5 28zM123 301h343q0 32 -8.5 62.5t-27 59t-53.5 45.5t-81 17t-81.5 -19
t-54.5 -48.5t-28 -59.5t-9 -57zM266 594l-66 85l41 33l75 -94l75 94l41 -33l-66 -85h-100z" />
    <glyph glyph-name="Gcircumflex" unicode="&#x11c;" horiz-adv-x="681" 
d="M354 -15q-59 0 -110 21t-93 63.5t-66.5 116t-24.5 170.5q0 171 86 265t208 94q102 0 171 -63.5t88 -164.5l-69 -13q-39 178 -190 178q-97 0 -160.5 -75t-63.5 -221q0 -149 62 -228.5t162 -79.5q95 0 148.5 60t51.5 164h-192v63h259v-59q0 -137 -73.5 -214t-193.5 -77z
M235 780l66 85h100l66 -85l-41 -33l-75 94l-75 -94z" />
    <glyph glyph-name="gcircumflex" unicode="&#x11d;" horiz-adv-x="589" 
d="M95 -92l60 24q35 -112 143 -112q68 0 104.5 41t36.5 111v72h-2q-57 -59 -152 -59q-105 0 -167.5 76t-62.5 204q0 126 64.5 203t165.5 77q97 0 152 -66h2v51h65v-540q0 -113 -53 -171.5t-151 -58.5q-80 0 -132 40.5t-73 107.5zM439 162v187q0 51 -39.5 93.5t-104.5 42.5
q-85 0 -130 -58.5t-45 -161.5q0 -104 44.5 -162t130.5 -58q61 0 102.5 35t41.5 82zM191 615l66 85h100l66 -85l-41 -33l-75 94l-75 -94z" />
    <glyph glyph-name="Gbreve" unicode="&#x11e;" horiz-adv-x="681" 
d="M354 -15q-59 0 -110 21t-93 63.5t-66.5 116t-24.5 170.5q0 171 86 265t208 94q102 0 171 -63.5t88 -164.5l-69 -13q-39 178 -190 178q-97 0 -160.5 -75t-63.5 -221q0 -149 62 -228.5t162 -79.5q95 0 148.5 60t51.5 164h-192v63h259v-59q0 -137 -73.5 -214t-193.5 -77z
M227 870h38q10 -59 83 -59q75 0 83 59h38q0 -55 -33.5 -85t-87.5 -30t-87.5 30t-33.5 85z" />
    <glyph glyph-name="gbreve" unicode="&#x11f;" horiz-adv-x="589" 
d="M95 -92l60 24q35 -112 143 -112q68 0 104.5 41t36.5 111v72h-2q-57 -59 -152 -59q-105 0 -167.5 76t-62.5 204q0 126 64.5 203t165.5 77q97 0 152 -66h2v51h65v-540q0 -113 -53 -171.5t-151 -58.5q-80 0 -132 40.5t-73 107.5zM439 162v187q0 51 -39.5 93.5t-104.5 42.5
q-85 0 -130 -58.5t-45 -161.5q0 -104 44.5 -162t130.5 -58q61 0 102.5 35t41.5 82zM183 700h38q10 -59 83 -59q75 0 83 59h38q0 -55 -33.5 -85t-87.5 -30t-87.5 30t-33.5 85z" />
    <glyph glyph-name="Gdotaccent" unicode="&#x120;" horiz-adv-x="681" 
d="M354 -15q-59 0 -110 21t-93 63.5t-66.5 116t-24.5 170.5q0 171 86 265t208 94q102 0 171 -63.5t88 -164.5l-69 -13q-39 178 -190 178q-97 0 -160.5 -75t-63.5 -221q0 -149 62 -228.5t162 -79.5q95 0 148.5 60t51.5 164h-192v63h259v-59q0 -137 -73.5 -214t-193.5 -77z
M305 765v88h86v-88h-86z" />
    <glyph glyph-name="gdotaccent" unicode="&#x121;" horiz-adv-x="589" 
d="M95 -92l60 24q35 -112 143 -112q68 0 104.5 41t36.5 111v72h-2q-57 -59 -152 -59q-105 0 -167.5 76t-62.5 204q0 126 64.5 203t165.5 77q97 0 152 -66h2v51h65v-540q0 -113 -53 -171.5t-151 -58.5q-80 0 -132 40.5t-73 107.5zM439 162v187q0 51 -39.5 93.5t-104.5 42.5
q-85 0 -130 -58.5t-45 -161.5q0 -104 44.5 -162t130.5 -58q61 0 102.5 35t41.5 82zM261 612v88h86v-88h-86z" />
    <glyph glyph-name="Gcommaaccent" unicode="&#x122;" horiz-adv-x="681" 
d="M354 -15q-59 0 -110 21t-93 63.5t-66.5 116t-24.5 170.5q0 171 86 265t208 94q102 0 171 -63.5t88 -164.5l-69 -13q-39 178 -190 178q-97 0 -160.5 -75t-63.5 -221q0 -149 62 -228.5t162 -79.5q95 0 148.5 60t51.5 164h-192v63h259v-59q0 -137 -73.5 -214t-193.5 -77z
M311 -218v32q28 4 38.5 15t10.5 33h-49v82h95v-67q0 -48 -22 -70t-73 -25z" />
    <glyph glyph-name="gcommaaccent" unicode="&#x123;" horiz-adv-x="589" 
d="M95 -92l60 24q35 -112 143 -112q68 0 104.5 41t36.5 111v72h-2q-57 -59 -152 -59q-105 0 -167.5 76t-62.5 204q0 126 64.5 203t165.5 77q97 0 152 -66h2v51h65v-540q0 -113 -53 -171.5t-151 -58.5q-80 0 -132 40.5t-73 107.5zM439 162v187q0 51 -39.5 93.5t-104.5 42.5
q-85 0 -130 -58.5t-45 -161.5q0 -104 44.5 -162t130.5 -58q61 0 102.5 35t41.5 82zM349 773v-31q-35 -5 -35 -43h39v-86h-88v74q0 79 84 86z" />
    <glyph glyph-name="Hcircumflex" unicode="&#x124;" horiz-adv-x="667" 
d="M100 0v700h65v-307h337v307h65v-700h-65v333h-337v-333h-65zM220 780l66 85h100l66 -85l-41 -33l-75 94l-75 -94z" />
    <glyph glyph-name="hcircumflex" unicode="&#x125;" horiz-adv-x="588" 
d="M90 0v730h65v-257h2q25 32 68 52t92 20q84 0 135 -51t51 -150v-344h-65v324q0 161 -128 161q-68 0 -111.5 -40t-43.5 -112v-333h-65zM208 615l66 85h100l66 -85l-41 -33l-75 94l-75 -94z" />
    <glyph glyph-name="Hbar" unicode="&#x126;" horiz-adv-x="687" 
d="M110 0v516h-50v55h50v129h65v-129h337v129h65v-129h50v-55h-50v-516h-65v333h-337v-333h-65zM175 393h337v123h-337v-123z" />
    <glyph glyph-name="hbar" unicode="&#x127;" horiz-adv-x="581" 
d="M105 0v655h-70v45h70v30h65v-30h150v-45h-150v-176h2q52 66 144 66q83 0 136.5 -54t53.5 -147v-344h-65v324q0 161 -132 161q-65 0 -102 -41.5t-37 -110.5v-333h-65z" />
    <glyph glyph-name="Itilde" unicode="&#x128;" horiz-adv-x="275" 
d="M105 0v700h65v-700h-65zM35 765h-37q19 88 85 88q25 0 59 -18.5t52 -18.5q27 0 35 32h37q-9 -40 -27 -64t-57 -24q-25 0 -59.5 18.5t-52.5 18.5q-27 0 -35 -32z" />
    <glyph glyph-name="itilde" unicode="&#x129;" horiz-adv-x="240" 
d="M90 0v530h60v-530h-60zM38 605h-37q19 88 85 88q25 0 59 -18.5t52 -18.5q27 0 35 32h37q-9 -40 -27 -64t-57 -24q-25 0 -59.5 18.5t-52.5 18.5q-27 0 -35 -32z" />
    <glyph glyph-name="Imacron" unicode="&#x12a;" horiz-adv-x="275" 
d="M105 0v700h65v-700h-65zM-12 765v55h288v-55h-288z" />
    <glyph glyph-name="imacron" unicode="&#x12b;" horiz-adv-x="240" 
d="M90 0v530h60v-530h-60zM-9 620v55h288v-55h-288z" />
    <glyph glyph-name="Ibreve" unicode="&#x12c;" horiz-adv-x="275" 
d="M105 0v700h65v-700h-65zM11 870h38q10 -59 83 -59q75 0 83 59h38q0 -55 -33.5 -85t-87.5 -30t-87.5 30t-33.5 85z" />
    <glyph glyph-name="ibreve" unicode="&#x12d;" horiz-adv-x="240" 
d="M90 0v530h60v-530h-60zM4 700h38q10 -59 83 -59q75 0 83 59h38q0 -55 -33.5 -85t-87.5 -30t-87.5 30t-33.5 85z" />
    <glyph glyph-name="Iogonek" unicode="&#x12e;" horiz-adv-x="275" 
d="M105 0v700h65v-700q-76 -71 -76 -123q0 -35 42 -35q38 0 73 38l28 -26q-50 -64 -123 -64q-39 0 -64.5 17.5t-25.5 52.5q0 63 95 140h-14z" />
    <glyph glyph-name="iogonek" unicode="&#x12f;" horiz-adv-x="261" 
d="M98 0v530h65v-530q-76 -71 -76 -123q0 -35 42 -35q38 0 73 38l28 -26q-50 -64 -123 -64q-39 0 -64.5 17.5t-25.5 52.5q0 63 95 140h-14zM90 617v83h81v-83h-81z" />
    <glyph glyph-name="Idotaccent" unicode="&#x130;" horiz-adv-x="275" 
d="M105 0v700h65v-700h-65zM92 765v88h86v-88h-86z" />
    <glyph glyph-name="dotlessi" unicode="&#x131;" horiz-adv-x="240" 
d="M90 0v530h60v-530h-60z" />
    <glyph glyph-name="IJ" unicode="&#x132;" horiz-adv-x="659" 
d="M105 0v700h65v-700h-65zM236 156l66 17q5 -26 11 -45t17 -39t29.5 -30.5t43.5 -10.5q54 0 75 29.5t21 104.5v518h65v-527q0 -98 -39 -143t-122 -45q-72 0 -113 46t-54 125z" />
    <glyph glyph-name="ij" unicode="&#x133;" horiz-adv-x="509" 
d="M98 0v530h65v-530h-65zM90 617v83h81v-83h-81zM291 -195v65h14q25 0 36.5 11t11.5 49v600h65v-596q0 -73 -26 -101t-76 -28h-25zM343 617v83h81v-83h-81z" />
    <glyph glyph-name="Jcircumflex" unicode="&#x134;" horiz-adv-x="453" 
d="M30 156l66 17q5 -26 11 -45t17 -39t29.5 -30.5t43.5 -10.5q54 0 75 29.5t21 104.5v518h65v-527q0 -98 -39 -143t-122 -45q-72 0 -113 46t-54 125zM207 780l66 85h100l66 -85l-41 -33l-75 94l-75 -94z" />
    <glyph glyph-name="jcircumflex" unicode="&#x135;" horiz-adv-x="269" 
d="M15 615l66 85h100l66 -85l-41 -33l-75 94l-75 -94zM34 -195v60h14q25 0 36.5 11t11.5 49v605h65v-596q0 -73 -26 -101t-76 -28h-25z" />
    <glyph glyph-name="Kcommaaccent" unicode="&#x136;" horiz-adv-x="581" 
d="M90 0v700h65v-356h2l299 356h84l-255 -302l286 -398h-79l-251 349h-2l-84 -99v-250h-65zM254 -218v32q28 4 38.5 15t10.5 33h-49v82h95v-67q0 -48 -22 -70t-73 -25z" />
    <glyph glyph-name="kcommaaccent" unicode="&#x137;" horiz-adv-x="528" 
d="M90 0v730h65v-450h2l234 250h90l-194 -208l221 -322h-78l-191 277h-2l-82 -87v-190h-65zM231 -218v32q28 4 38.5 15t10.5 33h-49v82h95v-67q0 -48 -22 -70t-73 -25z" />
    <glyph glyph-name="kgreenlandic" unicode="&#x138;" horiz-adv-x="528" 
d="M90 0v530h65v-251l236 251h90l-194 -208l221 -322h-78l-192 278l-83 -88v-190h-65z" />
    <glyph glyph-name="Lacute" unicode="&#x139;" horiz-adv-x="509" 
d="M100 0v700h65v-640h309v-60h-374zM99 765l78 120h88l-107 -120h-59z" />
    <glyph glyph-name="lacute" unicode="&#x13a;" horiz-adv-x="245" 
d="M90 0v730h65v-730h-65zM89 765l78 120h88l-107 -120h-59z" />
    <glyph glyph-name="Lcommaaccent" unicode="&#x13b;" horiz-adv-x="509" 
d="M100 0v700h65v-640h309v-60h-374zM246 -218v32q28 4 38.5 15t10.5 33h-49v82h95v-67q0 -48 -22 -70t-73 -25z" />
    <glyph glyph-name="lcommaaccent" unicode="&#x13c;" horiz-adv-x="245" 
d="M90 0v730h65v-730h-65zM75 -218v32q28 4 38.5 15t10.5 33h-49v82h95v-67q0 -48 -22 -70t-73 -25z" />
    <glyph glyph-name="Lcaron" unicode="&#x13d;" horiz-adv-x="509" 
d="M100 0v700h65v-640h309v-60h-374zM320 584l28 146h71l-50 -146h-49z" />
    <glyph glyph-name="lcaron" unicode="&#x13e;" horiz-adv-x="254" 
d="M90 0v730h65v-730h-65zM205 584l28 146h71l-50 -146h-49z" />
    <glyph glyph-name="Ldot" unicode="&#x13f;" horiz-adv-x="509" 
d="M100 0v700h65v-640h309v-60h-374zM284 332v106h106v-106h-106z" />
    <glyph glyph-name="ldot" unicode="&#x140;" horiz-adv-x="324" 
d="M90 0v730h65v-730h-65zM218 332v106h106v-106h-106z" />
    <glyph glyph-name="Lslash" unicode="&#x141;" horiz-adv-x="581" 
d="M122 0v330l-75 -75l-32 33l107 107v305h65v-245l111 111l32 -33l-143 -143v-330h359v-60h-424z" />
    <glyph glyph-name="lslash" unicode="&#x142;" horiz-adv-x="249" 
d="M92 0v397l-75 -75l-32 33l107 107v268h65v-212l75 75l32 -33l-107 -107v-453h-65z" />
    <glyph glyph-name="Nacute" unicode="&#x143;" horiz-adv-x="682" 
d="M100 0v700h89l326 -607h2v607h65v-700h-86l-329 607h-2v-607h-65zM311 765l77 120h88l-106 -120h-59z" />
    <glyph glyph-name="nacute" unicode="&#x144;" horiz-adv-x="592" 
d="M90 0v530h65v-51h2q21 29 64.5 47.5t89.5 18.5q86 0 141 -53t55 -144v-348h-65v324q0 79 -34.5 120t-100.5 41q-67 0 -109.5 -37.5t-42.5 -104.5v-343h-65zM265 595l77 120h88l-106 -120h-59z" />
    <glyph glyph-name="Ncommaaccent" unicode="&#x145;" horiz-adv-x="682" 
d="M100 0v700h89l326 -607h2v607h65v-700h-86l-329 607h-2v-607h-65zM297 -218v32q28 4 38.5 15t10.5 33h-49v82h95v-67q0 -48 -22 -70t-73 -25z" />
    <glyph glyph-name="ncommaaccent" unicode="&#x146;" horiz-adv-x="592" 
d="M90 0v530h65v-51h2q21 29 64.5 47.5t89.5 18.5q86 0 141 -53t55 -144v-348h-65v324q0 79 -34.5 120t-100.5 41q-67 0 -109.5 -37.5t-42.5 -104.5v-343h-65zM251 -218v32q28 4 38.5 15t10.5 33h-49v82h95v-67q0 -48 -22 -70t-73 -25z" />
    <glyph glyph-name="Ncaron" unicode="&#x147;" horiz-adv-x="682" 
d="M100 0v700h89l326 -607h2v607h65v-700h-86l-329 607h-2v-607h-65zM295 765l-66 85l41 33l75 -94l75 94l41 -33l-66 -85h-100z" />
    <glyph glyph-name="ncaron" unicode="&#x148;" horiz-adv-x="592" 
d="M90 0v530h65v-51h2q21 29 64.5 47.5t89.5 18.5q86 0 141 -53t55 -144v-348h-65v324q0 79 -34.5 120t-100.5 41q-67 0 -109.5 -37.5t-42.5 -104.5v-343h-65zM253 594l-66 85l41 33l75 -94l75 94l41 -33l-66 -85h-100z" />
    <glyph glyph-name="Eng" unicode="&#x14a;" horiz-adv-x="685" 
d="M100 0v700h62l356 -574h2v574h65v-768q0 -66 -28.5 -94.5t-88.5 -28.5h-30v64h32q30 0 42 13.5t12 54.5v66l-357 567h-2v-574h-65z" />
    <glyph glyph-name="eng" unicode="&#x14b;" horiz-adv-x="576" 
d="M90 0v530h65v-51h2q49 66 141 66q87 0 140 -55t53 -151v-405q0 -73 -26 -101t-76 -28h-25v60h14q25 0 36.5 11t11.5 49v399q0 76 -34 118.5t-98 42.5q-65 0 -102 -41.5t-37 -110.5v-333h-65z" />
    <glyph glyph-name="Omacron" unicode="&#x14c;" horiz-adv-x="703" 
d="M354 48q98 0 158.5 77.5t60.5 225.5q0 146 -62.5 223.5t-156.5 77.5q-97 0 -160.5 -75t-63.5 -221q0 -149 62 -228.5t162 -79.5zM354 -15q-59 0 -110 21t-93 63.5t-66.5 116t-24.5 170.5q0 171 86 265t208 94q119 0 204 -96t85 -268q0 -97 -24 -170t-65.5 -114.5
t-91.5 -61.5t-108 -20zM217 765v55h288v-55h-288z" />
    <glyph glyph-name="omacron" unicode="&#x14d;" horiz-adv-x="581" 
d="M293 45q72 0 120 58.5t48 161.5q0 104 -47.5 162t-120.5 58q-76 0 -124.5 -57.5t-48.5 -162.5t49.5 -162.5t123.5 -57.5zM293 -15q-104 0 -171 74.5t-67 205.5q0 130 69 205t169 75q98 0 165.5 -75t67.5 -205q0 -132 -65.5 -206t-167.5 -74zM156 620v55h288v-55h-288z
" />
    <glyph glyph-name="Obreve" unicode="&#x14e;" horiz-adv-x="703" 
d="M354 48q98 0 158.5 77.5t60.5 225.5q0 146 -62.5 223.5t-156.5 77.5q-97 0 -160.5 -75t-63.5 -221q0 -149 62 -228.5t162 -79.5zM354 -15q-59 0 -110 21t-93 63.5t-66.5 116t-24.5 170.5q0 171 86 265t208 94q119 0 204 -96t85 -268q0 -97 -24 -170t-65.5 -114.5
t-91.5 -61.5t-108 -20zM240 870h38q10 -59 83 -59q75 0 83 59h38q0 -55 -33.5 -85t-87.5 -30t-87.5 30t-33.5 85z" />
    <glyph glyph-name="obreve" unicode="&#x14f;" horiz-adv-x="581" 
d="M293 45q72 0 120 58.5t48 161.5q0 104 -47.5 162t-120.5 58q-76 0 -124.5 -57.5t-48.5 -162.5t49.5 -162.5t123.5 -57.5zM293 -15q-104 0 -171 74.5t-67 205.5q0 130 69 205t169 75q98 0 165.5 -75t67.5 -205q0 -132 -65.5 -206t-167.5 -74zM179 700h38q10 -59 83 -59
q75 0 83 59h38q0 -55 -33.5 -85t-87.5 -30t-87.5 30t-33.5 85z" />
    <glyph glyph-name="Ohungarumlaut" unicode="&#x150;" horiz-adv-x="703" 
d="M354 48q98 0 158.5 77.5t60.5 225.5q0 146 -62.5 223.5t-156.5 77.5q-97 0 -160.5 -75t-63.5 -221q0 -149 62 -228.5t162 -79.5zM354 -15q-59 0 -110 21t-93 63.5t-66.5 116t-24.5 170.5q0 171 86 265t208 94q119 0 204 -96t85 -268q0 -97 -24 -170t-65.5 -114.5
t-91.5 -61.5t-108 -20zM268 765l75 115h83l-104 -115h-54zM397 765l75 115h83l-104 -115h-54z" />
    <glyph glyph-name="ohungarumlaut" unicode="&#x151;" horiz-adv-x="581" 
d="M293 45q72 0 120 58.5t48 161.5q0 104 -47.5 162t-120.5 58q-76 0 -124.5 -57.5t-48.5 -162.5t49.5 -162.5t123.5 -57.5zM293 -15q-104 0 -171 74.5t-67 205.5q0 130 69 205t169 75q98 0 165.5 -75t67.5 -205q0 -132 -65.5 -206t-167.5 -74zM209 595l75 115h83l-104 -115
h-54zM338 595l75 115h83l-104 -115h-54z" />
    <glyph glyph-name="OE" unicode="&#x152;" horiz-adv-x="1013" 
d="M535 0v50q-71 -65 -176 -65q-59 0 -110.5 21t-95 63.5t-68.5 116t-25 170.5q0 87 25.5 157t68 113.5t95 66t110.5 22.5q104 0 176 -65v50h403v-60h-333v-242h305v-58h-305v-280h333v-60h-403zM535 141v419q-63 92 -176 92q-98 0 -163.5 -75.5t-65.5 -220.5
q0 -148 64 -228t165 -80q114 0 176 93z" />
    <glyph glyph-name="oe" unicode="&#x153;" horiz-adv-x="994" 
d="M878 167l54 -28q-23 -65 -81.5 -109.5t-141.5 -44.5q-70 0 -126.5 33.5t-87.5 94.5q-30 -62 -82.5 -95t-119.5 -33q-104 0 -171 74.5t-67 205.5q0 130 69 205t169 75q63 0 116.5 -33.5t83.5 -95.5q31 62 85 95.5t124 33.5q107 0 172 -74t65 -206v-19h-412q0 -81 47 -141
t133 -60q43 0 75 12t51.5 35.5t27 37t17.5 37.5zM293 45q72 0 120 58.5t48 161.5q0 104 -47.5 162t-120.5 58q-76 0 -124.5 -57.5t-48.5 -162.5t49.5 -162.5t123.5 -57.5zM529 301h343q0 32 -8.5 62.5t-27 59t-53.5 45.5t-81 17t-81.5 -19t-54.5 -48.5t-28 -59.5t-9 -57z
" />
    <glyph glyph-name="Racute" unicode="&#x154;" horiz-adv-x="645" 
d="M100 0v700h264q110 0 170.5 -50t60.5 -153q0 -87 -49 -137t-131 -62l158 -298h-75l-153 295h-180v-295h-65zM165 355h195q75 0 122.5 33t47.5 109q0 143 -172 143h-193v-285zM268 765l78 120h88l-107 -120h-59z" />
    <glyph glyph-name="racute" unicode="&#x155;" horiz-adv-x="345" 
d="M90 0v530h63v-57h2q17 33 47.5 49.5t62.5 16.5q13 0 24.5 -2.5t16.5 -4.5l4 -3l-13 -66q-11 8 -42 8q-44 0 -72 -32t-28 -94v-345h-65zM157 595l77 120h88l-106 -120h-59z" />
    <glyph glyph-name="Rcommaaccent" unicode="&#x156;" horiz-adv-x="645" 
d="M100 0v700h264q110 0 170.5 -50t60.5 -153q0 -87 -49 -137t-131 -62l158 -298h-75l-153 295h-180v-295h-65zM165 355h195q75 0 122.5 33t47.5 109q0 143 -172 143h-193v-285zM274 -218v32q28 4 38.5 15t10.5 33h-49v82h95v-67q0 -48 -22 -70t-73 -25z" />
    <glyph glyph-name="rcommaaccent" unicode="&#x157;" horiz-adv-x="345" 
d="M90 0v530h63v-57h2q17 33 47.5 49.5t62.5 16.5q13 0 24.5 -2.5t16.5 -4.5l4 -3l-13 -66q-11 8 -42 8q-44 0 -72 -32t-28 -94v-345h-65zM83 -218v32q28 4 38.5 15t10.5 33h-49v82h95v-67q0 -48 -22 -70t-73 -25z" />
    <glyph glyph-name="Rcaron" unicode="&#x158;" horiz-adv-x="645" 
d="M100 0v700h264q110 0 170.5 -50t60.5 -153q0 -87 -49 -137t-131 -62l158 -298h-75l-153 295h-180v-295h-65zM165 355h195q75 0 122.5 33t47.5 109q0 143 -172 143h-193v-285zM274 765l-66 85l41 33l75 -94l75 94l41 -33l-66 -85h-100z" />
    <glyph glyph-name="rcaron" unicode="&#x159;" horiz-adv-x="345" 
d="M90 0v530h63v-57h2q17 33 47.5 49.5t62.5 16.5q13 0 24.5 -2.5t16.5 -4.5l4 -3l-13 -66q-11 8 -42 8q-44 0 -72 -32t-28 -94v-345h-65zM142 594l-66 85l41 33l75 -94l75 94l41 -33l-66 -85h-100z" />
    <glyph glyph-name="Sacute" unicode="&#x15a;" horiz-adv-x="620" 
d="M55 244l68 12q16 -109 62.5 -158.5t153.5 -49.5q86 0 128 39.5t42 94.5q0 52 -37.5 84t-160.5 72q-119 38 -170.5 81t-51.5 117q0 75 58.5 127t156.5 52t162 -49.5t76 -144.5l-68 -12q-12 69 -50.5 106t-119.5 37q-71 0 -109.5 -33.5t-38.5 -82.5q0 -44 32.5 -71
t140.5 -63q147 -49 196.5 -93.5t49.5 -124.5q0 -84 -62.5 -141.5t-176.5 -57.5q-250 0 -281 259zM309 765l78 120h88l-107 -120h-59z" />
    <glyph glyph-name="sacute" unicode="&#x15b;" horiz-adv-x="516" 
d="M50 182l65 10q8 -75 45.5 -112t108.5 -37q68 0 101 25.5t33 67.5q0 44 -30.5 67.5t-126.5 49.5q-100 27 -139 60.5t-39 91.5q0 57 48 98.5t131 41.5q85 0 135 -41.5t65 -109.5l-60 -16q-30 110 -140 110q-57 0 -87 -25t-30 -58q0 -36 27 -53.5t121 -44.5
q107 -31 147.5 -67t40.5 -103q0 -63 -48.5 -107.5t-148.5 -44.5q-103 0 -157.5 54.5t-61.5 142.5zM231 595l77 120h88l-106 -120h-59z" />
    <glyph glyph-name="Scircumflex" unicode="&#x15c;" horiz-adv-x="620" 
d="M55 244l68 12q16 -109 62.5 -158.5t153.5 -49.5q86 0 128 39.5t42 94.5q0 52 -37.5 84t-160.5 72q-119 38 -170.5 81t-51.5 117q0 75 58.5 127t156.5 52t162 -49.5t76 -144.5l-68 -12q-12 69 -50.5 106t-119.5 37q-71 0 -109.5 -33.5t-38.5 -82.5q0 -44 32.5 -71
t140.5 -63q147 -49 196.5 -93.5t49.5 -124.5q0 -84 -62.5 -141.5t-176.5 -57.5q-250 0 -281 259zM220 780l66 85h100l66 -85l-41 -33l-75 94l-75 -94z" />
    <glyph glyph-name="scircumflex" unicode="&#x15d;" horiz-adv-x="516" 
d="M50 182l65 10q8 -75 45.5 -112t108.5 -37q68 0 101 25.5t33 67.5q0 44 -30.5 67.5t-126.5 49.5q-100 27 -139 60.5t-39 91.5q0 57 48 98.5t131 41.5q85 0 135 -41.5t65 -109.5l-60 -16q-30 110 -140 110q-57 0 -87 -25t-30 -58q0 -36 27 -53.5t121 -44.5
q107 -31 147.5 -67t40.5 -103q0 -63 -48.5 -107.5t-148.5 -44.5q-103 0 -157.5 54.5t-61.5 142.5zM151 615l66 85h100l66 -85l-41 -33l-75 94l-75 -94z" />
    <glyph glyph-name="Scedilla" unicode="&#x15e;" horiz-adv-x="620" 
d="M246 -174l29 40q37 -29 75 -29q60 0 60 45q0 41 -48 41q-16 0 -33 -4.5t-25 -9.5l-9 -5l-29 16l39 66q-220 16 -250 258l68 12q16 -109 62.5 -158.5t153.5 -49.5q86 0 128 39.5t42 94.5q0 52 -37.5 84t-160.5 72q-119 38 -170.5 81t-51.5 117q0 75 58.5 127t156.5 52
t162 -49.5t76 -144.5l-68 -12q-12 69 -50.5 106t-119.5 37q-71 0 -109.5 -33.5t-38.5 -82.5q0 -44 32.5 -71t140.5 -63q147 -49 196.5 -93.5t49.5 -124.5q0 -82 -60 -139t-169 -60l-27 -43q21 14 58 14q35 0 60.5 -19.5t25.5 -55.5q0 -41 -29 -66.5t-87 -25.5q-55 0 -101 37
z" />
    <glyph glyph-name="scedilla" unicode="&#x15f;" horiz-adv-x="516" 
d="M177 -174l29 40q37 -29 75 -29q60 0 60 45q0 41 -48 41q-16 0 -33 -4.5t-26 -9.5l-8 -5l-29 16l39 67q-87 9 -133.5 62t-52.5 133l65 10q8 -75 45.5 -112t108.5 -37q68 0 101 25.5t33 67.5q0 44 -30.5 67.5t-126.5 49.5q-100 27 -139 60.5t-39 91.5q0 57 48 98.5
t131 41.5q85 0 135 -41.5t65 -109.5l-60 -16q-30 110 -140 110q-57 0 -87 -25t-30 -58q0 -36 27 -53.5t121 -44.5q107 -31 147.5 -67t40.5 -103q0 -62 -46.5 -106t-142.5 -46l-27 -43q21 14 58 14q35 0 60.5 -19.5t25.5 -55.5q0 -41 -29 -66.5t-87 -25.5q-55 0 -101 37z" />
    <glyph glyph-name="Scaron" unicode="&#x160;" horiz-adv-x="620" 
d="M55 244l68 12q16 -109 62.5 -158.5t153.5 -49.5q86 0 128 39.5t42 94.5q0 52 -37.5 84t-160.5 72q-119 38 -170.5 81t-51.5 117q0 75 58.5 127t156.5 52t162 -49.5t76 -144.5l-68 -12q-12 69 -50.5 106t-119.5 37q-71 0 -109.5 -33.5t-38.5 -82.5q0 -44 32.5 -71
t140.5 -63q147 -49 196.5 -93.5t49.5 -124.5q0 -84 -62.5 -141.5t-176.5 -57.5q-250 0 -281 259zM284 765l-66 85l41 33l75 -94l75 94l41 -33l-66 -85h-100z" />
    <glyph glyph-name="scaron" unicode="&#x161;" horiz-adv-x="516" 
d="M50 182l65 10q8 -75 45.5 -112t108.5 -37q68 0 101 25.5t33 67.5q0 44 -30.5 67.5t-126.5 49.5q-100 27 -139 60.5t-39 91.5q0 57 48 98.5t131 41.5q85 0 135 -41.5t65 -109.5l-60 -16q-30 110 -140 110q-57 0 -87 -25t-30 -58q0 -36 27 -53.5t121 -44.5
q107 -31 147.5 -67t40.5 -103q0 -63 -48.5 -107.5t-148.5 -44.5q-103 0 -157.5 54.5t-61.5 142.5zM216 594l-66 85l41 33l75 -94l75 94l41 -33l-66 -85h-100z" />
    <glyph glyph-name="Tcommaaccent" unicode="&#x162;" horiz-adv-x="565" 
d="M250 0v640h-220v60h505v-60h-220v-640h-65zM245 -218v32q28 4 38.5 15t10.5 33h-49v82h95v-67q0 -48 -22 -70t-73 -25z" />
    <glyph glyph-name="tcommaaccent" unicode="&#x163;" horiz-adv-x="354" 
d="M109 143v327h-74v60h76v130h63v-130h130v-60h-130v-318q0 -48 13 -68t51 -20h38v-64h-40q-127 0 -127 143zM136 -218v32q28 4 38.5 15t10.5 33h-49v82h95v-67q0 -48 -22 -70t-73 -25z" />
    <glyph glyph-name="Tcaron" unicode="&#x164;" horiz-adv-x="565" 
d="M250 0v640h-220v60h505v-60h-220v-640h-65zM245 765l-66 85l41 33l75 -94l75 94l41 -33l-66 -85h-100z" />
    <glyph glyph-name="tcaron" unicode="&#x165;" horiz-adv-x="354" 
d="M109 143v327h-74v60h76v130h63v-130h130v-60h-130v-318q0 -48 13 -68t51 -20h38v-64h-40q-127 0 -127 143zM249 584l28 146h71l-50 -146h-49z" />
    <glyph glyph-name="Tbar" unicode="&#x166;" horiz-adv-x="565" 
d="M250 0v338h-130v55h130v247h-220v60h505v-60h-220v-247h130v-55h-130v-338h-65z" />
    <glyph glyph-name="tbar" unicode="&#x167;" horiz-adv-x="354" 
d="M109 143v110h-74v55h74v162h-74v60h76v130h63v-130h130v-60h-130v-162h130v-55h-130v-101q0 -48 13 -68t51 -20h38v-64h-40q-127 0 -127 143z" />
    <glyph glyph-name="Utilde" unicode="&#x168;" horiz-adv-x="657" 
d="M85 228v472h65v-466q0 -186 178 -186q88 0 133.5 46.5t45.5 137.5v468h65v-472q0 -120 -63 -181.5t-181 -61.5t-180.5 61.5t-62.5 181.5zM241 765h-37q19 88 85 88q25 0 59 -18.5t52 -18.5q27 0 35 32h37q-9 -40 -27 -64t-57 -24q-25 0 -59.5 18.5t-52.5 18.5
q-27 0 -35 -32z" />
    <glyph glyph-name="utilde" unicode="&#x169;" horiz-adv-x="575" 
d="M85 184v346h65v-334q0 -82 32 -116.5t107 -34.5q64 0 97.5 41t33.5 111v333h65v-530h-65v51h-2l-5 -7.5t-16 -15.5t-28 -20t-40.5 -16t-54.5 -7q-86 0 -137.5 48.5t-51.5 150.5zM194 605h-37q19 88 85 88q25 0 59 -18.5t52 -18.5q27 0 35 32h37q-9 -40 -27 -64t-57 -24
q-25 0 -59.5 18.5t-52.5 18.5q-27 0 -35 -32z" />
    <glyph glyph-name="Umacron" unicode="&#x16a;" horiz-adv-x="657" 
d="M85 228v472h65v-466q0 -186 178 -186q88 0 133.5 46.5t45.5 137.5v468h65v-472q0 -120 -63 -181.5t-181 -61.5t-180.5 61.5t-62.5 181.5zM194 765v55h288v-55h-288z" />
    <glyph glyph-name="umacron" unicode="&#x16b;" horiz-adv-x="575" 
d="M85 184v346h65v-334q0 -82 32 -116.5t107 -34.5q64 0 97.5 41t33.5 111v333h65v-530h-65v51h-2l-5 -7.5t-16 -15.5t-28 -20t-40.5 -16t-54.5 -7q-86 0 -137.5 48.5t-51.5 150.5zM149 620v55h288v-55h-288z" />
    <glyph glyph-name="Ubreve" unicode="&#x16c;" horiz-adv-x="657" 
d="M85 228v472h65v-466q0 -186 178 -186q88 0 133.5 46.5t45.5 137.5v468h65v-472q0 -120 -63 -181.5t-181 -61.5t-180.5 61.5t-62.5 181.5zM217 870h38q10 -59 83 -59q75 0 83 59h38q0 -55 -33.5 -85t-87.5 -30t-87.5 30t-33.5 85z" />
    <glyph glyph-name="ubreve" unicode="&#x16d;" horiz-adv-x="575" 
d="M85 184v346h65v-334q0 -82 32 -116.5t107 -34.5q64 0 97.5 41t33.5 111v333h65v-530h-65v51h-2l-5 -7.5t-16 -15.5t-28 -20t-40.5 -16t-54.5 -7q-86 0 -137.5 48.5t-51.5 150.5zM172 700h38q10 -59 83 -59q75 0 83 59h38q0 -55 -33.5 -85t-87.5 -30t-87.5 30t-33.5 85z
" />
    <glyph glyph-name="Uring" unicode="&#x16e;" horiz-adv-x="657" 
d="M85 228v472h65v-466q0 -186 178 -186q88 0 133.5 46.5t45.5 137.5v468h65v-472q0 -120 -63 -181.5t-181 -61.5t-180.5 61.5t-62.5 181.5zM345 687q-42 0 -69 28.5t-27 71.5q0 42 27.5 71t68.5 29q42 0 69 -28.5t27 -71.5q0 -44 -26.5 -72t-69.5 -28zM345 727q20 0 35 16
t15 45t-14.5 44t-35.5 15q-20 0 -34.5 -15t-14.5 -44t14.5 -45t34.5 -16z" />
    <glyph glyph-name="uring" unicode="&#x16f;" horiz-adv-x="575" 
d="M85 184v346h65v-334q0 -82 32 -116.5t107 -34.5q64 0 97.5 41t33.5 111v333h65v-530h-65v51h-2l-5 -7.5t-16 -15.5t-28 -20t-40.5 -16t-54.5 -7q-86 0 -137.5 48.5t-51.5 150.5zM291 523q-42 0 -69 28.5t-27 71.5q0 42 27.5 71t68.5 29q42 0 69 -28.5t27 -71.5
q0 -44 -26.5 -72t-69.5 -28zM291 563q20 0 35 16t15 45t-14.5 44t-35.5 15q-20 0 -34.5 -15t-14.5 -44t14.5 -45t34.5 -16z" />
    <glyph glyph-name="Uhungarumlaut" unicode="&#x170;" horiz-adv-x="657" 
d="M85 228v472h65v-466q0 -186 178 -186q88 0 133.5 46.5t45.5 137.5v468h65v-472q0 -120 -63 -181.5t-181 -61.5t-180.5 61.5t-62.5 181.5zM247 765l75 115h83l-104 -115h-54zM376 765l75 115h83l-104 -115h-54z" />
    <glyph glyph-name="uhungarumlaut" unicode="&#x171;" horiz-adv-x="548" 
d="M166 611l75 115h83l-104 -115h-54zM295 611l75 115h83l-104 -115h-54zM55 184v346h65v-334q0 -82 32 -116.5t107 -34.5q64 0 97.5 41t33.5 111v333h65v-530h-65v51h-2l-5 -7.5t-16 -15.5t-28 -20t-40.5 -16t-54.5 -7q-86 0 -137.5 48.5t-51.5 150.5z" />
    <glyph glyph-name="Uogonek" unicode="&#x172;" horiz-adv-x="657" 
d="M433 -120l28 -26q-50 -64 -123 -64q-39 0 -64.5 17.5t-25.5 52.5q0 59 76 125q-116 1 -177.5 62t-61.5 181v472h65v-466q0 -186 178 -186q88 0 133.5 46.5t45.5 137.5v468h65v-472q0 -105 -49 -165.5t-141 -73.5q-64 -64 -64 -112q0 -35 42 -35q38 0 73 38z" />
    <glyph glyph-name="uogonek" unicode="&#x173;" horiz-adv-x="575" 
d="M524 -120l28 -26q-50 -64 -123 -64q-39 0 -64.5 17.5t-25.5 52.5q0 63 95 140h-14v51h-2l-5 -7.5t-16 -15.5t-28 -20t-40.5 -16t-54.5 -7q-86 0 -137.5 48.5t-51.5 150.5v346h65v-334q0 -82 32 -116.5t107 -34.5q64 0 97.5 41t33.5 111v333h65v-530q-76 -71 -76 -123
q0 -35 42 -35q38 0 73 38z" />
    <glyph glyph-name="Wcircumflex" unicode="&#x174;" horiz-adv-x="908" 
d="M175 0l-125 700h67l112 -620h2l177 620h92l177 -620h2l112 620h67l-131 -700h-85l-187 630h-3l-186 -630h-91zM346 780l66 85h100l66 -85l-41 -33l-75 94l-75 -94z" />
    <glyph glyph-name="wcircumflex" unicode="&#x175;" horiz-adv-x="781" 
d="M167 0l-117 530h65l90 -414h2l147 414h63l148 -414h2l99 414h65l-127 -530h-59l-159 451h-2l-156 -451h-61zM272 615l66 85h100l66 -85l-41 -33l-75 94l-75 -94z" />
    <glyph glyph-name="Ycircumflex" unicode="&#x176;" horiz-adv-x="564" 
d="M251 0v295l-231 405h73l188 -343h3l187 343h73l-231 -405v-295h-62zM179 780l66 85h100l66 -85l-41 -33l-75 94l-75 -94z" />
    <glyph glyph-name="ycircumflex" unicode="&#x177;" horiz-adv-x="498" 
d="M109 -225l108 272l-192 483h69l154 -407h2l154 407h69l-300 -755h-64zM143 615l66 85h100l66 -85l-41 -33l-75 94l-75 -94z" />
    <glyph glyph-name="Ydieresis" unicode="&#x178;" horiz-adv-x="564" 
d="M251 0v295l-231 405h73l188 -343h3l187 343h73l-231 -405v-295h-62zM347 765v83h81v-83h-81zM157 765v83h81v-83h-81z" />
    <glyph glyph-name="Zacute" unicode="&#x179;" horiz-adv-x="617" 
d="M60 0v48l416 594v2h-382v56h463v-48l-416 -590v-2h406v-60h-487zM279 765l78 120h88l-107 -120h-59z" />
    <glyph glyph-name="zacute" unicode="&#x17a;" horiz-adv-x="555" 
d="M60 0v49l349 419v2h-328v60h414v-47l-347 -421v-2h346v-60h-434zM239 595l77 120h88l-106 -120h-59z" />
    <glyph glyph-name="Zdotaccent" unicode="&#x17b;" horiz-adv-x="617" 
d="M60 0v48l416 594v2h-382v56h463v-48l-416 -590v-2h406v-60h-487zM243 765v88h86v-88h-86z" />
    <glyph glyph-name="zdotaccent" unicode="&#x17c;" horiz-adv-x="555" 
d="M60 0v49l349 419v2h-328v60h414v-47l-347 -421v-2h346v-60h-434zM232 612v88h86v-88h-86z" />
    <glyph glyph-name="Zcaron" unicode="&#x17d;" horiz-adv-x="617" 
d="M60 0v48l416 594v2h-382v56h463v-48l-416 -590v-2h406v-60h-487zM271 765l-66 85l41 33l75 -94l75 94l41 -33l-66 -85h-100z" />
    <glyph glyph-name="zcaron" unicode="&#x17e;" horiz-adv-x="555" 
d="M60 0v49l349 419v2h-328v60h414v-47l-347 -421v-2h346v-60h-434zM238 594l-66 85l41 33l75 -94l75 94l41 -33l-66 -85h-100z" />
    <glyph glyph-name="longs" unicode="&#x17f;" horiz-adv-x="290" 
d="M93 0v470h-58v60h58v52q0 66 28 92t80 26h69v-60h-58q-33 0 -43.5 -12.5t-10.5 -55.5v-572h-65z" />
    <glyph glyph-name="florin" unicode="&#x192;" horiz-adv-x="492" 
d="M80 -173l102 585h-98l9 53h98l26 136q28 144 135 144q67 0 110 -57l-45 -43q-31 40 -62 40t-49 -20.5t-29 -77.5l-22 -122h145l-9 -53h-145l-102 -585h-64z" />
    <glyph glyph-name="Aringacute" unicode="&#x1fa;" horiz-adv-x="620" 
d="M530 0l-53 151h-334l-53 -151h-65l251 700q-27 11 -43 36t-16 57q0 38 24 66.5t61 32.5l52 81h88l-82 -92q49 -28 49 -88q0 -35 -17.5 -60.5t-46.5 -34.5l250 -698h-65zM309 621l-147 -418h296l-147 418h-2zM313 733q20 0 35 16t15 45t-14.5 44t-35.5 15q-20 0 -34.5 -15
t-14.5 -44t14.5 -45t34.5 -16z" />
    <glyph glyph-name="aringacute" unicode="&#x1fb;" horiz-adv-x="539" 
d="M399 0v61h-2q-16 -30 -60.5 -53t-107.5 -23q-85 0 -129.5 42t-44.5 107t40 103t137 63q31 8 42 11t35.5 10.5t34 13.5t22.5 16t18 21.5t5 25.5q0 38 -29 62.5t-89 24.5q-113 0 -135 -112l-62 14q8 59 45.5 100t98.5 53q-40 29 -40 83q0 40 25.5 68.5t63.5 31.5l56 86h88
l-88 -99q47 -28 47 -87q0 -56 -41 -84q130 -28 130 -175v-364h-60zM249 247q-75 -21 -102 -45t-27 -64q0 -93 114 -93q76 0 118 35.5t42 87.5v146h-2q-13 -31 -143 -67zM274 563q20 0 35 16t15 45t-14.5 44t-35.5 15q-20 0 -34.5 -15t-14.5 -44t14.5 -45t34.5 -16z" />
    <glyph glyph-name="AEacute" unicode="&#x1fc;" horiz-adv-x="861" 
d="M5 0l263 700h498v-60h-318v-250h290v-58h-290v-272h318v-60h-383v158h-253l-58 -158h-67zM149 214h234v426h-76zM349 765l78 120h88l-107 -120h-59z" />
    <glyph glyph-name="aeacute" unicode="&#x1fd;" horiz-adv-x="927" 
d="M256 595l77 120h88l-106 -120h-59zM808 168l57 -29q-23 -65 -81.5 -109.5t-141.5 -44.5q-81 0 -135 39.5t-74 79.5h-2q-41 -119 -202 -119q-85 0 -129.5 42t-44.5 107q0 64 39.5 101t138.5 64q98 27 125 45q31 21 31 54q0 38 -29 62.5t-89 24.5q-113 0 -135 -112l-62 14
q10 71 61 114.5t133 43.5q137 0 177 -98q68 98 190 98q107 0 172 -74t65 -206v-19h-412q0 -81 47 -141t133 -60q42 0 73 12t50 35.5t27 37.5t18 38zM462 301h343q0 32 -8.5 62.5t-27 59t-53.5 45.5t-81 17t-81.5 -19t-54.5 -48.5t-28 -59.5t-9 -57zM249 247
q-75 -21 -102.5 -45t-27.5 -64q0 -93 115 -93q76 0 118 35.5t42 87.5v146h-2q-13 -31 -143 -67z" />
    <glyph glyph-name="Oslashacute" unicode="&#x1fe;" horiz-adv-x="703" 
d="M311 765l77 120h88l-106 -120h-59zM109 5l31 55q-100 97 -100 296q0 171 86 265t208 94q83 0 153 -50l29 50l36 -21l-32 -56q103 -103 103 -287q0 -97 -24 -170t-65.5 -114.5t-91.5 -61.5t-108 -20q-90 0 -161 47l-27 -47zM486 580l-279 -489q52 -43 127 -43
q98 0 158.5 77.5t60.5 225.5q0 147 -67 229zM176 122l280 488q-54 42 -122 42q-97 0 -160.5 -75t-63.5 -221q0 -150 66 -234z" />
    <glyph glyph-name="oslashacute" unicode="&#x1ff;" horiz-adv-x="581" 
d="M261 595l77 120h88l-106 -120h-59zM50 13l44 56q-59 75 -59 196q0 130 69 205t169 75q85 0 147 -56l40 51l30 -24l-44 -56q60 -76 60 -195q0 -132 -65.5 -206t-167.5 -74q-91 0 -153 56l-40 -51zM406 408l-247 -316q45 -47 114 -47q72 0 120 58.5t48 161.5q0 86 -35 143z
M135 122l247 318q-45 45 -109 45q-76 0 -124.5 -57.5t-48.5 -162.5q0 -86 35 -143z" />
    <glyph glyph-name="Scommaaccent" unicode="&#x218;" horiz-adv-x="620" 
d="M55 244l68 12q16 -109 62.5 -158.5t153.5 -49.5q86 0 128 39.5t42 94.5q0 52 -37.5 84t-160.5 72q-119 38 -170.5 81t-51.5 117q0 75 58.5 127t156.5 52t162 -49.5t76 -144.5l-68 -12q-12 69 -50.5 106t-119.5 37q-71 0 -109.5 -33.5t-38.5 -82.5q0 -44 32.5 -71
t140.5 -63q147 -49 196.5 -93.5t49.5 -124.5q0 -84 -62.5 -141.5t-176.5 -57.5q-250 0 -281 259zM295 -218v32q28 4 38.5 15t10.5 33h-49v82h95v-67q0 -48 -22 -70t-73 -25z" />
    <glyph glyph-name="scommaaccent" unicode="&#x219;" horiz-adv-x="516" 
d="M50 182l65 10q8 -75 45.5 -112t108.5 -37q68 0 101 25.5t33 67.5q0 44 -30.5 67.5t-126.5 49.5q-100 27 -139 60.5t-39 91.5q0 57 48 98.5t131 41.5q85 0 135 -41.5t65 -109.5l-60 -16q-30 110 -140 110q-57 0 -87 -25t-30 -58q0 -36 27 -53.5t121 -44.5
q107 -31 147.5 -67t40.5 -103q0 -63 -48.5 -107.5t-148.5 -44.5q-103 0 -157.5 54.5t-61.5 142.5zM229 -218v32q28 4 38.5 15t10.5 33h-49v82h95v-67q0 -48 -22 -70t-73 -25z" />
    <glyph glyph-name="dotlessj" unicode="&#x237;" horiz-adv-x="242" 
d="M30 -195v60h14q25 0 36.5 11t11.5 49v605h65v-596q0 -73 -26 -101t-76 -28h-25z" />
    <glyph glyph-name="circumflex" unicode="&#x2c6;" horiz-adv-x="312" 
d="M40 615l66 85h100l66 -85l-41 -33l-75 94l-75 -94z" />
    <glyph glyph-name="caron" unicode="&#x2c7;" horiz-adv-x="312" 
d="M106 594l-66 85l41 33l75 -94l75 94l41 -33l-66 -85h-100z" />
    <glyph glyph-name="breve" unicode="&#x2d8;" horiz-adv-x="342" 
d="M50 700h38q10 -59 83 -59q75 0 83 59h38q0 -55 -33.5 -85t-87.5 -30t-87.5 30t-33.5 85z" />
    <glyph glyph-name="dotaccent" unicode="&#x2d9;" horiz-adv-x="266" 
d="M90 612v88h86v-88h-86z" />
    <glyph glyph-name="ring" unicode="&#x2da;" horiz-adv-x="312" 
d="M156 523q-42 0 -69 28.5t-27 71.5q0 42 27.5 71t68.5 29q42 0 69 -28.5t27 -71.5q0 -44 -26.5 -72t-69.5 -28zM156 563q20 0 35 16t15 45t-14.5 44t-35.5 15q-20 0 -34.5 -15t-14.5 -44t14.5 -45t34.5 -16z" />
    <glyph glyph-name="ogonek" unicode="&#x2db;" horiz-adv-x="293" 
d="M225 -120l28 -26q-50 -64 -123 -64q-39 0 -64.5 17.5t-25.5 52.5q0 63 95 140h51q-76 -71 -76 -123q0 -35 42 -35q38 0 73 38z" />
    <glyph glyph-name="tilde" unicode="&#x2dc;" horiz-adv-x="388" 
d="M97 605h-37q19 88 85 88q25 0 59 -18.5t52 -18.5q27 0 35 32h37q-9 -40 -27 -64t-57 -24q-25 0 -59.5 18.5t-52.5 18.5q-27 0 -35 -32z" />
    <glyph glyph-name="hungarumlaut" unicode="&#x2dd;" horiz-adv-x="467" 
d="M90 595l75 115h83l-104 -115h-54zM219 595l75 115h83l-104 -115h-54z" />
    <glyph glyph-name="uni0312" unicode="&#x312;" horiz-adv-x="288" 
d="M184 773v-31q-35 -5 -35 -43h39v-86h-88v74q0 79 84 86z" />
    <glyph glyph-name="pi" unicode="&#x3c0;" horiz-adv-x="744" 
d="M173 0h-71q4 13 10.5 35.5t23 93.5t29 142t23 171t10.5 190h-108v68h574v-68h-80v-483q0 -91 13 -149h-68q-17 30 -17 143v489h-243q0 -143 -24 -301t-48 -245z" />
    <glyph glyph-name="Wgrave" unicode="&#x1e80;" horiz-adv-x="908" 
d="M175 0l-125 700h67l112 -620h2l177 620h92l177 -620h2l112 620h67l-131 -700h-85l-187 630h-3l-186 -630h-91zM432 765l-107 120h88l78 -120h-59z" />
    <glyph glyph-name="wgrave" unicode="&#x1e81;" horiz-adv-x="781" 
d="M167 0l-117 530h65l90 -414h2l147 414h63l148 -414h2l99 414h65l-127 -530h-59l-159 451h-2l-156 -451h-61zM350 595l-107 120h88l78 -120h-59z" />
    <glyph glyph-name="Wacute" unicode="&#x1e82;" horiz-adv-x="908" 
d="M175 0l-125 700h67l112 -620h2l177 620h92l177 -620h2l112 620h67l-131 -700h-85l-187 630h-3l-186 -630h-91zM425 765l78 120h88l-107 -120h-59z" />
    <glyph glyph-name="wacute" unicode="&#x1e83;" horiz-adv-x="781" 
d="M167 0l-117 530h65l90 -414h2l147 414h63l148 -414h2l99 414h65l-127 -530h-59l-159 451h-2l-156 -451h-61zM363 595l77 120h88l-106 -120h-59z" />
    <glyph glyph-name="Wdieresis" unicode="&#x1e84;" horiz-adv-x="908" 
d="M175 0l-125 700h67l112 -620h2l177 620h92l177 -620h2l112 620h67l-131 -700h-85l-187 630h-3l-186 -630h-91zM514 765v83h81v-83h-81zM324 765v83h81v-83h-81z" />
    <glyph glyph-name="wdieresis" unicode="&#x1e85;" horiz-adv-x="781" 
d="M167 0l-117 530h65l90 -414h2l147 414h63l148 -414h2l99 414h65l-127 -530h-59l-159 451h-2l-156 -451h-61zM249 617v83h81v-83h-81zM439 617v83h81v-83h-81z" />
    <glyph glyph-name="Ygrave" unicode="&#x1ef2;" horiz-adv-x="564" 
d="M251 0v295l-231 405h73l188 -343h3l187 343h73l-231 -405v-295h-62zM272 765l-107 120h88l78 -120h-59z" />
    <glyph glyph-name="ygrave" unicode="&#x1ef3;" horiz-adv-x="498" 
d="M109 -225l108 272l-192 483h69l154 -407h2l154 407h69l-300 -755h-64zM225 595l-107 120h88l78 -120h-59z" />
    <glyph glyph-name="endash" unicode="&#x2013;" horiz-adv-x="619" 
d="M60 318v60h499v-60h-499z" />
    <glyph glyph-name="emdash" unicode="&#x2014;" horiz-adv-x="1009" 
d="M110 318v60h789v-60h-789z" />
    <glyph glyph-name="quoteleft" unicode="&#x2018;" horiz-adv-x="306" 
d="M166 535v-38q-106 8 -106 112v91h106v-106h-47q0 -51 47 -59z" />
    <glyph glyph-name="quoteright" unicode="&#x2019;" horiz-adv-x="306" 
d="M100 497v38q47 8 47 59h-47v106h106v-91q0 -104 -106 -112z" />
    <glyph glyph-name="quotesinglbase" unicode="&#x201a;" horiz-adv-x="306" 
d="M80 -97v38q47 8 47 59h-47v106h106v-91q0 -104 -106 -112z" />
    <glyph glyph-name="quotedblleft" unicode="&#x201c;" horiz-adv-x="476" 
d="M166 538v-38q-106 8 -106 112v91h106v-106h-47q0 -51 47 -59zM336 538v-38q-106 8 -106 112v91h106v-106h-47q0 -51 47 -59z" />
    <glyph glyph-name="quotedblright" unicode="&#x201d;" horiz-adv-x="476" 
d="M80 500v38q47 8 47 59h-47v106h106v-91q0 -104 -106 -112zM250 500v38q47 8 47 59h-47v106h106v-91q0 -104 -106 -112z" />
    <glyph glyph-name="quotedblbase" unicode="&#x201e;" horiz-adv-x="476" 
d="M100 -97v38q47 8 47 59h-47v106h106v-91q0 -104 -106 -112zM270 -97v38q47 8 47 59h-47v106h106v-91q0 -104 -106 -112z" />
    <glyph glyph-name="dagger" unicode="&#x2020;" horiz-adv-x="623" 
d="M279 -225v666h-219v60h219v229h65v-229h219v-60h-219v-666h-65z" />
    <glyph glyph-name="daggerdbl" unicode="&#x2021;" horiz-adv-x="623" 
d="M279 -225v225h-219v55h219v391h-219v55h219v229h65v-229h219v-55h-219v-391h219v-55h-219v-225h-65z" />
    <glyph glyph-name="bullet" unicode="&#x2022;" horiz-adv-x="291" 
d="M145 287q-36 0 -58 23t-22 59t22 59t58 23t58.5 -23t22.5 -59t-22.5 -59t-58.5 -23z" />
    <glyph glyph-name="ellipsis" unicode="&#x2026;" horiz-adv-x="773" 
d="M100 0v106h106v-106h-106zM337 0v106h106v-106h-106zM567 0v106h106v-106h-106z" />
    <glyph glyph-name="perthousand" unicode="&#x2030;" horiz-adv-x="1371" 
d="M1125 42q51 0 78.5 42t27.5 113t-28.5 106.5t-77.5 35.5t-77 -36t-28 -106q0 -72 27 -113.5t78 -41.5zM1125 -12q-79 0 -122 56.5t-43 152.5q0 93 49.5 144.5t115.5 51.5q67 0 116.5 -51.5t49.5 -144.5q0 -95 -43.5 -152t-122.5 -57zM225 361q51 0 78.5 42t27.5 113
t-28.5 106.5t-77.5 35.5t-77 -36t-28 -106q0 -72 27 -113.5t78 -41.5zM225 307q-79 0 -122 56.5t-43 152.5q0 93 49.5 144.5t115.5 51.5q67 0 116.5 -51.5t49.5 -144.5q0 -95 -43.5 -152t-122.5 -57zM701 42q51 0 78.5 42t27.5 113t-28.5 106.5t-77.5 35.5t-77 -36t-28 -106
q0 -72 27 -113.5t78 -41.5zM701 -12q-79 0 -122 56.5t-43 152.5q0 93 49.5 144.5t115.5 51.5q67 0 116.5 -51.5t49.5 -144.5q0 -95 -43.5 -152t-122.5 -57zM183 -40l489 815l44 -28l-488 -814z" />
    <glyph glyph-name="guilsinglleft" unicode="&#x2039;" horiz-adv-x="369" 
d="M207 100l-107 181l108 186h71l-109 -186l108 -181h-71z" />
    <glyph glyph-name="guilsinglright" unicode="&#x203a;" horiz-adv-x="369" 
d="M249 281l-107 -181h-71l108 181l-109 186h71z" />
    <glyph glyph-name="fraction" unicode="&#x2044;" horiz-adv-x="333" 
d="M-100 -40l489 815l44 -28l-488 -814z" />
    <glyph glyph-name="zerosuperior" unicode="&#x2070;" horiz-adv-x="406" 
d="M203 468q-73 0 -115.5 57t-42.5 167q0 104 43.5 158.5t114.5 54.5t114.5 -54.5t43.5 -158.5q0 -110 -42.5 -167t-115.5 -57zM203 522q97 0 97 171q0 159 -97 159q-96 0 -96 -159q0 -171 96 -171z" />
    <glyph glyph-name="foursuperior" unicode="&#x2074;" horiz-adv-x="386" 
d="M35 579v54l162 267h85v-267h54v-54h-54v-105h-57v105h-190zM89 633h136v219h-2z" />
    <glyph glyph-name="fivesuperior" unicode="&#x2075;" horiz-adv-x="397" 
d="M45 584l55 23q9 -39 35 -62t66 -23q42 0 68 25.5t26 71.5q0 45 -26 70t-66 25q-59 0 -94 -50l-49 22l38 214h210v-54h-165l-23 -125h2q31 39 95 39q56 0 95.5 -39.5t39.5 -102.5q0 -69 -43 -109.5t-108 -40.5q-61 0 -100.5 31.5t-55.5 84.5z" />
    <glyph glyph-name="sixsuperior" unicode="&#x2076;" horiz-adv-x="406" 
d="M215 523q42 0 65.5 25.5t23.5 66.5q0 42 -24 67t-67 25q-41 0 -67 -26t-26 -61q0 -44 26.5 -70.5t68.5 -26.5zM104 692h2q8 21 39 42t80 21q55 0 95.5 -38t40.5 -102q0 -68 -41.5 -107.5t-104.5 -39.5q-73 0 -121.5 53t-48.5 160q0 97 46.5 160.5t120.5 63.5
q56 0 89 -30.5t42 -76.5l-53 -15q-19 70 -81 70q-45 0 -75 -43t-30 -118z" />
    <glyph glyph-name="sevensuperior" unicode="&#x2077;" horiz-adv-x="322" 
d="M34 473l200 372v1h-219v54h277v-65l-190 -362h-68z" />
    <glyph glyph-name="eightsuperior" unicode="&#x2078;" horiz-adv-x="363" 
d="M111 790q0 -27 19.5 -46t51.5 -19q31 0 50.5 19t19.5 46q0 26 -18.5 45.5t-51.5 19.5t-52 -19.5t-19 -45.5zM111 705v2q-56 23 -56 88q0 45 35 77.5t92 32.5q56 0 92 -32.5t36 -77.5q0 -63 -56 -88v-2q33 -12 53.5 -41t20.5 -68q0 -60 -40.5 -94t-105.5 -34t-106 34
t-41 94q0 39 21 68.5t55 40.5zM92 600q0 -33 23.5 -55t66.5 -22q42 0 65.5 22t23.5 55q0 35 -24 58t-65 23t-65.5 -23t-24.5 -58z" />
    <glyph glyph-name="ninesuperior" unicode="&#x2079;" horiz-adv-x="394" 
d="M56 573l53 18q16 -70 86 -70q94 0 94 159h-2q-4 -19 -32.5 -40t-75.5 -21q-57 0 -98 39t-41 103q0 66 41 105t102 39q71 0 116 -55t45 -165q0 -112 -40.5 -164.5t-110.5 -52.5q-57 0 -91 29.5t-46 75.5zM186 670q41 0 65 23.5t24 64.5q0 40 -25 67t-67 27
q-39 0 -63 -24.5t-24 -66.5t24 -66.5t66 -24.5z" />
    <glyph glyph-name="plussuperior" unicode="&#x207a;" horiz-adv-x="453" 
d="M201 515v162h-141v47h141v143h51v-143h141v-47h-141v-162h-51z" />
    <glyph glyph-name="minussuperior" unicode="&#x207b;" horiz-adv-x="423" 
d="M363 677h-303v47h303v-47z" />
    <glyph glyph-name="zeroinferior" unicode="&#x2080;" horiz-adv-x="406" 
d="M203 -205q-73 0 -115.5 57t-42.5 167q0 104 43.5 158.5t114.5 54.5t114.5 -54.5t43.5 -158.5q0 -110 -42.5 -167t-115.5 -57zM203 -151q97 0 97 171q0 159 -97 159q-96 0 -96 -159q0 -171 96 -171z" />
    <glyph glyph-name="oneinferior" unicode="&#x2081;" horiz-adv-x="269" 
d="M127 -200v358l-92 -57v65l98 61h51v-427h-57z" />
    <glyph glyph-name="twoinferior" unicode="&#x2082;" horiz-adv-x="367" 
d="M43 -200v47q0 54 26 91q3 4 6.5 7.5t6.5 7t8 7t8 6t9 6.5t9.5 6t11 6t10.5 5.5t12 6.5t12 7q71 39 86 54q21 22 21 52q0 28 -22 49.5t-61 21.5q-81 0 -89 -96l-57 7q4 67 43.5 104t104.5 37q62 0 99.5 -35t37.5 -91q0 -27 -9.5 -48.5t-28 -38t-35 -27t-42.5 -23.5
q-33 -18 -45.5 -25t-25.5 -16.5t-20 -19.5q-11 -16 -11 -47h219v-61h-284z" />
    <glyph glyph-name="threeinferior" unicode="&#x2083;" horiz-adv-x="360" 
d="M25 -58l58 12q6 -55 29 -80.5t69 -25.5q44 0 66 21.5t22 55.5q0 38 -24.5 58t-68.5 20h-25v48h17q18 0 35 4t33.5 18.5t16.5 38.5q0 31 -20 49t-55 18q-67 0 -77 -75l-54 10q4 54 40.5 86t92.5 32q55 0 92 -30.5t37 -82.5q0 -35 -19.5 -57t-41.5 -29v-2q30 -8 53.5 -35.5
t23.5 -73.5q0 -55 -39.5 -91t-104.5 -36t-106 36.5t-50 110.5z" />
    <glyph glyph-name="fourinferior" unicode="&#x2084;" horiz-adv-x="386" 
d="M35 -94v54l162 267h85v-267h54v-54h-54v-105h-57v105h-190zM89 -40h136v219h-2z" />
    <glyph glyph-name="fiveinferior" unicode="&#x2085;" horiz-adv-x="397" 
d="M45 -89l55 23q9 -39 35 -62t66 -23q42 0 68 25.5t26 71.5q0 45 -26 70t-66 25q-59 0 -94 -50l-49 22l38 214h210v-54h-165l-23 -125h2q31 39 95 39q56 0 95.5 -39.5t39.5 -102.5q0 -69 -43 -109.5t-108 -40.5q-61 0 -100.5 31.5t-55.5 84.5z" />
    <glyph glyph-name="sixinferior" unicode="&#x2086;" horiz-adv-x="406" 
d="M215 -151q42 0 65.5 25.5t23.5 66.5q0 42 -24 67t-67 25q-41 0 -67 -26t-26 -61q0 -44 26.5 -70.5t68.5 -26.5zM104 18h2q8 21 39 42t80 21q55 0 95.5 -38t40.5 -102q0 -68 -41.5 -107.5t-104.5 -39.5q-73 0 -121.5 53t-48.5 160q0 97 46.5 160.5t120.5 63.5
q56 0 89 -30.5t42 -76.5l-53 -15q-19 70 -81 70q-45 0 -75 -43t-30 -118z" />
    <glyph glyph-name="seveninferior" unicode="&#x2087;" horiz-adv-x="322" 
d="M34 -200l200 372v1h-219v54h277v-65l-190 -362h-68z" />
    <glyph glyph-name="eightinferior" unicode="&#x2088;" horiz-adv-x="363" 
d="M111 117q0 -27 19.5 -46t51.5 -19q31 0 50.5 19t19.5 46q0 26 -18.5 45.5t-51.5 19.5t-52 -19.5t-19 -45.5zM111 32v2q-56 23 -56 88q0 45 35 77.5t92 32.5q56 0 92 -32.5t36 -77.5q0 -63 -56 -88v-2q33 -12 53.5 -41t20.5 -68q0 -60 -40.5 -94t-105.5 -34t-106 34
t-41 94q0 39 21 68.5t55 40.5zM92 -73q0 -33 23.5 -55t66.5 -22q42 0 65.5 22t23.5 55q0 35 -24 58t-65 23t-65.5 -23t-24.5 -58z" />
    <glyph glyph-name="nineinferior" unicode="&#x2089;" horiz-adv-x="394" 
d="M56 -100l53 18q16 -70 86 -70q94 0 94 159h-2q-4 -19 -32.5 -40t-75.5 -21q-57 0 -98 39t-41 103q0 66 41 105t102 39q71 0 116 -55t45 -165q0 -112 -40.5 -164.5t-110.5 -52.5q-57 0 -91 29.5t-46 75.5zM186 -3q41 0 65 23.5t24 64.5q0 40 -25 67t-67 27
q-39 0 -63 -24.5t-24 -66.5t24 -66.5t66 -24.5z" />
    <glyph glyph-name="Euro" unicode="&#x20ac;" horiz-adv-x="809" 
d="M80 299h101q-2 36 -2 57q0 24 1 36h-100v60h107q24 127 103.5 195t182.5 68q106 0 177.5 -67.5t86.5 -173.5l-65 -13q-13 84 -63 139t-136 55q-80 0 -140 -52t-79 -151h211v-60h-218q-1 -12 -1 -36q0 -30 3 -57h216v-60h-207q20 -94 78 -144t137 -50q92 0 141 58t58 154
l67 -10q-11 -123 -82.5 -192.5t-183.5 -69.5q-102 0 -180 62.5t-103 191.5h-110v60z" />
    <glyph glyph-name="trademark" unicode="&#x2122;" horiz-adv-x="770" 
d="M366 361v339h77l100 -265h2l103 265h77v-339h-50v289h-2l-110 -289h-37l-108 289h-2v-289h-50zM168 361v294h-108v45h258v-45h-101v-294h-49z" />
    <glyph glyph-name="Omega" unicode="&#x2126;" horiz-adv-x="718" 
d="M73 0v60h137q-61 35 -100.5 119.5t-39.5 181.5q0 172 82.5 263t206.5 91t206.5 -91t82.5 -263q0 -98 -40 -182t-101 -119h138v-60h-251v60q76 13 129.5 91t53.5 196q0 152 -62 229.5t-156 77.5t-156 -78.5t-62 -228.5q0 -118 53 -196.5t130 -90.5v-60h-251z" />
    <glyph glyph-name="onethird" unicode="&#x2153;" horiz-adv-x="868" 
d="M136 -40l489 815l44 -28l-488 -814zM137 273v358l-92 -57v65l98 61h51v-427h-57zM518 142l58 12q6 -55 29 -80.5t69 -25.5q44 0 66 21.5t22 55.5q0 38 -24.5 58t-68.5 20h-25v48h17q18 0 35 4t33.5 18.5t16.5 38.5q0 31 -20 49t-55 18q-67 0 -77 -75l-54 10q4 54 40.5 86
t92.5 32q55 0 92 -30.5t37 -82.5q0 -35 -19.5 -57t-41.5 -29v-2q30 -8 53.5 -35.5t23.5 -73.5q0 -55 -39.5 -91t-104.5 -36t-106 36.5t-50 110.5z" />
    <glyph glyph-name="twothirds" unicode="&#x2154;" horiz-adv-x="998" 
d="M253 -40l489 815l44 -28l-488 -814zM63 273v47q0 54 26 91q3 4 6.5 7.5t6.5 7t8 7t8 6t9 6.5t9.5 6t11 6t10.5 5.5t12 6.5t12 7q71 39 86 54q21 22 21 52q0 28 -22 49.5t-61 21.5q-81 0 -89 -96l-57 7q4 67 43.5 104t104.5 37q62 0 99.5 -35t37.5 -91q0 -27 -9.5 -48.5
t-28 -38t-35 -27t-42.5 -23.5q-33 -18 -45.5 -25t-25.5 -16.5t-20 -19.5q-11 -16 -11 -47h219v-61h-284zM628 144l58 12q6 -55 29 -80.5t69 -25.5q44 0 66 21.5t22 55.5q0 38 -24.5 58t-68.5 20h-25v48h17q18 0 35 4t33.5 18.5t16.5 38.5q0 31 -20 49t-55 18q-67 0 -77 -75
l-54 10q4 54 40.5 86t92.5 32q55 0 92 -30.5t37 -82.5q0 -35 -19.5 -57t-41.5 -29v-2q30 -8 53.5 -35.5t23.5 -73.5q0 -55 -39.5 -91t-104.5 -36t-106 36.5t-50 110.5z" />
    <glyph glyph-name="onefifth" unicode="&#x2155;" horiz-adv-x="871" 
d="M136 -40l489 815l44 -28l-488 -814zM137 273v358l-92 -57v65l98 61h51v-427h-57zM519 111l55 23q9 -39 35 -62t66 -23q42 0 68 25.5t26 71.5q0 45 -26 70t-66 25q-59 0 -94 -50l-49 22l38 214h210v-54h-165l-23 -125h2q31 39 95 39q56 0 95.5 -39.5t39.5 -102.5
q0 -69 -43 -109.5t-108 -40.5q-61 0 -100.5 31.5t-55.5 84.5z" />
    <glyph glyph-name="twofifths" unicode="&#x2156;" horiz-adv-x="1009" 
d="M253 -40l489 815l44 -28l-488 -814zM63 273v47q0 54 26 91q3 4 6.5 7.5t6.5 7t8 7t8 6t9 6.5t9.5 6t11 6t10.5 5.5t12 6.5t12 7q71 39 86 54q21 22 21 52q0 28 -22 49.5t-61 21.5q-81 0 -89 -96l-57 7q4 67 43.5 104t104.5 37q62 0 99.5 -35t37.5 -91q0 -27 -9.5 -48.5
t-28 -38t-35 -27t-42.5 -23.5q-33 -18 -45.5 -25t-25.5 -16.5t-20 -19.5q-11 -16 -11 -47h219v-61h-284zM637 111l55 23q9 -39 35 -62t66 -23q42 0 68 25.5t26 71.5q0 45 -26 70t-66 25q-59 0 -94 -50l-49 22l38 214h210v-54h-165l-23 -125h2q31 39 95 39q56 0 95.5 -39.5
t39.5 -102.5q0 -69 -43 -109.5t-108 -40.5q-61 0 -100.5 31.5t-55.5 84.5z" />
    <glyph glyph-name="threefifths" unicode="&#x2157;" horiz-adv-x="986" 
d="M218 -40l489 815l44 -28l-488 -814zM60 415l58 12q6 -55 29 -80.5t69 -25.5q44 0 66 21.5t22 55.5q0 38 -24.5 58t-68.5 20h-25v48h17q18 0 35 4t33.5 18.5t16.5 38.5q0 31 -20 49t-55 18q-67 0 -77 -75l-54 10q4 54 40.5 86t92.5 32q55 0 92 -30.5t37 -82.5
q0 -35 -19.5 -57t-41.5 -29v-2q30 -8 53.5 -35.5t23.5 -73.5q0 -55 -39.5 -91t-104.5 -36t-106 36.5t-50 110.5zM614 111l55 23q9 -39 35 -62t66 -23q42 0 68 25.5t26 71.5q0 45 -26 70t-66 25q-59 0 -94 -50l-49 22l38 214h210v-54h-165l-23 -125h2q31 39 95 39
q56 0 95.5 -39.5t39.5 -102.5q0 -69 -43 -109.5t-108 -40.5q-61 0 -100.5 31.5t-55.5 84.5z" />
    <glyph glyph-name="fourfifths" unicode="&#x2158;" horiz-adv-x="971" 
d="M225 -40l489 815l44 -28l-488 -814zM35 379v54l162 267h85v-267h54v-54h-54v-105h-57v105h-190zM89 433h136v219h-2zM619 111l55 23q9 -39 35 -62t66 -23q42 0 68 25.5t26 71.5q0 45 -26 70t-66 25q-59 0 -94 -50l-49 22l38 214h210v-54h-165l-23 -125h2q31 39 95 39
q56 0 95.5 -39.5t39.5 -102.5q0 -69 -43 -109.5t-108 -40.5q-61 0 -100.5 31.5t-55.5 84.5z" />
    <glyph glyph-name="onesixth" unicode="&#x2159;" horiz-adv-x="891" 
d="M136 -40l489 815l44 -28l-488 -814zM137 273v358l-92 -57v65l98 61h51v-427h-57zM680 50q42 0 65.5 25.5t23.5 66.5q0 42 -24 67t-67 25q-41 0 -67 -26t-26 -61q0 -44 26.5 -70.5t68.5 -26.5zM569 219h2q8 21 39 42t80 21q55 0 95.5 -38t40.5 -102q0 -68 -41.5 -107.5
t-104.5 -39.5q-73 0 -121.5 53t-48.5 160q0 97 46.5 160.5t120.5 63.5q56 0 89 -30.5t42 -76.5l-53 -15q-19 70 -81 70q-45 0 -75 -43t-30 -118z" />
    <glyph glyph-name="fivesixths" unicode="&#x215a;" horiz-adv-x="954" 
d="M210 -40l489 815l44 -28l-488 -814zM45 384l55 23q9 -39 35 -62t66 -23q42 0 68 25.5t26 71.5q0 45 -26 70t-66 25q-59 0 -94 -50l-49 22l38 214h210v-54h-165l-23 -125h2q31 39 95 39q56 0 95.5 -39.5t39.5 -102.5q0 -69 -43 -109.5t-108 -40.5q-61 0 -100.5 31.5
t-55.5 84.5zM758 50q42 0 65.5 25.5t23.5 66.5q0 42 -24 67t-67 25q-41 0 -67 -26t-26 -61q0 -44 26.5 -70.5t68.5 -26.5zM647 219h2q8 21 39 42t80 21q55 0 95.5 -38t40.5 -102q0 -68 -41.5 -107.5t-104.5 -39.5q-73 0 -121.5 53t-48.5 160q0 97 46.5 160.5t120.5 63.5
q56 0 89 -30.5t42 -76.5l-53 -15q-19 70 -81 70q-45 0 -75 -43t-30 -118z" />
    <glyph glyph-name="oneeighth" unicode="&#x215b;" horiz-adv-x="873" 
d="M136 -40l489 815l44 -28l-488 -814zM137 273v358l-92 -57v65l98 61h51v-427h-57zM586 317q0 -27 19.5 -46t51.5 -19q31 0 50.5 19t19.5 46q0 26 -18.5 45.5t-51.5 19.5t-52 -19.5t-19 -45.5zM586 232v2q-56 23 -56 88q0 45 35 77.5t92 32.5q56 0 92 -32.5t36 -77.5
q0 -63 -56 -88v-2q33 -12 53.5 -41t20.5 -68q0 -60 -40.5 -94t-105.5 -34t-106 34t-41 94q0 39 21 68.5t55 40.5zM567 127q0 -33 23.5 -55t66.5 -22q42 0 65.5 22t23.5 55q0 35 -24 58t-65 23t-65.5 -23t-24.5 -58z" />
    <glyph glyph-name="threeeighths" unicode="&#x215c;" horiz-adv-x="980" 
d="M218 -40l489 815l44 -28l-488 -814zM60 415l58 12q6 -55 29 -80.5t69 -25.5q44 0 66 21.5t22 55.5q0 38 -24.5 58t-68.5 20h-25v48h17q18 0 35 4t33.5 18.5t16.5 38.5q0 31 -20 49t-55 18q-67 0 -77 -75l-54 10q4 54 40.5 86t92.5 32q55 0 92 -30.5t37 -82.5
q0 -35 -19.5 -57t-41.5 -29v-2q30 -8 53.5 -35.5t23.5 -73.5q0 -55 -39.5 -91t-104.5 -36t-106 36.5t-50 110.5zM693 317q0 -27 19.5 -46t51.5 -19q31 0 50.5 19t19.5 46q0 26 -18.5 45.5t-51.5 19.5t-52 -19.5t-19 -45.5zM693 232v2q-56 23 -56 88q0 45 35 77.5t92 32.5
q56 0 92 -32.5t36 -77.5q0 -63 -56 -88v-2q33 -12 53.5 -41t20.5 -68q0 -60 -40.5 -94t-105.5 -34t-106 34t-41 94q0 39 21 68.5t55 40.5zM674 127q0 -33 23.5 -55t66.5 -22q42 0 65.5 22t23.5 55q0 35 -24 58t-65 23t-65.5 -23t-24.5 -58z" />
    <glyph glyph-name="fiveeighths" unicode="&#x215d;" horiz-adv-x="946" 
d="M190 -40l489 815l44 -28l-488 -814zM25 384l55 23q9 -39 35 -62t66 -23q42 0 68 25.5t26 71.5q0 45 -26 70t-66 25q-59 0 -94 -50l-49 22l38 214h210v-54h-165l-23 -125h2q31 39 95 39q56 0 95.5 -39.5t39.5 -102.5q0 -69 -43 -109.5t-108 -40.5q-61 0 -100.5 31.5
t-55.5 84.5zM659 317q0 -27 19.5 -46t51.5 -19q31 0 50.5 19t19.5 46q0 26 -18.5 45.5t-51.5 19.5t-52 -19.5t-19 -45.5zM659 232v2q-56 23 -56 88q0 45 35 77.5t92 32.5q56 0 92 -32.5t36 -77.5q0 -63 -56 -88v-2q33 -12 53.5 -41t20.5 -68q0 -60 -40.5 -94t-105.5 -34
t-106 34t-41 94q0 39 21 68.5t55 40.5zM640 127q0 -33 23.5 -55t66.5 -22q42 0 65.5 22t23.5 55q0 35 -24 58t-65 23t-65.5 -23t-24.5 -58z" />
    <glyph glyph-name="seveneighths" unicode="&#x215e;" horiz-adv-x="906" 
d="M147 -40l489 815l44 -28l-488 -814zM64 273l200 372v1h-219v54h277v-65l-190 -362h-68zM619 317q0 -27 19.5 -46t51.5 -19q31 0 50.5 19t19.5 46q0 26 -18.5 45.5t-51.5 19.5t-52 -19.5t-19 -45.5zM619 232v2q-56 23 -56 88q0 45 35 77.5t92 32.5q56 0 92 -32.5t36 -77.5
q0 -63 -56 -88v-2q33 -12 53.5 -41t20.5 -68q0 -60 -40.5 -94t-105.5 -34t-106 34t-41 94q0 39 21 68.5t55 40.5zM600 127q0 -33 23.5 -55t66.5 -22q42 0 65.5 22t23.5 55q0 35 -24 58t-65 23t-65.5 -23t-24.5 -58z" />
    <glyph glyph-name="leftwardsarrow" unicode="&#x2190;" horiz-adv-x="711" 
d="M601 379v-65h-490l128 -209l-64 -39l-170 280l168 277l64 -38l-126 -206h490z" />
    <glyph glyph-name="upwardsarrow" unicode="&#x2191;" horiz-adv-x="640" 
d="M353 44h-66l1 498l-206 -130l-37 60l275 166l275 -166l-37 -60l-206 130z" />
    <glyph glyph-name="rightwordsarrow" unicode="&#x2192;" horiz-adv-x="711" 
d="M70 314v65h490l-126 206l64 38l168 -277l-170 -280l-64 39l128 209h-490z" />
    <glyph glyph-name="downwardsarrow" unicode="&#x2193;" horiz-adv-x="640" 
d="M267 640h66l-1 -498l206 130l37 -60l-275 -166l-275 166l37 60l206 -130z" />
    <glyph glyph-name="leftrightarrow" unicode="&#x2194;" horiz-adv-x="862" 
d="M720 314h-578l129 -204l-60 -38l-166 274l163 269l61 -38l-126 -200h576l-126 200l61 38l163 -269l-166 -274l-60 38z" />
    <glyph glyph-name="updownarrow" unicode="&#x2195;" horiz-adv-x="644" 
d="M45 123l37 60l205 -130v579l-205 -129l-37 60l277 166l277 -166l-37 -60l-205 129v-579l205 130l37 -60l-277 -166z" />
    <glyph glyph-name="northwestarrow" unicode="&#x2196;" horiz-adv-x="617" 
d="M567 129l-43 -43l-355 355l-56 -240l-63 14l77 312l307 75l14 -63l-236 -55z" />
    <glyph glyph-name="northeastarrow" unicode="&#x2197;" horiz-adv-x="617" 
d="M73 86l-43 43l355 355l-236 55l14 63l307 -75l77 -312l-63 -14l-56 240z" />
    <glyph glyph-name="southeastarrow" unicode="&#x2198;" horiz-adv-x="617" 
d="M30 559l43 43l355 -355l56 240l63 -14l-77 -312l-307 -75l-14 63l236 55z" />
    <glyph glyph-name="southwestarrow" unicode="&#x2199;" horiz-adv-x="617" 
d="M524 602l43 -43l-355 -355l236 -55l-14 -63l-307 75l-77 312l63 14l56 -240z" />
    <glyph glyph-name="downwardsarrowwithtiprightwards" unicode="&#x21b3;" horiz-adv-x="713" 
d="M70 313v387h70v-320h422l-125 204l63 39l168 -277l-172 -280l-63 38l127 209h-490z" />
    <glyph glyph-name="downwardsarrowwithtipleftwards" unicode="&#x21b5;" horiz-adv-x="713" 
d="M628 700v-387h-490l127 -209l-63 -38l-172 280l168 277l63 -39l-125 -204h422v320h70z" />
    <glyph glyph-name="partialdiff" unicode="&#x2202;" horiz-adv-x="607" 
d="M201 682l-33 42q8 7 21.5 17.5t53.5 28.5t78 18q112 0 166.5 -104t54.5 -289q0 -123 -24 -212t-83 -143.5t-149 -54.5q-108 0 -169 64.5t-62 181.5q0 51 12 96.5t37 85.5t70 63.5t104 23.5q22 0 46 -3.5t40.5 -7t39 -11.5t31 -11.5t29.5 -12.5l20 -9q-2 131 -44.5 209.5
t-118.5 78.5q-28 0 -58 -12.5t-46 -25.5zM115 232q1 -80 44.5 -135t125.5 -55q70 0 119 56t65 154q8 46 11 134q-113 58 -200 58q-86 0 -125.5 -59t-39.5 -153z" />
    <glyph glyph-name="Delta" unicode="&#x2206;" horiz-adv-x="654" 
d="M35 0l253 700h78l253 -700h-584zM126 60h402l-201 571z" />
    <glyph glyph-name="product" unicode="&#x220f;" horiz-adv-x="699" 
d="M179 -141v731h-129v60h599v-60h-126v-731h-65v731h-214v-731h-65z" />
    <glyph glyph-name="summation" unicode="&#x2211;" horiz-adv-x="614" 
d="M70 -100v92l240 318l-230 298v92h474v-60h-414l253 -329l-270 -351h431v-60h-484z" />
    <glyph glyph-name="minus" unicode="&#x2212;" horiz-adv-x="634" 
d="M60 354v60h514v-60h-514z" />
    <glyph glyph-name="radical" unicode="&#x221a;" horiz-adv-x="645" 
d="M278 0l-122 353h-136v60h183l115 -334l215 621h67l-242 -700h-80z" />
    <glyph glyph-name="infinity" unicode="&#x221e;" horiz-adv-x="742" 
d="M395 303q44 -126 117 -126q31 0 52.5 13t31 34.5t13 40.5t3.5 38q0 20 -3.5 38.5t-13.5 40.5t-31.5 35.5t-53.5 13.5q-69 0 -115 -128zM373 211q-23 -48 -60 -72t-79 -24q-71 0 -117.5 53t-46.5 135t45.5 136t116.5 54q42 0 79 -24t60 -72q23 48 60 72t79 24
q70 0 116 -54t46 -136t-44.5 -135t-115.5 -53q-42 0 -79 24t-60 72zM347 303q-45 128 -115 128q-31 0 -53 -13.5t-31.5 -35.5t-13.5 -41t-4 -38t4 -38t14 -40.5t32 -34.5t54 -13q18 0 33.5 6.5t38 36.5t41.5 83z" />
    <glyph glyph-name="integral" unicode="&#x222b;" horiz-adv-x="441" 
d="M50 -240v63q80 0 108.5 29t28.5 111v572q0 115 47 162.5t157 47.5v-63q-86 0 -112.5 -31.5t-26.5 -126.5v-554q0 -115 -47 -162.5t-155 -47.5z" />
    <glyph glyph-name="approxequal" unicode="&#x2248;" horiz-adv-x="591" 
d="M192 504q-20 0 -34.5 -7t-25 -24t-14 -25.5t-11.5 -32.5l-47 18q30 133 131 133q42 0 79.5 -22t69.5 -43.5t59 -21.5q20 0 34.5 7t25 24t14 25.5t11.5 32.5l47 -18q-30 -133 -131 -133q-42 0 -80 21.5t-69.5 43.5t-58.5 22zM192 285q-20 0 -34.5 -7t-25 -24t-14 -25.5
t-11.5 -32.5l-47 18q30 133 131 133q33 0 64.5 -13.5t51.5 -30t45 -30t47 -13.5q20 0 34.5 7t25 24t14 25.5t11.5 32.5l47 -18q-30 -133 -131 -133q-42 0 -80 22t-69.5 43.5t-58.5 21.5z" />
    <glyph glyph-name="notequal" unicode="&#x2260;" horiz-adv-x="603" 
d="M70 420v60h264l68 123l45 -26l-55 -97h141v-60h-174l-58 -103h232v-60h-265l-69 -123l-44 25l54 98h-139v60h173l57 103h-230z" />
    <glyph glyph-name="lessequal" unicode="&#x2264;" horiz-adv-x="553" 
d="M60 377v70l391 233l33 -54l-358 -214l357 -216l-33 -54zM60 0v60h433v-60h-433z" />
    <glyph glyph-name="greaterequal" unicode="&#x2265;" horiz-adv-x="553" 
d="M453 447v-70l-390 -235l-33 54l357 216l-358 214l33 54zM453 60v-60h-433v60h433z" />
    <glyph glyph-name="lozenge" unicode="&#x25ca;" horiz-adv-x="597" 
d="M245 0l-205 356l208 344h99l210 -344l-207 -356h-105zM298 26l193 330l-193 316l-192 -316z" />
    <glyph glyph-name="commaaccent" unicode="&#xf6c3;" horiz-adv-x="295" 
d="M100 -218v32q28 4 38.5 15t10.5 33h-49v82h95v-67q0 -48 -22 -70t-73 -25z" />
    <glyph glyph-name="apple" unicode="&#xf8ff;" horiz-adv-x="786" 
d="M100 0v423q0 117 86 204.5t206 87.5q121 0 207.5 -87.5t86.5 -204.5v-423h-28l-65 65l-68 -65l-63 65l-71 -65l-69 65l-63 -65l-67 65l-66 -65h-26zM450 377q0 -29 20.5 -49.5t49.5 -20.5t50.5 21t21.5 49q0 30 -21.5 51t-50.5 21t-49.5 -21t-20.5 -51zM195 377
q0 -29 21 -49.5t50 -20.5q30 0 50.5 20.5t20.5 49.5q0 30 -20.5 51t-50.5 21q-29 0 -50 -21t-21 -51z" />
    <glyph glyph-name="dieresis.cap" horiz-adv-x="411" 
d="M260 765v83h81v-83h-81zM70 765v83h81v-83h-81z" />
    <glyph glyph-name="tilde.cap" horiz-adv-x="388" 
d="M97 765h-37q19 88 85 88q25 0 59 -18.5t52 -18.5q27 0 35 32h37q-9 -40 -27 -64t-57 -24q-25 0 -59.5 18.5t-52.5 18.5q-27 0 -35 -32z" />
    <glyph glyph-name="macron.cap" horiz-adv-x="428" 
d="M70 765v55h288v-55h-288z" />
    <glyph glyph-name="acute.cap" horiz-adv-x="286" 
d="M60 765l78 120h88l-107 -120h-59z" />
    <glyph glyph-name="circumflex.cap" horiz-adv-x="312" 
d="M40 780l66 85h100l66 -85l-41 -33l-75 94l-75 -94z" />
    <glyph glyph-name="caron.cap" horiz-adv-x="312" 
d="M106 765l-66 85l41 33l75 -94l75 94l41 -33l-66 -85h-100z" />
    <glyph glyph-name="ring.cap" horiz-adv-x="312" 
d="M156 687q-42 0 -69 28.5t-27 71.5q0 42 27.5 71t68.5 29q42 0 69 -28.5t27 -71.5q0 -44 -26.5 -72t-69.5 -28zM156 727q20 0 35 16t15 45t-14.5 44t-35.5 15q-20 0 -34.5 -15t-14.5 -44t14.5 -45t34.5 -16z" />
    <glyph glyph-name="breve.cap" horiz-adv-x="342" 
d="M50 870h38q10 -59 83 -59q75 0 83 59h38q0 -55 -33.5 -85t-87.5 -30t-87.5 30t-33.5 85z" />
    <glyph glyph-name="hungarumlaut.cap" horiz-adv-x="452" 
d="M95 765l75 115h83l-104 -115h-54zM224 765l75 115h83l-104 -115h-54z" />
    <glyph glyph-name="dotaccent.cap" horiz-adv-x="266" 
d="M90 765v88h86v-88h-86z" />
    <glyph glyph-name="grave.cap" horiz-adv-x="286" 
d="M167 765l-107 120h88l78 -120h-59z" />
    <glyph glyph-name="a.ss01" horiz-adv-x="594" 
d="M439 0v54h-2q-48 -69 -152 -69q-105 0 -167.5 76t-62.5 204q0 126 64.5 203t165.5 77q97 0 152 -66h2v51h65v-530h-65zM439 162v187q0 51 -39.5 93.5t-104.5 42.5q-85 0 -130 -58.5t-45 -161.5q0 -104 44.5 -162t130.5 -58q61 0 102.5 35t41.5 82z" />
    <glyph glyph-name="agrave.ss01" horiz-adv-x="594" 
d="M439 0v54h-2q-48 -69 -152 -69q-105 0 -167.5 76t-62.5 204q0 126 64.5 203t165.5 77q97 0 152 -66h2v51h65v-530h-65zM439 162v187q0 51 -39.5 93.5t-104.5 42.5q-85 0 -130 -58.5t-45 -161.5q0 -104 44.5 -162t130.5 -58q61 0 102.5 35t41.5 82zM260 595l-107 120h88
l78 -120h-59z" />
    <glyph glyph-name="aacute.ss01" horiz-adv-x="594" 
d="M439 0v54h-2q-48 -69 -152 -69q-105 0 -167.5 76t-62.5 204q0 126 64.5 203t165.5 77q97 0 152 -66h2v51h65v-530h-65zM439 162v187q0 51 -39.5 93.5t-104.5 42.5q-85 0 -130 -58.5t-45 -161.5q0 -104 44.5 -162t130.5 -58q61 0 102.5 35t41.5 82zM267 595l77 120h88
l-106 -120h-59z" />
    <glyph glyph-name="acircumflex.ss01" horiz-adv-x="594" 
d="M419 0v54h-2q-48 -69 -152 -69q-105 0 -167.5 76t-62.5 204q0 126 64.5 203t165.5 77q97 0 152 -66h2v51h65v-530h-65zM419 162v187q0 51 -39.5 93.5t-104.5 42.5q-85 0 -130 -58.5t-45 -161.5q0 -104 44.5 -162t130.5 -58q61 0 102.5 35t41.5 82zM166 615l66 85h100
l66 -85l-41 -33l-75 94l-75 -94z" />
    <glyph glyph-name="atilde.ss01" horiz-adv-x="594" 
d="M439 0v54h-2q-48 -69 -152 -69q-105 0 -167.5 76t-62.5 204q0 126 64.5 203t165.5 77q97 0 152 -66h2v51h65v-530h-65zM439 162v187q0 51 -39.5 93.5t-104.5 42.5q-85 0 -130 -58.5t-45 -161.5q0 -104 44.5 -162t130.5 -58q61 0 102.5 35t41.5 82zM202 605h-37
q19 88 85 88q25 0 59 -18.5t52 -18.5q27 0 35 32h37q-9 -40 -27 -64t-57 -24q-25 0 -59.5 18.5t-52.5 18.5q-27 0 -35 -32z" />
    <glyph glyph-name="adieresis.ss01" horiz-adv-x="594" 
d="M439 0v54h-2q-48 -69 -152 -69q-105 0 -167.5 76t-62.5 204q0 126 64.5 203t165.5 77q97 0 152 -66h2v51h65v-530h-65zM439 162v187q0 51 -39.5 93.5t-104.5 42.5q-85 0 -130 -58.5t-45 -161.5q0 -104 44.5 -162t130.5 -58q61 0 102.5 35t41.5 82zM164 617v83h81v-83h-81
zM354 617v83h81v-83h-81z" />
    <glyph glyph-name="amacron.ss01" horiz-adv-x="594" 
d="M419 0v54h-2q-48 -69 -152 -69q-105 0 -167.5 76t-62.5 204q0 126 64.5 203t165.5 77q97 0 152 -66h2v51h65v-530h-65zM419 162v187q0 51 -39.5 93.5t-104.5 42.5q-85 0 -130 -58.5t-45 -161.5q0 -104 44.5 -162t130.5 -58q61 0 102.5 35t41.5 82zM135 620v55h288v-55
h-288z" />
    <glyph glyph-name="abreve.ss01" horiz-adv-x="594" 
d="M439 0v54h-2q-48 -69 -152 -69q-105 0 -167.5 76t-62.5 204q0 126 64.5 203t165.5 77q97 0 152 -66h2v51h65v-530h-65zM439 162v187q0 51 -39.5 93.5t-104.5 42.5q-85 0 -130 -58.5t-45 -161.5q0 -104 44.5 -162t130.5 -58q61 0 102.5 35t41.5 82zM178 700h38
q10 -59 83 -59q75 0 83 59h38q0 -55 -33.5 -85t-87.5 -30t-87.5 30t-33.5 85z" />
    <glyph glyph-name="aring.ss01" horiz-adv-x="594" 
d="M419 0v54h-2q-48 -69 -152 -69q-105 0 -167.5 76t-62.5 204q0 112 51.5 186t135.5 90q-39 28 -39 82q0 42 27.5 71t68.5 29q42 0 69 -28.5t27 -71.5q0 -62 -46 -87q54 -17 88 -57h2v51h65v-530h-65zM419 162v187q0 51 -39.5 93.5t-104.5 42.5q-85 0 -130 -58.5
t-45 -161.5q0 -104 44.5 -162t130.5 -58q61 0 102.5 35t41.5 82zM279 563q20 0 35 16t15 45t-14.5 44t-35.5 15q-20 0 -34.5 -15t-14.5 -44t14.5 -45t34.5 -16z" />
    <glyph glyph-name="aringacute.ss01" horiz-adv-x="594" 
d="M439 0v54h-2q-48 -69 -152 -69q-105 0 -167.5 76t-62.5 204q0 112 51.5 186t135.5 90q-39 28 -39 82q0 40 26.5 69.5t65.5 30.5l55 86h88l-89 -100q46 -27 46 -86q0 -62 -46 -87q54 -17 88 -57h2v51h65v-530h-65zM439 162v187q0 51 -39.5 93.5t-104.5 42.5
q-85 0 -130 -58.5t-45 -161.5q0 -104 44.5 -162t130.5 -58q61 0 102.5 35t41.5 82zM299 563q20 0 35 16t15 45t-14.5 44t-35.5 15q-20 0 -34.5 -15t-14.5 -44t14.5 -45t34.5 -16z" />
    <glyph glyph-name="aogonek.ss01" horiz-adv-x="596" 
d="M439 0v54h-2q-48 -69 -152 -69q-105 0 -167.5 76t-62.5 204q0 126 64.5 203t165.5 77q97 0 152 -66h2v51h65v-530q-76 -71 -76 -123q0 -35 42 -35q38 0 73 38l28 -26q-50 -64 -123 -64q-39 0 -64.5 17.5t-25.5 52.5q0 63 95 140h-14zM439 162v187q0 51 -39.5 93.5
t-104.5 42.5q-85 0 -130 -58.5t-45 -161.5q0 -104 44.5 -162t130.5 -58q61 0 102.5 35t41.5 82z" />
    <glyph glyph-name="caron.alt" horiz-adv-x="299" 
d="M100 584l28 146h71l-50 -146h-49z" />
    <glyph glyph-name="parenleft.cap" horiz-adv-x="389" 
d="M327 -115l-38 -32q-17 16 -44 53.5t-65 102t-64 154.5t-26 180q0 83 18.5 162t42.5 131t56.5 100t49.5 66.5t32 33.5l40 -33q-82 -86 -130.5 -193t-48.5 -266q0 -245 177 -459z" />
    <glyph glyph-name="parenright.cap" horiz-adv-x="389" 
d="M80 -147l-38 32q177 214 177 459q0 159 -48.5 266t-130.5 193l40 33q15 -15 32 -33.5t49.5 -66.5t56.5 -100t42.5 -131t18.5 -162q0 -90 -26 -180t-64 -154.5t-65 -102t-44 -53.5z" />
    <glyph glyph-name="bracketleft.cap" horiz-adv-x="377" 
d="M90 -122v952h237v-50h-182v-852h182v-50h-237z" />
    <glyph glyph-name="bracketright.cap" horiz-adv-x="377" 
d="M267 830v-952h-237v50h182v852h-182v50h237z" />
    <glyph glyph-name="braceleft.cap" horiz-adv-x="387" 
d="M141 -7v272q0 32 -12 45t-41 13h-28v89h28q29 0 41 14.5t12 46.5v225q0 76 31 104t89 28h56v-50h-50q-38 0 -54.5 -19t-16.5 -67v-224q0 -28 -9 -49t-22.5 -31.5t-22.5 -15.5t-16 -6q7 -2 15.5 -7t22.5 -15.5t23 -31t9 -46.5v-271q0 -48 16.5 -67t54.5 -19h50v-50h-56
q-58 0 -89 28t-31 104z" />
    <glyph glyph-name="braceright.cap" horiz-adv-x="387" 
d="M196 265v-272q0 -76 -31 -104t-89 -28h-56v50h50q38 0 54.5 19t16.5 67v271q0 26 9 46.5t23 31t22.5 15.5t15.5 7q-7 1 -16 6t-22.5 15.5t-22.5 31.5t-9 49v224q0 48 -16.5 67t-54.5 19h-50v50h56q58 0 89 -28t31 -104v-225q0 -32 12 -46.5t41 -14.5h28v-89h-28
q-29 0 -41 -13t-12 -45z" />
    <glyph glyph-name="published" horiz-adv-x="735" 
d="M367 94q111 0 185 74.5t74 185.5q0 110 -74 184t-185 74q-110 0 -184 -74t-74 -184q0 -111 74 -185.5t184 -74.5zM367 46q-130 0 -218.5 88.5t-88.5 219.5q0 130 88.5 218.5t218.5 88.5t219 -88.5t89 -218.5t-88.5 -219t-219.5 -89zM327 365h66q82 0 82 63q0 65 -82 65
h-66v-128zM393 318h-66v-152h-49v372h115q63 0 97 -27.5t34 -82.5t-34 -82.5t-97 -27.5z" />
    <glyph glyph-name="zero.numr" horiz-adv-x="406" 
d="M203 268q-73 0 -115.5 57t-42.5 167q0 104 43.5 158.5t114.5 54.5t114.5 -54.5t43.5 -158.5q0 -110 -42.5 -167t-115.5 -57zM203 322q97 0 97 171q0 159 -97 159q-96 0 -96 -159q0 -171 96 -171z" />
    <glyph glyph-name="one.numr" horiz-adv-x="269" 
d="M127 273v358l-92 -57v65l98 61h51v-427h-57z" />
    <glyph glyph-name="two.numr" horiz-adv-x="367" 
d="M43 273v47q0 54 26 91q3 4 6.5 7.5t6.5 7t8 7t8 6t9 6.5t9.5 6t11 6t10.5 5.5t12 6.5t12 7q71 39 86 54q21 22 21 52q0 28 -22 49.5t-61 21.5q-81 0 -89 -96l-57 7q4 67 43.5 104t104.5 37q62 0 99.5 -35t37.5 -91q0 -27 -9.5 -48.5t-28 -38t-35 -27t-42.5 -23.5
q-33 -18 -45.5 -25t-25.5 -16.5t-20 -19.5q-11 -16 -11 -47h219v-61h-284z" />
    <glyph glyph-name="three.numr" horiz-adv-x="360" 
d="M25 415l58 12q6 -55 29 -80.5t69 -25.5q44 0 66 21.5t22 55.5q0 38 -24.5 58t-68.5 20h-25v48h17q18 0 35 4t33.5 18.5t16.5 38.5q0 31 -20 49t-55 18q-67 0 -77 -75l-54 10q4 54 40.5 86t92.5 32q55 0 92 -30.5t37 -82.5q0 -35 -19.5 -57t-41.5 -29v-2q30 -8 53.5 -35.5
t23.5 -73.5q0 -55 -39.5 -91t-104.5 -36t-106 36.5t-50 110.5z" />
    <glyph glyph-name="four.numr" horiz-adv-x="386" 
d="M35 379v54l162 267h85v-267h54v-54h-54v-105h-57v105h-190zM89 433h136v219h-2z" />
    <glyph glyph-name="five.numr" horiz-adv-x="397" 
d="M45 384l55 23q9 -39 35 -62t66 -23q42 0 68 25.5t26 71.5q0 45 -26 70t-66 25q-59 0 -94 -50l-49 22l38 214h210v-54h-165l-23 -125h2q31 39 95 39q56 0 95.5 -39.5t39.5 -102.5q0 -69 -43 -109.5t-108 -40.5q-61 0 -100.5 31.5t-55.5 84.5z" />
    <glyph glyph-name="six.numr" horiz-adv-x="406" 
d="M215 323q42 0 65.5 25.5t23.5 66.5q0 42 -24 67t-67 25q-41 0 -67 -26t-26 -61q0 -44 26.5 -70.5t68.5 -26.5zM104 492h2q8 21 39 42t80 21q55 0 95.5 -38t40.5 -102q0 -68 -41.5 -107.5t-104.5 -39.5q-73 0 -121.5 53t-48.5 160q0 97 46.5 160.5t120.5 63.5
q56 0 89 -30.5t42 -76.5l-53 -15q-19 70 -81 70q-45 0 -75 -43t-30 -118z" />
    <glyph glyph-name="seven.numr" horiz-adv-x="322" 
d="M34 273l200 372v1h-219v54h277v-65l-190 -362h-68z" />
    <glyph glyph-name="eight.numr" horiz-adv-x="363" 
d="M111 590q0 -27 19.5 -46t51.5 -19q31 0 50.5 19t19.5 46q0 26 -18.5 45.5t-51.5 19.5t-52 -19.5t-19 -45.5zM111 505v2q-56 23 -56 88q0 45 35 77.5t92 32.5q56 0 92 -32.5t36 -77.5q0 -63 -56 -88v-2q33 -12 53.5 -41t20.5 -68q0 -60 -40.5 -94t-105.5 -34t-106 34
t-41 94q0 39 21 68.5t55 40.5zM92 400q0 -33 23.5 -55t66.5 -22q42 0 65.5 22t23.5 55q0 35 -24 58t-65 23t-65.5 -23t-24.5 -58z" />
    <glyph glyph-name="nine.numr" horiz-adv-x="394" 
d="M56 373l53 18q16 -70 86 -70q94 0 94 159h-2q-4 -19 -32.5 -40t-75.5 -21q-57 0 -98 39t-41 103q0 66 41 105t102 39q71 0 116 -55t45 -165q0 -112 -40.5 -164.5t-110.5 -52.5q-57 0 -91 29.5t-46 75.5zM186 470q41 0 65 23.5t24 64.5q0 40 -25 67t-67 27
q-39 0 -63 -24.5t-24 -66.5t24 -66.5t66 -24.5z" />
    <glyph glyph-name="zero.dnom" horiz-adv-x="406" 
d="M203 -5q-73 0 -115.5 57t-42.5 167q0 104 43.5 158.5t114.5 54.5t114.5 -54.5t43.5 -158.5q0 -110 -42.5 -167t-115.5 -57zM203 49q97 0 97 171q0 159 -97 159q-96 0 -96 -159q0 -171 96 -171z" />
    <glyph glyph-name="one.dnom" horiz-adv-x="269" 
d="M127 0v358l-92 -57v65l98 61h51v-427h-57z" />
    <glyph glyph-name="two.dnom" horiz-adv-x="367" 
d="M43 0v47q0 54 26 91q3 4 6.5 7.5t6.5 7t8 7t8 6t9 6.5t9.5 6t11 6t10.5 5.5t12 6.5t12 7q71 39 86 54q21 22 21 52q0 28 -22 49.5t-61 21.5q-81 0 -89 -96l-57 7q4 67 43.5 104t104.5 37q62 0 99.5 -35t37.5 -91q0 -27 -9.5 -48.5t-28 -38t-35 -27t-42.5 -23.5
q-33 -18 -45.5 -25t-25.5 -16.5t-20 -19.5q-11 -16 -11 -47h219v-61h-284z" />
    <glyph glyph-name="three.dnom" horiz-adv-x="360" 
d="M25 142l58 12q6 -55 29 -80.5t69 -25.5q44 0 66 21.5t22 55.5q0 38 -24.5 58t-68.5 20h-25v48h17q18 0 35 4t33.5 18.5t16.5 38.5q0 31 -20 49t-55 18q-67 0 -77 -75l-54 10q4 54 40.5 86t92.5 32q55 0 92 -30.5t37 -82.5q0 -35 -19.5 -57t-41.5 -29v-2q30 -8 53.5 -35.5
t23.5 -73.5q0 -55 -39.5 -91t-104.5 -36t-106 36.5t-50 110.5z" />
    <glyph glyph-name="four.dnom" horiz-adv-x="386" 
d="M35 106v54l162 267h85v-267h54v-54h-54v-105h-57v105h-190zM89 160h136v219h-2z" />
    <glyph glyph-name="five.dnom" horiz-adv-x="397" 
d="M45 111l55 23q9 -39 35 -62t66 -23q42 0 68 25.5t26 71.5q0 45 -26 70t-66 25q-59 0 -94 -50l-49 22l38 214h210v-54h-165l-23 -125h2q31 39 95 39q56 0 95.5 -39.5t39.5 -102.5q0 -69 -43 -109.5t-108 -40.5q-61 0 -100.5 31.5t-55.5 84.5z" />
    <glyph glyph-name="six.dnom" horiz-adv-x="406" 
d="M215 50q42 0 65.5 25.5t23.5 66.5q0 42 -24 67t-67 25q-41 0 -67 -26t-26 -61q0 -44 26.5 -70.5t68.5 -26.5zM104 219h2q8 21 39 42t80 21q55 0 95.5 -38t40.5 -102q0 -68 -41.5 -107.5t-104.5 -39.5q-73 0 -121.5 53t-48.5 160q0 97 46.5 160.5t120.5 63.5
q56 0 89 -30.5t42 -76.5l-53 -15q-19 70 -81 70q-45 0 -75 -43t-30 -118z" />
    <glyph glyph-name="seven.dnom" horiz-adv-x="322" 
d="M34 0l200 372v1h-219v54h277v-65l-190 -362h-68z" />
    <glyph glyph-name="eight.dnom" horiz-adv-x="363" 
d="M111 317q0 -27 19.5 -46t51.5 -19q31 0 50.5 19t19.5 46q0 26 -18.5 45.5t-51.5 19.5t-52 -19.5t-19 -45.5zM111 232v2q-56 23 -56 88q0 45 35 77.5t92 32.5q56 0 92 -32.5t36 -77.5q0 -63 -56 -88v-2q33 -12 53.5 -41t20.5 -68q0 -60 -40.5 -94t-105.5 -34t-106 34
t-41 94q0 39 21 68.5t55 40.5zM92 127q0 -33 23.5 -55t66.5 -22q42 0 65.5 22t23.5 55q0 35 -24 58t-65 23t-65.5 -23t-24.5 -58z" />
    <glyph glyph-name="nine.dnom" horiz-adv-x="394" 
d="M56 100l53 18q16 -70 86 -70q94 0 94 159h-2q-4 -19 -32.5 -40t-75.5 -21q-57 0 -98 39t-41 103q0 66 41 105t102 39q71 0 116 -55t45 -165q0 -112 -40.5 -164.5t-110.5 -52.5q-57 0 -91 29.5t-46 75.5zM186 197q41 0 65 23.5t24 64.5q0 40 -25 67t-67 27
q-39 0 -63 -24.5t-24 -66.5t24 -66.5t66 -24.5z" />
    <glyph glyph-name="plusinferior" horiz-adv-x="453" 
d="M201 -157v162h-141v47h141v143h51v-143h141v-47h-141v-162h-51z" />
    <glyph glyph-name="minusinferior" horiz-adv-x="423" 
d="M363 5h-303v47h303v-47z" />
    <glyph glyph-name="zero.tnum" 
d="M325 -15q-123 0 -190.5 99t-67.5 275q0 171 71 263.5t187 92.5t187 -92.5t71 -263.5q0 -176 -67.5 -275t-190.5 -99zM325 45q92 0 141 86t49 229q0 139 -50 217t-140 78t-140 -78t-50 -217q0 -143 49 -229t141 -86z" />
    <glyph glyph-name="one.tnum" 
d="M120 0v64h195v559l-151 -95v72l161 100h50v-636h195v-64h-450z" />
    <glyph glyph-name="two.tnum" 
d="M104 0v50q0 96 33 151q20 32 55.5 58.5t100.5 62.5q113 62 151.5 98t38.5 100q0 50 -38.5 92.5t-114.5 42.5q-73 0 -117.5 -45t-47.5 -126l-64 6q4 105 67.5 165t161.5 60q104 0 161 -59t57 -138q0 -26 -5.5 -49t-12 -39.5t-22.5 -34.5t-25 -27.5t-32 -25t-31.5 -20.5
t-36.5 -20.5t-34 -18.5q-10 -6 -31.5 -17.5t-29.5 -16t-23.5 -14t-23 -15t-18 -14t-17 -16.5t-12.5 -17q-24 -38 -24 -109h379v-64h-445z" />
    <glyph glyph-name="three.tnum" 
d="M87 230l64 12q13 -102 55 -149.5t127 -47.5q82 0 123 43.5t41 105.5q0 78 -48.5 116.5t-128.5 38.5h-34v60h14q176 0 176 121q0 58 -39.5 91.5t-104.5 33.5q-63 0 -100 -37.5t-45 -104.5l-64 11q10 87 66.5 139t142.5 52q91 0 150 -48.5t59 -136.5q0 -60 -34.5 -98
t-80.5 -48v-2q60 -14 98 -63t38 -125q0 -91 -65 -150t-163 -59q-103 0 -168 59.5t-79 185.5z" />
    <glyph glyph-name="four.tnum" 
d="M87 171v59l286 470h101v-469h89v-60h-89v-171h-65v171h-322zM154 231h255v418h-2z" />
    <glyph glyph-name="five.tnum" 
d="M84 181l63 19q41 -155 180 -155q81 0 127.5 51t46.5 138q0 82 -46 130t-123 48q-106 0 -162 -88l-63 25l63 351h338v-60h-288l-44 -242l1 -1q62 71 166 71q92 0 157.5 -64t65.5 -170q0 -113 -67 -181t-172 -68q-95 0 -158.5 54t-84.5 142z" />
    <glyph glyph-name="six.tnum" 
d="M342 45q83 0 129 49t46 134q0 82 -48 130t-129 48q-76 0 -128 -51t-52 -124q0 -77 52 -131.5t130 -54.5zM545 538l-60 -16q-34 133 -151 133q-79 0 -138.5 -80t-59.5 -236l2 -1q12 37 69.5 81.5t145.5 44.5q94 0 161.5 -64.5t67.5 -168.5q0 -115 -67 -180.5t-173 -65.5
q-52 0 -98.5 19t-87 58.5t-64.5 110.5t-24 165q0 169 76 273t189 104q90 0 143.5 -50.5t68.5 -126.5z" />
    <glyph glyph-name="seven.tnum" 
d="M151 0l348 638v2h-360v60h430v-68l-335 -632h-83z" />
    <glyph glyph-name="eight.tnum" 
d="M324 656q-70 0 -105 -36.5t-35 -89.5q0 -55 39 -91t101 -36t100.5 36t38.5 91q0 53 -35 89.5t-104 36.5zM324 -15q-110 0 -176 55.5t-66 156.5q0 68 40.5 117.5t95.5 64.5v2q-99 43 -99 156q0 71 55.5 124.5t149.5 53.5t149 -53.5t55 -124.5q0 -116 -98 -156v-2
q55 -16 96 -65t41 -117q0 -101 -66.5 -156.5t-176.5 -55.5zM324 48q84 0 128.5 41t44.5 108t-49 108t-124 41t-124 -41t-49 -108t44.5 -108t128.5 -41z" />
    <glyph glyph-name="nine.tnum" 
d="M111 162l63 18q13 -58 50.5 -96.5t101.5 -38.5q176 0 180 314h-3q-4 -13 -15.5 -29.5t-32.5 -37.5t-58.5 -35t-82.5 -14q-103 0 -168 65.5t-65 172.5q0 105 66.5 169.5t160.5 64.5q123 0 192 -91t69 -274q0 -100 -19.5 -173.5t-54.5 -114t-77 -59t-92 -18.5
q-80 0 -138 46.5t-77 130.5zM314 303q75 0 121.5 50t46.5 125t-49 126t-125 51q-70 0 -116 -47t-46 -127q0 -82 46 -130t122 -48z" />
    <glyph glyph-name="Euro.tnum" 
d="M364 392h-174q-1 -12 -1 -36q0 -21 2 -57h173v-60h-163q18 -95 67.5 -142t120.5 -47q77 0 119 55.5t53 151.5l68 -9q-10 -123 -75 -193t-165 -70q-95 0 -166 62.5t-94 191.5h-109v60h102q-2 18 -2 57q0 24 1 36h-101v60h108q21 127 93.5 195t167.5 68q94 0 159.5 -68
t79.5 -173l-67 -13q-13 84 -56 137.5t-116 53.5t-124 -49t-68 -151h167v-60z" />
    <glyph glyph-name="dollar.tnum" 
d="M55 244l68 12q16 -98 55.5 -147t127.5 -59l1 292q-109 28 -163.5 73.5t-54.5 117.5q0 75 59 127t160 55v60h40v-62q89 -8 145 -56.5t68 -135.5l-68 -12q-12 63 -44.5 98.5t-101.5 42.5v-252q141 -39 194 -85.5t53 -128.5q0 -87 -63.5 -143t-182.5 -56h-2v-83h-40v85
q-221 20 -251 257zM347 331l-1 -283h5q91 0 134 40t43 99q0 52 -36 82.5t-145 61.5zM156 533q0 -43 33.5 -72.5t117.5 -51.5v243q-74 -2 -112.5 -35.5t-38.5 -83.5z" />
    <glyph glyph-name="sterling.tnum" 
d="M81 0v60h38q38 0 52 14.5t14 51.5v197h-104v55h104v130q0 98 50 152.5t137 54.5q80 0 127.5 -48t59.5 -139l-63 -13q-12 72 -40 106t-86 34q-120 0 -120 -158v-119h210v-55h-210v-263h318v-60h-487z" />
    <glyph glyph-name="yen.tnum" 
d="M84 146v55h208v93h-208v55h179l-200 351h72l189 -338h2l189 338h72l-200 -351h180v-55h-208v-93h208v-55h-210v-146h-63v146h-210z" />
    <glyph glyph-name="cent.tnum" 
d="M487 199l65 -12q-9 -84 -64.5 -141t-139.5 -61v-95h-35v96q-98 8 -156.5 81t-58.5 198q0 123 60.5 196.5t154.5 82.5v87h35v-86q81 -5 137.5 -59t65.5 -137l-64 -10q-10 60 -44.5 101t-94.5 44v-439q62 5 96 49.5t43 104.5zM163 265q0 -97 39.5 -154t110.5 -65v437
q-68 -8 -109 -65.5t-41 -152.5z" />
    <glyph glyph-name="florin.tnum" 
d="M134 -173l102 585h-98l9 53h98l26 136q28 144 135 144q67 0 110 -57l-45 -43q-31 40 -62 40t-49 -20.5t-29 -77.5l-22 -122h145l-9 -53h-145l-102 -585h-64z" />
    <glyph glyph-name="percent.tnum" 
d="M197 461q51 0 78.5 42t27.5 113t-28.5 106.5t-77.5 35.5t-77 -36t-28 -106q0 -72 27 -113.5t78 -41.5zM197 407q-79 0 -122 56.5t-43 152.5q0 93 49.5 144.5t115.5 51.5q67 0 116.5 -51.5t49.5 -144.5q0 -95 -43.5 -152t-122.5 -57zM457 -48q51 0 78.5 42t27.5 113
t-28.5 106.5t-77.5 35.5t-77 -36t-28 -106q0 -72 27 -113.5t78 -41.5zM457 -102q-79 0 -122 56.5t-43 152.5q0 93 49.5 144.5t115.5 51.5q67 0 116.5 -51.5t49.5 -144.5q0 -95 -43.5 -152t-122.5 -57zM26 188l565 381l28 -44l-563 -381z" />
    <glyph glyph-name="perthousand.tnum" horiz-adv-x="1300" 
d="M299 461q51 0 78.5 42t27.5 113t-28.5 106.5t-77.5 35.5t-77 -36t-28 -106q0 -72 27 -113.5t78 -41.5zM299 407q-79 0 -122 56.5t-43 152.5q0 93 49.5 144.5t115.5 51.5q67 0 116.5 -51.5t49.5 -144.5q0 -95 -43.5 -152t-122.5 -57zM599 -48q51 0 78.5 42t27.5 113
t-28.5 106.5t-77.5 35.5t-77 -36t-28 -106q0 -72 27 -113.5t78 -41.5zM599 -102q-79 0 -122 56.5t-43 152.5q0 93 49.5 144.5t115.5 51.5q67 0 116.5 -51.5t49.5 -144.5q0 -95 -43.5 -152t-122.5 -57zM142 188l565 381l28 -44l-563 -381zM999 -48q51 0 78.5 42t27.5 113
t-28.5 106.5t-77.5 35.5t-77 -36t-28 -106q0 -72 27 -113.5t78 -41.5zM999 -102q-79 0 -122 56.5t-43 152.5q0 93 49.5 144.5t115.5 51.5q67 0 116.5 -51.5t49.5 -144.5q0 -95 -43.5 -152t-122.5 -57z" />
    <glyph glyph-name="plus.tnum" 
d="M295 130v228h-199v55h199v202h60v-202h199v-55h-199v-228h-60z" />
    <glyph glyph-name="minus.tnum" 
d="M68 354v60h514v-60h-514z" />
    <glyph glyph-name="plusminus.tnum" 
d="M106 101v60h438v-60h-438zM295 225v193h-199v55h199v177h60v-177h199v-55h-199v-193h-60z" />
    <glyph glyph-name="multiply.tnum" 
d="M109 164l172 172l-162 162l43 43l162 -162l163 162l43 -43l-163 -162l173 -172l-43 -43l-173 172l-172 -172z" />
    <glyph glyph-name="divide.tnum" 
d="M133 324v60h384v-60h-384zM261 143q0 27 18.5 45.5t44.5 18.5q27 0 45.5 -18.5t18.5 -45.5q0 -26 -18.5 -44.5t-45.5 -18.5q-26 0 -44.5 18.5t-18.5 44.5zM261 566q0 27 18.5 45.5t44.5 18.5q27 0 45.5 -18.5t18.5 -45.5q0 -26 -18.5 -44.5t-45.5 -18.5q-26 0 -44.5 18.5
t-18.5 44.5z" />
    <glyph glyph-name="equal.tnum" 
d="M93 257v60h463v-60h-463zM93 420v60h463v-60h-463z" />
    <glyph glyph-name="notequal.tnum" 
d="M93 420v60h264l68 123l45 -26l-55 -97h141v-60h-174l-58 -103h232v-60h-265l-69 -123l-44 25l54 98h-139v60h173l57 103h-230z" />
    <glyph glyph-name="approxequal.tnum" 
d="M133 408l-52 28q13 53 49.5 92.5t91.5 39.5q42 0 81 -22t72 -43.5t60 -21.5q19 0 33 7t24.5 25t13.5 25.5t11 31.5l52 -27q-14 -56 -46.5 -94.5t-87.5 -38.5q-42 0 -81.5 22t-72 43.5t-59.5 21.5q-61 0 -89 -89zM133 190l-52 27q13 53 49.5 93t91.5 40q42 0 81 -22
t72 -43.5t60 -21.5q19 0 33 7t24.5 25t13.5 25.5t11 31.5l52 -28q-14 -55 -47 -93.5t-87 -38.5q-42 0 -81.5 22t-72 43.5t-59.5 21.5q-61 0 -89 -89z" />
    <glyph glyph-name="less.tnum" 
d="M114 317v70l391 233l31 -50l-366 -218l365 -221l-31 -49z" />
    <glyph glyph-name="greater.tnum" 
d="M536 387v-70l-390 -235l-31 49l365 221l-366 218l31 50z" />
    <glyph glyph-name="lessequal.tnum" 
d="M108 377v70l391 233l33 -54l-358 -214l357 -216l-33 -54zM108 0v60h433v-60h-433z" />
    <glyph glyph-name="greaterequal.tnum" 
d="M541 447v-70l-390 -235l-33 54l357 216l-358 214l33 54zM541 60v-60h-433v60h433z" />
    </font>
</defs>
</svg>
